<svg xmlns="http://www.w3.org/2000/svg" xmlns:xlink="http://www.w3.org/1999/xlink" width="542" height="292" viewBox="0 0 542 292"><defs><path id="ckq9a" d="M580.42 2331.47l-31.35-81.03-31.35 81.03zm-147.75 116.59c0-2.89.66-5.78 1.99-8.66l96.21-247.98c3.84-8.66 9.91-13 18.2-13 8.53 0 14.6 4.34 18.2 13l96.58 248.88c.96 2.4 1.44 5 1.44 7.76 0 5.3-1.87 9.8-5.59 13.54a18.4 18.4 0 0 1-13.51 5.59 17.8 17.8 0 0 1-13.34-5.6 20.43 20.43 0 0 1-4.32-6.13l-33.33-85.73h-92.26l-33.5 85.73a20.53 20.53 0 0 1-4.33 6.14 18.4 18.4 0 0 1-13.52 5.59c-5.28 0-9.76-1.86-13.42-5.6a18.6 18.6 0 0 1-5.5-13.53zm359.06-145.29c-8.9 0-17.18 1.7-24.87 5.06a63.81 63.81 0 0 0-20 13.62 64.5 64.5 0 0 0-13.42 20.13 61.57 61.57 0 0 0-4.95 24.54c0 8.67 1.65 16.85 4.95 24.55a64.45 64.45 0 0 0 13.42 20.12 63.72 63.72 0 0 0 20 13.63 61.24 61.24 0 0 0 24.87 5.05c8.77 0 17-1.68 24.68-5.05a64.12 64.12 0 0 0 33.6-33.84 60.97 60.97 0 0 0 4.96-24.46c0-8.66-1.65-16.81-4.95-24.45a64.17 64.17 0 0 0-33.6-33.84 60.86 60.86 0 0 0-24.69-5.06zm63.24 145.65v-3.61c-9 7.22-18.8 12.75-29.37 16.6a98.17 98.17 0 0 1-33.87 5.78c-27.87 0-51.65-9.86-71.35-29.6-19.7-19.73-29.55-43.55-29.55-71.47 0-27.91 9.85-51.73 29.55-71.47 19.7-19.73 43.48-29.6 71.35-29.6 27.63 0 51.41 9.87 71.35 29.6 19.7 19.74 29.55 43.56 29.55 71.47v82.3c0 5.17-1.83 9.6-5.5 13.26a18.03 18.03 0 0 1-13.24 5.5c-5.29 0-9.76-1.82-13.42-5.5a18.09 18.09 0 0 1-5.5-13.26z"/><path id="ckq9b" d="M456.43 2377.91c.88-.6 1.93-.92 3.15-.96.74 0 1.44.15 2.08.43.64.29 1.2.67 1.7 1.14a5.26 5.26 0 0 1 1.6 3.8 5.4 5.4 0 0 1-1.68 3.85 39.9 39.9 0 0 1-25.52 9.02c-11.24 0-20.81-3.96-28.73-11.86-7.91-7.9-11.87-17.45-11.87-28.66 0-11.18 3.96-20.72 11.87-28.62 7.95-7.94 17.53-11.9 28.73-11.9 9.6 0 18.28 3.15 26.03 9.47a4.9 4.9 0 0 1 1.42 3.7 5.42 5.42 0 0 1-1.55 3.82 5.5 5.5 0 0 1-3.83 1.54c-1.32 0-2.55-.5-3.7-1.52a29.2 29.2 0 0 0-18.37-6.28c-8.26 0-15.31 2.92-21.17 8.77a28.6 28.6 0 0 0-8.67 21.02c0 8.27 2.89 15.3 8.67 21.07a28.84 28.84 0 0 0 21.17 8.7c7.07 0 13.3-2.17 18.67-6.53zm72.26-11.09c0 7.9-2.78 14.59-8.33 20.06a27.62 27.62 0 0 1-20.1 8.3 27.4 27.4 0 0 1-20.09-8.3 27.3 27.3 0 0 1-8.32-20.06 27.3 27.3 0 0 1 8.32-20.06 27.41 27.41 0 0 1 20.1-8.3c7.78 0 14.48 2.77 20.1 8.3a27.82 27.82 0 0 1 6.21 9.17 29.12 29.12 0 0 1 2.1 10.89zm-28.42-17.78c-2.5 0-4.84.48-7 1.42a17.98 17.98 0 0 0-5.64 3.83 18.1 18.1 0 0 0-3.78 5.64 17.22 17.22 0 0 0-1.4 6.89c0 2.43.47 4.73 1.4 6.89a17.95 17.95 0 0 0 9.41 9.47 17.3 17.3 0 0 0 7 1.42c2.48 0 4.8-.47 6.96-1.42a18.06 18.06 0 0 0 9.46-9.5c.93-2.14 1.4-4.43 1.4-6.86 0-2.43-.47-4.72-1.4-6.86a18.08 18.08 0 0 0-9.46-9.5 17.21 17.21 0 0 0-6.95-1.42zm116.25 40.83c0 1.48-.52 2.74-1.55 3.77a5.1 5.1 0 0 1-3.73 1.55 5.06 5.06 0 0 1-3.75-1.55 5.17 5.17 0 0 1-1.53-3.77v-28.82c0-1.62-.31-3.16-.94-4.61a12.15 12.15 0 0 0-11.14-7.4c-1.65 0-3.2.32-4.66.97-1.46.64-2.74 1.5-3.83 2.58a11.85 11.85 0 0 0-3.53 8.46v28.82c0 1.48-.52 2.74-1.55 3.77a5.1 5.1 0 0 1-3.73 1.55 5.15 5.15 0 0 1-3.78-1.55 5.12 5.12 0 0 1-1.55-3.77v-28.82c0-1.66-.32-3.21-.96-4.66a12.44 12.44 0 0 0-6.4-6.38 11.45 11.45 0 0 0-4.67-.97c-1.65 0-3.21.32-4.66.94a12.17 12.17 0 0 0-6.42 6.4c-.63 1.46-.94 3.01-.94 4.67v28.82c0 1.48-.52 2.74-1.55 3.77a5.1 5.1 0 0 1-3.73 1.55 5.15 5.15 0 0 1-3.78-1.55 5.12 5.12 0 0 1-1.55-3.77v-46.15c0-1.45.52-2.69 1.55-3.72a5.09 5.09 0 0 1 3.73-1.54c1.18 0 2.23.33 3.14.98a4.96 4.96 0 0 1 1.88 2.61c3.62-2.4 7.73-3.6 12.33-3.6 3.39 0 6.57.67 9.55 2a21.49 21.49 0 0 1 7.81 6.06c4.7-5.37 10.47-8.05 17.3-8.05 3.08 0 6 .6 8.76 1.8a23.15 23.15 0 0 1 7.2 4.86 23.13 23.13 0 0 1 4.88 7.19c1.2 2.75 1.8 5.66 1.8 8.74zm40.08-65.09c-9.34 0-14 4.64-14 13.93v2.63h10.2c1.45 0 2.69.52 3.72 1.55a5.07 5.07 0 0 1 1.55 3.72c0 1.49-.52 2.75-1.55 3.78a5.09 5.09 0 0 1-3.73 1.54h-10.2v37.99a5.5 5.5 0 0 1-1.52 3.72 5.01 5.01 0 0 1-3.76 1.55 5.3 5.3 0 0 1-3.75-1.55 5.47 5.47 0 0 1-1.52-3.72v-37.99h-2.44a5.2 5.2 0 0 1-5.28-5.32 5.11 5.11 0 0 1 5.28-5.27h2.44v-2.63c0-16.34 8.18-24.52 24.56-24.52 1.45 0 2.7.52 3.73 1.55a5.07 5.07 0 0 1 1.55 3.72c0 1.49-.52 2.75-1.55 3.78a5.09 5.09 0 0 1-3.73 1.54zm65.4 42.04c0 7.9-2.77 14.59-8.32 20.06a27.62 27.62 0 0 1-20.1 8.3 27.4 27.4 0 0 1-20.1-8.3 27.3 27.3 0 0 1-8.32-20.06 27.3 27.3 0 0 1 8.33-20.06 27.41 27.41 0 0 1 20.1-8.3c7.77 0 14.47 2.77 20.09 8.3a27.82 27.82 0 0 1 6.21 9.17 29.12 29.12 0 0 1 2.11 10.89zm-28.42-17.78c-2.5 0-4.84.48-7 1.42a17.98 17.98 0 0 0-5.63 3.83 18.1 18.1 0 0 0-3.79 5.64 17.22 17.22 0 0 0-1.4 6.89c0 2.43.47 4.73 1.4 6.89a17.95 17.95 0 0 0 9.41 9.47 17.3 17.3 0 0 0 7.01 1.42c2.47 0 4.79-.47 6.95-1.42a18.06 18.06 0 0 0 9.47-9.5c.93-2.14 1.4-4.43 1.4-6.86 0-2.43-.47-4.72-1.4-6.86a18.07 18.07 0 0 0-9.46-9.5 17.21 17.21 0 0 0-6.96-1.42zm46.42-5.32v1.02a27.76 27.76 0 0 1 17.81-6.28c1.5 0 3.1.1 4.8.3 1.71.2 3.28.57 4.72 1.09 1.44.52 2.63 1.24 3.58 2.15a4.7 4.7 0 0 1 1.42 3.55c0 .74-.14 1.43-.43 2.08-.29.64-.67 1.2-1.14 1.7a5.02 5.02 0 0 1-3.76 1.54c-.64 0-1.39-.19-2.23-.56a18.74 18.74 0 0 0-6.95-1.27 17.92 17.92 0 0 0-12.61 5.2 17.88 17.88 0 0 0-3.81 5.64 17.36 17.36 0 0 0-1.4 6.94v23.1c0 1.45-.51 2.7-1.54 3.72a5.1 5.1 0 0 1-3.73 1.55 5.15 5.15 0 0 1-3.78-1.55 5.07 5.07 0 0 1-1.55-3.72v-46.2c0-1.45.51-2.69 1.55-3.72a5.15 5.15 0 0 1 3.78-1.54c1.45 0 2.7.51 3.73 1.54a5.07 5.07 0 0 1 1.54 3.72zm42.77-5.26h2.39v-19.05c0-1.45.51-2.69 1.55-3.72a5.15 5.15 0 0 1 3.78-1.55c1.45 0 2.7.52 3.73 1.55a5.07 5.07 0 0 1 1.54 3.72v19.05h6.35a5 5 0 0 1 3.7 1.54 5.12 5.12 0 0 1 1.53 3.72c0 1.5-.51 2.75-1.53 3.78a5 5 0 0 1-3.7 1.54h-6.35v25.48c0 6.72 3.39 10.08 10.15 10.08a5 5 0 0 1 3.7 1.55 5.1 5.1 0 0 1 1.53 3.72c0 1.48-.5 2.74-1.52 3.77a5 5 0 0 1-3.7 1.55c-13.84 0-20.76-6.9-20.76-20.67v-25.48h-2.39a5.02 5.02 0 0 1-3.68-1.54 5.12 5.12 0 0 1-1.54-3.78c0-1.45.51-2.69 1.54-3.72a5.03 5.03 0 0 1 3.68-1.54zm60.43 10.58c-2.5 0-4.84.48-7 1.42a17.98 17.98 0 0 0-5.63 3.83 18.1 18.1 0 0 0-3.78 5.64 17.22 17.22 0 0 0-1.4 6.89c0 2.43.46 4.73 1.4 6.89a17.95 17.95 0 0 0 9.41 9.47 17.3 17.3 0 0 0 7 1.42c2.47 0 4.79-.47 6.95-1.42a18.06 18.06 0 0 0 9.47-9.5c.93-2.14 1.4-4.43 1.4-6.86 0-2.43-.47-4.72-1.4-6.86a18.08 18.08 0 0 0-9.46-9.5 17.21 17.21 0 0 0-6.96-1.42zm17.81 40.88v-1.02a27.75 27.75 0 0 1-17.81 6.28 27.4 27.4 0 0 1-20.1-8.3 27.3 27.3 0 0 1-8.32-20.06 27.3 27.3 0 0 1 8.33-20.06 27.41 27.41 0 0 1 20.1-8.3c7.77 0 14.47 2.77 20.09 8.3a27.3 27.3 0 0 1 8.32 20.06v23.1c0 1.45-.51 2.7-1.55 3.72a5.1 5.1 0 0 1-3.73 1.55 5.15 5.15 0 0 1-3.78-1.55 5.07 5.07 0 0 1-1.55-3.72zm46.63-40.88c-2.5 0-4.84.48-7 1.42a17.98 17.98 0 0 0-5.64 3.83 18.1 18.1 0 0 0-3.78 5.64 17.22 17.22 0 0 0-1.4 6.89c0 2.43.47 4.73 1.4 6.89a17.95 17.95 0 0 0 9.41 9.47 17.3 17.3 0 0 0 7.01 1.42c2.47 0 4.79-.47 6.95-1.42a18.06 18.06 0 0 0 9.47-9.5c.93-2.14 1.4-4.43 1.4-6.86 0-2.43-.47-4.72-1.4-6.86a18.08 18.08 0 0 0-9.46-9.5 17.21 17.21 0 0 0-6.96-1.42zm17.81 40.88v-1.02a27.75 27.75 0 0 1-17.81 6.28 27.4 27.4 0 0 1-20.1-8.3 27.3 27.3 0 0 1-8.32-20.06 27.3 27.3 0 0 1 8.32-20.06 27.41 27.41 0 0 1 20.1-8.3c7.78 0 14.48 2.77 20.1 8.3a27.3 27.3 0 0 1 8.32 20.06v23.1c0 1.45-.52 2.7-1.55 3.72a5.1 5.1 0 0 1-3.73 1.55 5.15 5.15 0 0 1-3.78-1.55 5.07 5.07 0 0 1-1.55-3.72z"/></defs><g><g transform="translate(-396 -2177)"><use fill="#ceecfa" xlink:href="#ckq9a"/></g><g transform="translate(-396 -2177)"><use xlink:href="#ckq9b"/></g></g></svg>