<svg xmlns="http://www.w3.org/2000/svg" xmlns:xlink="http://www.w3.org/1999/xlink" width="511" height="38" viewBox="0 0 511 38"><defs><path id="kl3za" d="M691.7 8916.38a15.9 15.9 0 0 1 5.22-2.7 22.2 22.2 0 0 1 6.72-.97c2.04 0 3.9.22 5.55.67a13.7 13.7 0 0 1 4.23 1.88 8.55 8.55 0 0 1 2.68 2.9c.62 1.13.93 2.38.93 3.73a8.37 8.37 0 0 1-4.39 7.58c.77.38 1.47.82 2.12 1.31a9 9 0 0 1 1.66 1.64c.46.59.82 1.23 1.07 1.91.26.7.4 1.42.4 2.2a10.3 10.3 0 0 1-3.67 8.07 13.23 13.23 0 0 1-4.42 2.43c-1.75.59-3.74.88-5.99.88a23.93 23.93 0 0 1-10.71-2.7 14.94 14.94 0 0 1-2.7-1.84l2.49-3.74c.2-.27.46-.5.78-.68.33-.18.68-.27 1.06-.27.52 0 1.05.15 1.6.45l1.88 1a16 16 0 0 0 2.49.99c.94.3 2.07.45 3.36.45.93 0 1.77-.08 2.5-.25a4.85 4.85 0 0 0 1.86-.82c.5-.38.89-.87 1.16-1.47.26-.6.4-1.33.4-2.2 0-.68-.16-1.28-.47-1.8-.3-.52-.74-.96-1.3-1.31a6.23 6.23 0 0 0-1.99-.8c-.77-.17-1.62-.25-2.56-.23h-5.28l-.03-6.2h4.62c2.1 0 3.65-.34 4.66-1.01a3.29 3.29 0 0 0 1.52-2.92 3 3 0 0 0-1.4-2.6c-.93-.64-2.32-.96-4.19-.96-1.08 0-2.02.12-2.83.35-.8.23-1.52.48-2.14.77-.63.28-1.17.54-1.65.77-.47.23-.9.34-1.3.34-.44 0-.8-.1-1.07-.28a3.07 3.07 0 0 1-.78-.86zm61.42 18.01l-3.36-9.44a62.05 62.05 0 0 1-1.65-4.76 35.84 35.84 0 0 1-1.6 4.8l-3.34 9.4zm13.4 13.2h-6.54c-.73 0-1.32-.17-1.77-.5a3.11 3.11 0 0 1-1.02-1.24l-2.15-6.01h-13.81l-2.15 6.01a2.9 2.9 0 0 1-2.74 1.73h-6.59l14.07-34.5h8.63zm50.6-6.05a7.8 7.8 0 0 0 2.74-.4c.7-.27 1.25-.61 1.65-1.04.4-.43.68-.9.83-1.44a6.05 6.05 0 0 0-.04-3.34c-.18-.5-.47-.93-.9-1.28a4.48 4.48 0 0 0-1.68-.8 10.3 10.3 0 0 0-2.65-.3h-5.88v8.6zm-5.93-22.47v8.53h4.39c.93 0 1.77-.06 2.52-.2a5.41 5.41 0 0 0 1.9-.65 3.1 3.1 0 0 0 1.2-1.3c.28-.56.41-1.25.41-2.09 0-.82-.1-1.5-.32-2.05a2.95 2.95 0 0 0-1-1.31 4.3 4.3 0 0 0-1.7-.71c-.7-.14-1.52-.22-2.46-.22zm4.94-5.99c2.5 0 4.64.23 6.4.67 1.77.44 3.2 1.06 4.32 1.87a7.17 7.17 0 0 1 2.43 2.93c.51 1.16.76 2.44.76 3.86 0 .78-.11 1.52-.35 2.24-.23.72-.6 1.39-1.1 2.01-.5.63-1.13 1.2-1.91 1.72s-1.72.97-2.82 1.35c2.4.55 4.16 1.44 5.31 2.68a6.73 6.73 0 0 1 1.72 4.78c0 1.47-.3 2.83-.9 4.1a9.44 9.44 0 0 1-2.63 3.3 12.67 12.67 0 0 1-4.27 2.2c-1.7.53-3.64.8-5.82.8h-14.51v-34.5zm62.73 0v34.5h-8.48V8933H855.6v14.58h-8.48v-34.5h8.48v14.42h14.77v-14.42zm49.73 0v34.5h-8.48v-19.32c0-.9.03-1.85.09-2.85.05-1 .17-2.07.33-3.21a25.84 25.84 0 0 1-2.57 5.07l-11.05 17.92a6.61 6.61 0 0 1-1.52 1.62c-.31.23-.65.42-1.02.56-.37.14-.75.21-1.15.21h-6.36v-34.5h8.48v19.3c0 .9-.02 1.85-.07 2.85s-.17 2.08-.35 3.21a26.72 26.72 0 0 1 2.57-5.04l11.05-17.92a6.57 6.57 0 0 1 1.52-1.63c.32-.22.66-.41 1.02-.55.37-.14.75-.22 1.15-.22zm58.86 0v34.5h-7.43v-19.84a32.35 32.35 0 0 1 .17-3.13l-9.65 17.74c-.3.55-.7.97-1.2 1.25-.52.29-1.1.43-1.74.43h-1.15c-.65 0-1.23-.14-1.73-.43-.51-.28-.91-.7-1.21-1.25l-9.65-17.78a63.8 63.8 0 0 1 .17 3.17v19.84h-7.43v-34.5h6.43c.37 0 .69.01.96.03.28.01.52.06.74.14.21.08.41.2.58.37.18.16.35.4.52.7l9.35 17.5a33.8 33.8 0 0 1 1.85 3.85c.28-.7.57-1.37.88-2.03.3-.67.64-1.3.99-1.9l9.32-17.42c.17-.3.34-.54.52-.7.17-.17.37-.3.58-.37.22-.08.46-.13.74-.14.27-.02.6-.03.96-.03zm37.12 21.31l-3.37-9.44a62.05 62.05 0 0 1-1.65-4.76 35.84 35.84 0 0 1-1.6 4.8l-3.34 9.4zm13.39 13.2h-6.53c-.74 0-1.33-.17-1.78-.5a3.11 3.11 0 0 1-1.02-1.24l-2.14-6.01h-13.82l-2.15 6.01a2.9 2.9 0 0 1-2.74 1.73h-6.58l14.06-34.5h8.63zm45.47-34.5v34.5h-8.48v-14.6h-14.77v14.6h-8.48v-34.5h8.48v14.41h14.77v-14.42zm49.73 0v34.5h-8.48v-19.33c0-.9.03-1.85.09-2.85s.17-2.07.34-3.21a25.84 25.84 0 0 1-2.57 5.07l-11.05 17.92a6.6 6.6 0 0 1-1.52 1.62c-.32.23-.66.42-1.03.56-.36.14-.74.21-1.14.21h-6.36v-34.5h8.48v19.3c0 .9-.03 1.85-.08 2.85s-.16 2.08-.35 3.21a26.74 26.74 0 0 1 2.57-5.04l11.05-17.92a6.57 6.57 0 0 1 1.52-1.63c.32-.22.66-.41 1.03-.55.36-.14.74-.22 1.14-.22zm26.5 6.15v8.05h11.41v5.92h-11.42v8.22h14.92v6.15h-23.4v-34.5h23.4v6.16zm38.48-6.16v13.55c0 1.45-.1 2.9-.28 4.32a61.93 61.93 0 0 1-.72 4.37h-5.24c-.3-1.49-.54-2.94-.72-4.37a33.92 33.92 0 0 1-.28-4.32v-13.55zm-8.08 30.78c0-.56.1-1.1.33-1.58.23-.49.53-.92.92-1.28a4.42 4.42 0 0 1 3.14-1.18 4.6 4.6 0 0 1 3.11 1.18 3.93 3.93 0 0 1 1.27 2.86 3.84 3.84 0 0 1-1.27 2.9 4.74 4.74 0 0 1-3.12 1.16c-.63 0-1.2-.1-1.74-.31-.53-.2-1-.5-1.39-.86a3.97 3.97 0 0 1-1.25-2.89z"/></defs><g><g transform="translate(-689 -8911)"><use fill="#fff" xlink:href="#kl3za"/></g></g></svg>