<svg xmlns="http://www.w3.org/2000/svg" xmlns:xlink="http://www.w3.org/1999/xlink" width="32" height="21" viewBox="0 0 32 21"><defs><path id="as5ea" d="M491.05 3176.86v17.35h-3.24v-7.58h-8.15v7.58h-3.24v-17.35h3.24v7.46h8.15v-7.46zm3.23 4.84c.12-.84.35-1.57.7-2.2a5.25 5.25 0 0 1 3.06-2.51 7.1 7.1 0 0 1 4.32.02c.65.23 1.2.54 1.65.95a4.16 4.16 0 0 1 1.42 3.18c0 .56-.06 1.04-.19 1.46a3.16 3.16 0 0 1-1.4 1.89c-.34.22-.73.4-1.16.54 1.04.33 1.82.83 2.33 1.5s.77 1.52.77 2.53a4.93 4.93 0 0 1-1.78 3.97c-.54.45-1.17.8-1.9 1.03-.7.23-1.46.34-2.26.34-.88 0-1.64-.1-2.29-.3a4.95 4.95 0 0 1-2.91-2.32 9.73 9.73 0 0 1-.87-1.97l1.31-.54c.35-.15.67-.18.97-.12.3.07.52.23.65.49.15.28.3.56.48.83a2.94 2.94 0 0 0 2.62 1.44c.5 0 .94-.08 1.32-.25.38-.16.69-.38.94-.64a2.63 2.63 0 0 0 .75-1.86c0-.42-.04-.8-.13-1.13a1.68 1.68 0 0 0-.55-.87 3 3 0 0 0-1.2-.57 8.7 8.7 0 0 0-2.12-.2v-2.11c.73-.01 1.34-.08 1.82-.2.48-.14.86-.31 1.14-.54.29-.23.49-.5.6-.82.1-.32.17-.68.17-1.06 0-.82-.23-1.44-.69-1.86a2.57 2.57 0 0 0-1.82-.64 2.77 2.77 0 0 0-2.36 1.2c-.17.24-.29.5-.37.8-.13.36-.31.6-.53.73-.22.12-.53.15-.93.08z"/></defs><g><g transform="translate(-475 -3175)"><use fill="#ccc" xlink:href="#as5ea"/></g></g></svg>