<svg xmlns="http://www.w3.org/2000/svg" xmlns:xlink="http://www.w3.org/1999/xlink" width="33" height="20" viewBox="0 0 33 20"><defs><path id="86rka" d="M490.85 3270.18v17.36h-3.24v-7.59h-8.15v7.59h-3.24v-17.36h3.24v7.47h8.15v-7.47zm10.48 10.82v-5.68c0-.54.03-1.13.1-1.78l-5.38 7.46zm4.76 0v1.71a.6.6 0 0 1-.15.41c-.1.12-.26.18-.45.18h-1.58v4.24h-2.58v-4.24H494a.81.81 0 0 1-.53-.19.8.8 0 0 1-.29-.46l-.31-1.5 8.22-10.98h2.8V3281z"/></defs><g><g transform="translate(-475 -3269)"><use fill="#ccc" xlink:href="#86rka"/></g></g></svg>