<svg xmlns="http://www.w3.org/2000/svg" xmlns:xlink="http://www.w3.org/1999/xlink" width="426" height="274" viewBox="0 0 426 274"><defs><path id="bzgwa" d="M1221.14 2366.28l-32.47-88.89c-1.6-3.94-3.26-8.62-4.99-14.04a451.76 451.76 0 0 1-5.16-17.56 334.76 334.76 0 0 1-4.98 17.65 221 221 0 0 1-4.98 14.32l-32.3 88.52zm87.64 100.9h-38.38c-4.3 0-7.81-1.07-10.51-3.22a20.1 20.1 0 0 1-6.1-8.04l-19.92-54.52h-110.52l-19.92 54.52c-1 2.83-2.9 5.42-5.72 7.76-2.84 2.34-6.4 3.5-10.7 3.5h-38.57l104.8-267.22h50.74zm118.08-80.94c-13.16.62-24.23 1.76-33.21 3.42-8.98 1.67-16.18 3.8-21.59 6.38-5.41 2.59-9.29 5.6-11.62 9.05a19.69 19.69 0 0 0-3.5 11.28c0 8 2.36 13.74 7.1 17.18 4.73 3.46 10.91 5.18 18.54 5.18 9.35 0 17.44-1.7 24.26-5.08 6.83-3.4 13.5-8.53 20.02-15.43zM1322.43 2304c21.77-19.96 47.97-29.94 78.6-29.94 11.07 0 20.97 1.82 29.7 5.46a62.78 62.78 0 0 1 22.15 15.15 64.92 64.92 0 0 1 13.74 23.2c3.14 8.99 4.7 18.84 4.7 29.56v119.76h-20.66c-4.3 0-7.63-.65-9.96-1.94-2.34-1.3-4.18-3.91-5.54-7.86l-4.06-13.67c-4.8 4.31-9.47 8.1-14.02 11.36a82.5 82.5 0 0 1-14.2 8.23 76.33 76.33 0 0 1-15.78 5.08 90.79 90.79 0 0 1-18.54 1.76c-8 0-15.38-1.08-22.14-3.24a48.55 48.55 0 0 1-17.53-9.7 43.51 43.51 0 0 1-11.44-16.08c-2.7-6.4-4.06-13.86-4.06-22.36 0-4.8.8-9.58 2.4-14.32a41.87 41.87 0 0 1 7.84-13.59c3.63-4.3 8.33-8.37 14.12-12.2 5.78-3.81 12.88-7.14 21.3-9.97 8.43-2.84 18.24-5.15 29.43-6.93 11.2-1.79 23.99-2.87 38.38-3.24v-11.09c0-12.68-2.7-22.08-8.12-28.18-5.41-6.1-13.22-9.15-23.43-9.15-7.38 0-13.5.87-18.36 2.59a75.63 75.63 0 0 0-12.82 5.82 1288 1288 0 0 1-10.06 5.82 19.87 19.87 0 0 1-10.05 2.59c-3.2 0-5.9-.83-8.12-2.5-2.21-1.66-4-3.6-5.35-5.82z"/></defs><g><g transform="translate(-1047 -2198)"><use fill="#ceecfa" xlink:href="#bzgwa"/></g></g></svg>