<svg xmlns="http://www.w3.org/2000/svg" xmlns:xlink="http://www.w3.org/1999/xlink" width="426" height="274" viewBox="0 0 426 274"><defs><path id="f99ma" d="M1221.14 2366.28l-32.47-88.89c-1.6-3.94-3.26-8.62-4.99-14.04a451.76 451.76 0 0 1-5.16-17.56 334.76 334.76 0 0 1-4.98 17.65 221 221 0 0 1-4.98 14.32l-32.3 88.52zm87.64 100.9h-38.38c-4.3 0-7.81-1.07-10.51-3.22a20.1 20.1 0 0 1-6.1-8.04l-19.92-54.52h-110.52l-19.92 54.52c-1 2.83-2.9 5.42-5.72 7.76-2.84 2.34-6.4 3.5-10.7 3.5h-38.57l104.8-267.22h50.74zm118.08-80.94c-13.16.62-24.23 1.76-33.21 3.42-8.98 1.67-16.18 3.8-21.59 6.38-5.41 2.59-9.29 5.6-11.62 9.05a19.69 19.69 0 0 0-3.5 11.28c0 8 2.36 13.74 7.1 17.18 4.73 3.46 10.91 5.18 18.54 5.18 9.35 0 17.44-1.7 24.26-5.08 6.83-3.4 13.5-8.53 20.02-15.43zM1322.43 2304c21.77-19.96 47.97-29.94 78.6-29.94 11.07 0 20.97 1.82 29.7 5.46a62.78 62.78 0 0 1 22.15 15.15 64.92 64.92 0 0 1 13.74 23.2c3.14 8.99 4.7 18.84 4.7 29.56v119.76h-20.66c-4.3 0-7.63-.65-9.96-1.94-2.34-1.3-4.18-3.91-5.54-7.86l-4.06-13.67c-4.8 4.31-9.47 8.1-14.02 11.36a82.5 82.5 0 0 1-14.2 8.23 76.33 76.33 0 0 1-15.78 5.08 90.79 90.79 0 0 1-18.54 1.76c-8 0-15.38-1.08-22.14-3.24a48.55 48.55 0 0 1-17.53-9.7 43.51 43.51 0 0 1-11.44-16.08c-2.7-6.4-4.06-13.86-4.06-22.36 0-4.8.8-9.58 2.4-14.32a41.87 41.87 0 0 1 7.84-13.59c3.63-4.3 8.33-8.37 14.12-12.2 5.78-3.81 12.88-7.14 21.3-9.97 8.43-2.84 18.24-5.15 29.43-6.93 11.2-1.79 23.99-2.87 38.38-3.24v-11.09c0-12.68-2.7-22.08-8.12-28.18-5.41-6.1-13.22-9.15-23.43-9.15-7.38 0-13.5.87-18.36 2.59a75.63 75.63 0 0 0-12.82 5.82 1288 1288 0 0 1-10.06 5.82 19.87 19.87 0 0 1-10.05 2.59c-3.2 0-5.9-.83-8.12-2.5-2.21-1.66-4-3.6-5.35-5.82z"/><path id="f99mb" d="M1231.9 2380.47V2392h-44.02v-75h13.98v63.48zm37.15-11.2c-3.7.17-6.82.5-9.35.96a24.97 24.97 0 0 0-6.08 1.79 7.99 7.99 0 0 0-3.27 2.54 5.5 5.5 0 0 0-1 3.16c0 2.25.68 3.86 2.01 4.83 1.33.96 3.07 1.45 5.22 1.45 2.63 0 4.91-.48 6.84-1.43a20.3 20.3 0 0 0 5.63-4.33zm-29.4-23.08c6.12-5.6 13.5-8.4 22.13-8.4 3.12 0 5.9.5 8.37 1.53a17.7 17.7 0 0 1 6.23 4.25 18.2 18.2 0 0 1 3.87 6.5 24.96 24.96 0 0 1 1.33 8.3V2392h-5.82a5.89 5.89 0 0 1-2.8-.55c-.67-.36-1.19-1.1-1.57-2.2l-1.14-3.84a46.08 46.08 0 0 1-3.95 3.19 21.65 21.65 0 0 1-8.44 3.73c-1.58.33-3.32.5-5.23.5-2.25 0-4.33-.3-6.23-.91-1.9-.6-3.55-1.51-4.94-2.73a12.2 12.2 0 0 1-3.22-4.5 15.96 15.96 0 0 1-1.14-6.28 11.75 11.75 0 0 1 2.88-7.83 18.42 18.42 0 0 1 3.97-3.43 25.9 25.9 0 0 1 6-2.8 52 52 0 0 1 8.3-1.94c3.15-.5 6.75-.8 10.8-.91v-3.11c0-3.57-.76-6.2-2.28-7.91-1.53-1.72-3.73-2.57-6.6-2.57-2.08 0-3.8.24-5.17.72a21.35 21.35 0 0 0-3.61 1.64l-2.84 1.63c-.85.49-1.79.73-2.83.73a3.7 3.7 0 0 1-2.29-.7 5.83 5.83 0 0 1-1.5-1.64zm72.07 46.62c-4.64 0-8.2-1.3-10.68-3.91-2.48-2.61-3.72-6.22-3.72-10.81v-29.72h-5.45a2.5 2.5 0 0 1-1.77-.68c-.48-.45-.73-1.12-.73-2.02v-5.08l8.58-1.4 2.7-14.53c.17-.69.5-1.22.99-1.6.48-.38 1.1-.58 1.87-.58h6.65v16.76h14.24v9.13h-14.24v28.83c0 1.66.4 2.96 1.22 3.9.81.93 1.93 1.4 3.35 1.4.8 0 1.47-.1 2-.3a10.9 10.9 0 0 0 2.47-1.18c.31-.2.63-.29.94-.29.38 0 .69.1.93.29.25.19.5.47.78.85l3.85 6.23a19.44 19.44 0 0 1-6.45 3.52c-2.42.8-4.93 1.2-7.53 1.2zm45.1-54.87c3.96 0 7.55.64 10.79 1.92a23.66 23.66 0 0 1 8.31 5.45 23.93 23.93 0 0 1 5.33 8.6 32.69 32.69 0 0 1 1.87 11.36c0 4.22-.62 8.03-1.87 11.41a24.43 24.43 0 0 1-5.33 8.67 23.28 23.28 0 0 1-8.31 5.5 29.14 29.14 0 0 1-10.78 1.91c-3.99 0-7.6-.64-10.87-1.91a23.22 23.22 0 0 1-8.34-5.5 24.72 24.72 0 0 1-5.35-8.67 32.43 32.43 0 0 1-1.9-11.4c0-4.19.64-7.98 1.9-11.36a24.2 24.2 0 0 1 5.35-8.61 23.6 23.6 0 0 1 8.34-5.45 29.49 29.49 0 0 1 10.87-1.92zm0 44.97c4.44 0 7.72-1.49 9.85-4.46 2.13-2.97 3.2-7.33 3.2-13.07s-1.07-10.12-3.2-13.12c-2.13-3.01-5.41-4.52-9.84-4.52-4.5 0-7.84 1.52-10 4.54-2.17 3.03-3.26 7.4-3.26 13.1 0 5.7 1.09 10.05 3.25 13.04 2.17 3 5.5 4.49 10 4.49z"/></defs><g><g transform="translate(-1047 -2198)"><use fill="#ceecfa" xlink:href="#f99ma"/></g><g transform="translate(-1047 -2198)"><use xlink:href="#f99mb"/></g></g></svg>