<svg xmlns="http://www.w3.org/2000/svg" xmlns:xlink="http://www.w3.org/1999/xlink" width="199" height="79" viewBox="0 0 199 79"><defs><path id="51f1a" d="M1231.9 2380.47V2392h-44.02v-75h13.98v63.48zm37.15-11.2c-3.7.17-6.82.5-9.35.96a24.97 24.97 0 0 0-6.08 1.79 7.99 7.99 0 0 0-3.27 2.54 5.5 5.5 0 0 0-1 3.16c0 2.25.68 3.86 2.01 4.83 1.33.96 3.07 1.45 5.22 1.45 2.63 0 4.91-.48 6.84-1.43a20.3 20.3 0 0 0 5.63-4.33zm-29.4-23.08c6.12-5.6 13.5-8.4 22.13-8.4 3.12 0 5.9.5 8.37 1.53a17.7 17.7 0 0 1 6.23 4.25 18.2 18.2 0 0 1 3.87 6.5 24.96 24.96 0 0 1 1.33 8.3V2392h-5.82a5.89 5.89 0 0 1-2.8-.55c-.67-.36-1.19-1.1-1.57-2.2l-1.14-3.84a46.08 46.08 0 0 1-3.95 3.19 21.65 21.65 0 0 1-8.44 3.73c-1.58.33-3.32.5-5.23.5-2.25 0-4.33-.3-6.23-.91-1.9-.6-3.55-1.51-4.94-2.73a12.2 12.2 0 0 1-3.22-4.5 15.96 15.96 0 0 1-1.14-6.28 11.75 11.75 0 0 1 2.88-7.83 18.42 18.42 0 0 1 3.97-3.43 25.9 25.9 0 0 1 6-2.8 52 52 0 0 1 8.3-1.94c3.15-.5 6.75-.8 10.8-.91v-3.11c0-3.57-.76-6.2-2.28-7.91-1.53-1.72-3.73-2.57-6.6-2.57-2.08 0-3.8.24-5.17.72a21.35 21.35 0 0 0-3.61 1.64l-2.84 1.63c-.85.49-1.79.73-2.83.73a3.7 3.7 0 0 1-2.29-.7 5.83 5.83 0 0 1-1.5-1.64zm72.07 46.62c-4.64 0-8.2-1.3-10.68-3.91-2.48-2.61-3.72-6.22-3.72-10.81v-29.72h-5.45a2.5 2.5 0 0 1-1.77-.68c-.48-.45-.73-1.12-.73-2.02v-5.08l8.58-1.4 2.7-14.53c.17-.69.5-1.22.99-1.6.48-.38 1.1-.58 1.87-.58h6.65v16.76h14.24v9.13h-14.24v28.83c0 1.66.4 2.96 1.22 3.9.81.93 1.93 1.4 3.35 1.4.8 0 1.47-.1 2-.3a10.9 10.9 0 0 0 2.47-1.18c.31-.2.63-.29.94-.29.38 0 .69.1.93.29.25.19.5.47.78.85l3.85 6.23a19.44 19.44 0 0 1-6.45 3.52c-2.42.8-4.93 1.2-7.53 1.2zm45.1-54.87c3.96 0 7.55.64 10.79 1.92a23.66 23.66 0 0 1 8.31 5.45 23.93 23.93 0 0 1 5.33 8.6 32.69 32.69 0 0 1 1.87 11.36c0 4.22-.62 8.03-1.87 11.41a24.43 24.43 0 0 1-5.33 8.67 23.28 23.28 0 0 1-8.31 5.5 29.14 29.14 0 0 1-10.78 1.91c-3.99 0-7.6-.64-10.87-1.91a23.22 23.22 0 0 1-8.34-5.5 24.72 24.72 0 0 1-5.35-8.67 32.43 32.43 0 0 1-1.9-11.4c0-4.19.64-7.98 1.9-11.36a24.2 24.2 0 0 1 5.35-8.61 23.6 23.6 0 0 1 8.34-5.45 29.49 29.49 0 0 1 10.87-1.92zm0 44.97c4.44 0 7.72-1.49 9.85-4.46 2.13-2.97 3.2-7.33 3.2-13.07s-1.07-10.12-3.2-13.12c-2.13-3.01-5.41-4.52-9.84-4.52-4.5 0-7.84 1.52-10 4.54-2.17 3.03-3.26 7.4-3.26 13.1 0 5.7 1.09 10.05 3.25 13.04 2.17 3 5.5 4.49 10 4.49z"/></defs><g><g transform="translate(-1186 -2315)"><use xlink:href="#51f1a"/></g></g></svg>