<svg xmlns="http://www.w3.org/2000/svg" xmlns:xlink="http://www.w3.org/1999/xlink" width="50" height="21" viewBox="0 0 50 21"><defs><path id="1qpna" d="M1385.47 2997.3c.41 0 .78-.07 1.11-.19a2.13 2.13 0 0 0 1.32-1.26c.12-.3.18-.61.18-.96 0-.42-.07-.78-.2-1.1-.13-.3-.31-.55-.55-.75a2.3 2.3 0 0 0-.83-.46c-.32-.1-.66-.14-1.03-.14s-.72.05-1.04.14c-.32.1-.6.25-.83.46-.23.2-.42.45-.55.76-.13.3-.2.67-.2 1.1 0 .34.06.66.18.95a2.13 2.13 0 0 0 1.32 1.26c.33.12.7.18 1.12.18zm0-10.92c-.38 0-.71.06-1 .17a1.86 1.86 0 0 0-1.12 1.14c-.1.26-.14.53-.14.82a3 3 0 0 0 .12.85c.08.27.21.52.39.73.17.21.4.38.7.51.28.13.63.2 1.05.2.41 0 .77-.07 1.05-.2a1.86 1.86 0 0 0 1.08-1.24c.08-.28.12-.56.12-.85 0-.29-.04-.56-.14-.82-.09-.26-.23-.48-.42-.68-.19-.19-.42-.34-.7-.46a2.6 2.6 0 0 0-1-.17zm2.18 5.18c.85.27 1.49.68 1.91 1.25.43.57.64 1.28.64 2.12 0 .6-.12 1.16-.35 1.65-.23.5-.55.91-.97 1.26-.41.34-.9.61-1.49.8-.58.19-1.22.28-1.92.28s-1.35-.1-1.93-.28a4.48 4.48 0 0 1-1.49-.8 3.6 3.6 0 0 1-1.31-2.9c0-.85.2-1.56.63-2.13a3.64 3.64 0 0 1 1.92-1.25 3.24 3.24 0 0 1-1.56-1.2 3.33 3.33 0 0 1-.52-1.89 3.44 3.44 0 0 1 1.17-2.61c.38-.33.83-.6 1.35-.78a5.1 5.1 0 0 1 1.74-.28c.63 0 1.2.1 1.73.28.52.19.97.45 1.34.78a3.5 3.5 0 0 1 .67 4.5c-.35.53-.87.93-1.56 1.2zm10.3 2.1v-5.04c0-.4.03-.85.1-1.33l-4.65 6.37zm3.7 0v1.2c0 .11-.03.2-.1.3-.07.08-.19.12-.33.12h-1.47v3.49h-1.8v-3.5h-5.98a.6.6 0 0 1-.59-.45l-.2-1.05 6.63-8.83h1.94v8.72zm8.62 2.65c.29.37.6.63.94.79.35.15.73.22 1.14.22.8 0 1.44-.3 1.89-.88.45-.6.67-1.47.67-2.63 0-.6-.05-1.12-.15-1.54-.1-.43-.25-.77-.44-1.04a1.7 1.7 0 0 0-.7-.59 2.28 2.28 0 0 0-.93-.18c-.53 0-.98.11-1.36.34-.38.23-.74.55-1.06.97zm-.1-5.9c.4-.49.87-.88 1.39-1.17.52-.3 1.13-.44 1.82-.44a3.23 3.23 0 0 1 2.65 1.3c.32.42.57.94.74 1.56a7.92 7.92 0 0 1-.03 4.17c-.2.62-.47 1.16-.84 1.62-.36.46-.8.82-1.32 1.08-.52.25-1.1.38-1.76.38-.57 0-1.06-.09-1.46-.27-.4-.19-.77-.45-1.1-.77v4.15h-2.06v-13.04h1.25c.28 0 .46.13.54.4zm16.9 8.36h-1.98a.55.55 0 0 1-.38-.12c-.1-.09-.17-.18-.23-.28l-2.25-3.62c-.06.22-.14.4-.23.57l-2.05 3.05c-.07.1-.15.2-.23.28a.47.47 0 0 1-.34.12h-1.85l3.4-5.05-3.26-4.74h1.98c.16 0 .27.03.35.07.07.05.14.12.2.22l2.21 3.45c.06-.2.15-.4.27-.6l1.87-2.81c.13-.22.3-.33.5-.33h1.88l-3.25 4.66z"/></defs><g><g transform="translate(-1379 -2983)"><use fill="#999" xlink:href="#1qpna"/></g></g></svg>