<svg xmlns="http://www.w3.org/2000/svg" xmlns:xlink="http://www.w3.org/1999/xlink" width="50" height="20" viewBox="0 0 50 20"><defs><path id="daata" d="M1389.35 3283.54c.22 0 .4.06.52.2.13.13.2.3.2.5v1.25h-9.35v-.7a1.26 1.26 0 0 1 .36-.87l4.3-4.3c.37-.37.69-.72.98-1.05.28-.34.52-.67.72-1a3.64 3.64 0 0 0 .62-2.1c0-.36-.05-.68-.16-.96a1.9 1.9 0 0 0-.46-.69c-.2-.18-.43-.32-.7-.41-.28-.1-.58-.14-.9-.14a2.42 2.42 0 0 0-1.58.5c-.21.17-.38.36-.52.58-.14.22-.24.46-.3.72-.1.27-.22.44-.37.53-.15.1-.37.11-.66.06l-1.08-.2c.1-.65.27-1.22.54-1.71a4.06 4.06 0 0 1 2.39-1.98 5.46 5.46 0 0 1 3.39.02 3.53 3.53 0 0 1 2.21 2 4.32 4.32 0 0 1 .1 3.04c-.16.43-.36.85-.62 1.25s-.55.78-.9 1.15c-.34.38-.7.76-1.08 1.14l-3.34 3.42a7.62 7.62 0 0 1 1.63-.25zm7.25.47c.42 0 .79-.06 1.11-.18a2.14 2.14 0 0 0 1.32-1.26c.12-.3.18-.62.18-.96 0-.42-.06-.79-.2-1.1-.13-.3-.3-.56-.54-.76a2.3 2.3 0 0 0-.83-.45 3.5 3.5 0 0 0-2.08 0c-.32.1-.6.25-.83.45-.23.2-.41.46-.54.76-.13.31-.2.68-.2 1.1 0 .34.06.66.17.96a2.14 2.14 0 0 0 1.33 1.26c.32.12.7.18 1.11.18zm0-10.91c-.38 0-.7.05-1 .17a1.86 1.86 0 0 0-1.12 1.14 3 3 0 0 0-.02 1.66c.09.28.21.52.39.74.18.21.4.38.7.5.28.14.64.2 1.05.2.42 0 .77-.06 1.06-.2a1.86 1.86 0 0 0 1.08-1.24c.08-.27.12-.56.12-.84 0-.3-.05-.56-.14-.82-.1-.26-.24-.49-.42-.68-.2-.2-.43-.35-.71-.46a2.6 2.6 0 0 0-.99-.17zm2.18 5.18c.85.26 1.49.68 1.91 1.25.43.57.64 1.27.64 2.12a3.6 3.6 0 0 1-1.31 2.9c-.42.35-.92.62-1.5.8-.57.2-1.22.29-1.92.29s-1.34-.1-1.92-.28a4.48 4.48 0 0 1-1.5-.8 3.6 3.6 0 0 1-1.31-2.91c0-.85.21-1.55.64-2.12a3.64 3.64 0 0 1 1.91-1.25 3.24 3.24 0 0 1-1.56-1.2 3.33 3.33 0 0 1-.52-1.9 3.44 3.44 0 0 1 1.18-2.6c.37-.34.82-.6 1.34-.78a5.1 5.1 0 0 1 1.74-.29c.63 0 1.21.1 1.73.29.53.18.97.44 1.35.77a3.5 3.5 0 0 1 .66 4.5c-.35.53-.87.93-1.56 1.2zm11.49 4.75c.29.37.6.63.94.78.35.15.73.23 1.14.23.8 0 1.44-.3 1.89-.89.45-.58.67-1.46.67-2.63 0-.6-.05-1.11-.15-1.54-.1-.42-.25-.77-.44-1.04a1.7 1.7 0 0 0-.7-.58 2.28 2.28 0 0 0-.93-.19c-.53 0-.98.12-1.36.35-.38.22-.74.55-1.06.97zm-.1-5.91c.4-.48.87-.87 1.39-1.16.52-.3 1.13-.45 1.82-.45a3.23 3.23 0 0 1 2.65 1.3c.32.42.57.95.74 1.57a7.92 7.92 0 0 1-.03 4.16c-.2.63-.47 1.17-.84 1.63a3.88 3.88 0 0 1-3.08 1.46c-.57 0-1.06-.1-1.46-.28-.4-.18-.77-.44-1.1-.77v4.16h-2.06v-13.04h1.25c.28 0 .46.13.54.39zm16.9 8.37h-1.98a.55.55 0 0 1-.38-.13 1.1 1.1 0 0 1-.23-.28l-2.25-3.62c-.06.22-.14.41-.23.57l-2.05 3.05c-.07.1-.15.2-.23.28a.47.47 0 0 1-.34.13h-1.85l3.4-5.05-3.26-4.74h1.98c.16 0 .27.02.35.07.07.05.14.12.2.21l2.21 3.46c.06-.21.15-.41.27-.6l1.87-2.82c.13-.21.3-.32.5-.32h1.88l-3.25 4.65z"/></defs><g><g transform="translate(-1379 -3270)"><use fill="#999" xlink:href="#daata"/></g></g></svg>