<svg xmlns="http://www.w3.org/2000/svg" xmlns:xlink="http://www.w3.org/1999/xlink" width="49" height="20" viewBox="0 0 49 20"><defs><path id="t8hfa" d="M1389.76 3455.07v1.56h-7.54v-1.56h2.88v-8.66l.03-.94-2.22 1.87c-.1.08-.19.13-.29.15-.1.02-.19.02-.28 0a.73.73 0 0 1-.23-.09.56.56 0 0 1-.16-.14l-.64-.9 4.17-3.58h1.68v12.29zm8.2-3.55v-5.04c0-.4.02-.85.08-1.33l-4.64 6.37zm3.7 0v1.2c0 .1-.04.2-.11.3-.07.07-.19.12-.33.12h-1.47v3.49h-1.8v-3.5h-5.98a.6.6 0 0 1-.59-.45l-.2-1.05 6.63-8.83h1.94v8.72zm8.6 2.65c.3.37.61.63.95.78.35.16.73.23 1.14.23.8 0 1.44-.3 1.89-.88.45-.6.67-1.47.67-2.63 0-.6-.05-1.12-.15-1.54-.1-.43-.25-.77-.44-1.04a1.7 1.7 0 0 0-.7-.59 2.28 2.28 0 0 0-.93-.18c-.53 0-.98.11-1.36.34-.38.23-.74.55-1.06.97zm-.1-5.9c.41-.49.88-.88 1.4-1.17.52-.3 1.13-.44 1.82-.44a3.22 3.22 0 0 1 2.65 1.3c.32.42.57.94.74 1.56a7.92 7.92 0 0 1-.03 4.17c-.2.62-.47 1.16-.84 1.62a3.87 3.87 0 0 1-3.08 1.46c-.57 0-1.06-.09-1.46-.27-.4-.2-.77-.45-1.1-.77v4.15h-2.06v-13.04h1.25c.28 0 .46.13.54.4zm16.9 8.36h-1.97a.55.55 0 0 1-.38-.13c-.1-.08-.17-.17-.23-.27l-2.25-3.62c-.06.22-.14.4-.23.56l-2.05 3.06c-.07.1-.15.2-.23.27a.47.47 0 0 1-.34.13h-1.85l3.4-5.05-3.26-4.74h1.98c.16 0 .27.02.35.07.07.05.14.12.2.22l2.21 3.45c.06-.2.15-.4.27-.6l1.87-2.81c.13-.22.3-.33.5-.33h1.88l-3.25 4.66z"/></defs><g><g transform="translate(-1380 -3441)"><use fill="#999" xlink:href="#t8hfa"/></g></g></svg>