<svg xmlns="http://www.w3.org/2000/svg" xmlns:xlink="http://www.w3.org/1999/xlink" width="50" height="21" viewBox="0 0 50 21"><defs><path id="3seda" d="M1381.03 3179.9c.1-.66.28-1.23.55-1.72a4.06 4.06 0 0 1 2.39-1.98 5.45 5.45 0 0 1 3.36 0c.5.18.94.43 1.3.74.36.31.64.69.84 1.12a3.9 3.9 0 0 1 .13 2.6 2.6 2.6 0 0 1-1.17 1.53c-.28.17-.6.31-.95.43.86.25 1.5.65 1.93 1.2.43.54.65 1.23.65 2.05a3.92 3.92 0 0 1-1.39 3.09c-.43.36-.92.64-1.49.82-.57.2-1.17.29-1.8.29-.7 0-1.32-.09-1.84-.26a3.95 3.95 0 0 1-2.28-1.87 7.9 7.9 0 0 1-.63-1.51l.9-.37c.23-.1.45-.14.67-.09.21.04.37.16.46.35l.35.66a2.53 2.53 0 0 0 2.34 1.33c.44 0 .83-.07 1.16-.21.33-.15.6-.33.82-.56a2.25 2.25 0 0 0 .66-1.6c0-.35-.04-.66-.12-.95a1.5 1.5 0 0 0-.49-.75 2.6 2.6 0 0 0-1.02-.48 6.82 6.82 0 0 0-1.72-.18v-1.49c.58 0 1.08-.06 1.48-.18.4-.1.72-.26.96-.46s.4-.43.51-.7c.1-.28.16-.58.16-.9 0-.36-.05-.67-.16-.93a1.87 1.87 0 0 0-1.15-1.09 2.81 2.81 0 0 0-2.47.38 2.22 2.22 0 0 0-.83 1.3c-.1.25-.21.43-.36.52-.16.09-.37.1-.66.06zm15.55 8.46c.42 0 .8-.07 1.14-.2a2.53 2.53 0 0 0 1.46-1.43c.14-.34.2-.7.2-1.1 0-.42-.06-.8-.2-1.13a2.34 2.34 0 0 0-1.41-1.39 3.16 3.16 0 0 0-2.24.03 2.56 2.56 0 0 0-1.6 2.46c0 .41.06.79.18 1.13.11.34.28.63.5.87.23.24.5.42.83.56a3 3 0 0 0 1.14.2zm-.76-7.18l-.29.37-.27.34a4.21 4.21 0 0 1 2.1-.54c.54 0 1.05.1 1.54.27a3.72 3.72 0 0 1 2.2 2.08c.23.51.34 1.1.34 1.78a4.6 4.6 0 0 1-1.34 3.25c-.42.41-.93.74-1.52.98s-1.24.36-1.96.36-1.36-.12-1.94-.35a4.19 4.19 0 0 1-2.4-2.48 5.64 5.64 0 0 1 .07-3.94c.27-.68.68-1.4 1.25-2.16l3.4-4.56c.1-.13.25-.25.44-.34.2-.1.42-.15.66-.15h1.82zm14.45 6.28c.29.37.6.63.94.78.35.15.73.22 1.14.22.8 0 1.44-.29 1.89-.88.45-.59.67-1.46.67-2.63 0-.6-.05-1.11-.15-1.54-.1-.42-.25-.77-.44-1.04a1.7 1.7 0 0 0-.7-.58 2.28 2.28 0 0 0-.93-.19c-.53 0-.98.12-1.36.34-.38.23-.74.56-1.06.98zm-.1-5.91c.4-.48.87-.87 1.39-1.17.52-.29 1.13-.44 1.82-.44a3.22 3.22 0 0 1 2.65 1.3c.32.42.57.94.74 1.57a7.92 7.92 0 0 1-.03 4.16c-.2.63-.47 1.17-.84 1.62a3.87 3.87 0 0 1-3.08 1.46c-.57 0-1.06-.09-1.46-.27-.4-.19-.77-.44-1.1-.77v4.16h-2.06v-13.05h1.25c.28 0 .46.14.54.4zm16.9 8.36h-1.98a.55.55 0 0 1-.38-.12c-.1-.08-.17-.18-.23-.28l-2.25-3.62c-.06.22-.14.4-.23.57l-2.05 3.05c-.07.1-.15.2-.23.28a.47.47 0 0 1-.34.12h-1.85l3.4-5.04-3.26-4.75h1.98c.16 0 .27.03.35.08.07.04.14.12.2.21l2.21 3.46c.06-.21.15-.41.27-.6l1.87-2.82c.13-.22.3-.33.5-.33h1.88l-3.25 4.66z"/></defs><g><g transform="translate(-1379 -3174)"><use fill="#999" xlink:href="#3seda"/></g></g></svg>