<svg xmlns="http://www.w3.org/2000/svg">
    <symbol id="back-arrow" viewBox="0 0 1056 384">
        <rect x="21" y="174" width="1035.34" height="33.08"/>
        <polygon points="203,14 28,188 206,371 191,384 7,195 0,188 7,181 189,0 "/>
    </symbol>
    <symbol id="further-arrow" viewBox="0 0 347 610">
        <polygon points="142,0 203,0 203,456 347,456 176,610 0,456 142,456 "/>
    </symbol>
    <symbol id="arrow" viewBox="0 0 297 476">
         <polygon class="fil0" points="297,128 276,153 166,60 166,476 131,476 131,60 21,153 0,128 149,0 "/>
     </symbol>
     <symbol id="arrow-hovered" viewBox="0 0 353 932">
          <path d="M141 282l1 0 0 -35 35 0 0 35 35 0 0 459 141 0 -176 191 -177 -191 141 0 0 -459zm35 -282l36 0 0 35 -36 0 0 -35zm-35 36l36 0 0 35 -36 0 0 -35zm36 35l35 0 0 35 -35 0 0 35 -35 0 0 -35 35 0 0 -35zm0 70l35 0 0 35 -35 0 0 -35zm-36 35l36 0 0 35 -36 0 0 -35zm36 36l35 0 0 35 -35 0 0 -35z"/>
     </symbol>
    <view id="comfortaa-bg" viewBox="0 0 463 292" />
      <use href="#comfortaa-example" width="461" height="290" fill="#ceecfa" x="0" y="0" />
    <view id="lato-bg" viewBox="0 290 426 274" />
      <use href="#lato-example" width="424" height="272" fill="#ceecfa" x="0" y="290" />
</svg>
