<svg xmlns="http://www.w3.org/2000/svg" xmlns:xlink="http://www.w3.org/1999/xlink" width="408" height="40" viewBox="0 0 408 40"><defs><path id="vkpja" d="M551.86 3183.58a5.56 5.56 0 0 0-4.08-1.69c-.3 0-.56-.1-.78-.31a1.05 1.05 0 0 1-.31-.78c0-.3.1-.56.31-.77.22-.21.47-.32.78-.32 1.4 0 2.6-.49 3.57-1.47a4.86 4.86 0 0 0 1.47-3.57c0-1.37-.49-2.56-1.47-3.57a4.86 4.86 0 0 0-3.57-1.48c-1.4 0-2.59.5-3.57 1.48a4.86 4.86 0 0 0-1.48 3.57c0 .3-.1.56-.31.77-.22.21-.47.32-.78.32-.3 0-.56-.1-.76-.32-.2-.21-.31-.47-.31-.77 0-2 .7-3.7 2.11-5.1 1.4-1.4 3.1-2.1 5.1-2.1 1.99 0 3.69.7 5.1 2.1a6.94 6.94 0 0 1 2.1 5.1c0 2-.7 3.7-2.1 5.11-.33.32-.71.64-1.15.95.62.38 1.18.81 1.67 1.3a7.73 7.73 0 0 1 2.3 5.63c0 2.2-.77 4.08-2.31 5.62a7.63 7.63 0 0 1-5.61 2.3c-2.2 0-4.07-.76-5.63-2.3a7.72 7.72 0 0 1-2.3-5.62 1.07 1.07 0 0 1 1.07-1.1c.3 0 .56.11.78.32.2.22.31.47.31.78a5.6 5.6 0 0 0 1.69 4.08 5.6 5.6 0 0 0 4.08 1.68c1.57 0 2.93-.56 4.08-1.68a5.6 5.6 0 0 0 1.68-4.08c0-1.57-.56-2.93-1.68-4.08zm22.17-3.27a7.41 7.41 0 0 0-5.42-2.23c-2.1 0-3.91.74-5.41 2.23a7.38 7.38 0 0 0-2.25 5.41c0 2.1.75 3.9 2.25 5.4a7.38 7.38 0 0 0 5.41 2.25c2.11 0 3.92-.75 5.42-2.25a7.35 7.35 0 0 0 2.23-5.4c0-2.12-.75-3.92-2.23-5.41zm2.23 11.67a9.99 9.99 0 0 1-7.65 3.55 9.52 9.52 0 0 1-6.96-2.86 9.46 9.46 0 0 1-2.88-6.95c0-2.71.96-5.03 2.88-6.94a9.49 9.49 0 0 1 6.96-2.88c2.72 0 5.04.96 6.96 2.88a9.43 9.43 0 0 1 2.89 6.94v9.95c0 2.02-.74 3.77-2.2 5.26a10.2 10.2 0 0 1-7.5 3.1c-2.92 0-5.41-1.04-7.46-3.1a9.75 9.75 0 0 1-1.85-2.37 1.3 1.3 0 0 1-.2-.65c0-.3.11-.57.32-.78.22-.2.47-.31.78-.31.3 0 .57.1.79.33.1.08.18.2.25.33a8.9 8.9 0 0 0 4.17 3.76c1 .4 2.06.6 3.2.6a8.1 8.1 0 0 0 5.95-2.46 5.83 5.83 0 0 0 1.55-3.7zm21.82-13.2a9.48 9.48 0 0 1 2.88 6.96c0 2.72-.96 5.04-2.88 6.96a9.49 9.49 0 0 1-6.97 2.89 9.49 9.49 0 0 1-6.96-2.89 9.48 9.48 0 0 1-2.88-6.96c0-2.72.96-5.04 2.88-6.96a9.49 9.49 0 0 1 6.96-2.88c2.72 0 5.04.96 6.97 2.88zm-1.55 1.55a7.38 7.38 0 0 0-5.42-2.25c-2.1 0-3.91.75-5.41 2.25a7.38 7.38 0 0 0-2.25 5.41c0 2.11.75 3.92 2.25 5.42a7.38 7.38 0 0 0 5.41 2.25c2.11 0 3.92-.75 5.42-2.25a7.37 7.37 0 0 0 2.23-5.42c0-2.12-.74-3.92-2.23-5.41zm11.67 0a7.38 7.38 0 0 0-2.25 5.41c0 2.11.75 3.92 2.25 5.42a7.38 7.38 0 0 0 5.42 2.25c2.1 0 3.91-.75 5.41-2.25a7.37 7.37 0 0 0 2.24-5.42c0-2.12-.75-3.92-2.24-5.41a7.38 7.38 0 0 0-5.41-2.25c-2.11 0-3.92.75-5.42 2.25zm-2.25 22.6c0 .3-.1.57-.31.78-.21.2-.47.31-.78.31-.3 0-.56-.1-.77-.31a1.05 1.05 0 0 1-.32-.78v-17.19c0-2.72.96-5.04 2.89-6.96a9.49 9.49 0 0 1 6.96-2.88c2.72 0 5.04.96 6.96 2.88a9.48 9.48 0 0 1 2.88 6.96c0 2.72-.96 5.04-2.88 6.96a9.49 9.49 0 0 1-6.96 2.89 9.49 9.49 0 0 1-6.96-2.89l-.7-.68zm37.13-24.15a9.48 9.48 0 0 1 2.89 6.96c0 2.72-.96 5.04-2.89 6.96a9.49 9.49 0 0 1-6.96 2.89 9.49 9.49 0 0 1-6.96-2.89 9.48 9.48 0 0 1-2.88-6.96c0-2.72.96-5.04 2.88-6.96a9.49 9.49 0 0 1 6.96-2.88c2.72 0 5.04.96 6.96 2.88zm-1.54 1.55a7.38 7.38 0 0 0-5.42-2.25c-2.1 0-3.91.75-5.41 2.25a7.38 7.38 0 0 0-2.25 5.41c0 2.11.75 3.92 2.25 5.42a7.38 7.38 0 0 0 5.41 2.25c2.11 0 3.92-.75 5.42-2.25a7.37 7.37 0 0 0 2.23-5.42c0-2.12-.75-3.92-2.23-5.41zm15.66 4.32c.9 0 1.68-.32 2.32-.97.65-.64.97-1.41.97-2.32 0-.87-.32-1.65-.97-2.32a3.17 3.17 0 0 0-2.32-.96h-6.19v6.57zm1.46 8.76c.88 0 1.65-.33 2.32-.97a3.24 3.24 0 0 0 0-4.64 3.24 3.24 0 0 0-2.32-.97h-7.65v6.58zm-1.46-17.51c1.52 0 2.81.53 3.87 1.6a5.23 5.23 0 0 1 1.6 3.86c0 .7-.13 1.36-.39 2a6.94 6.94 0 0 1-1.14 1.84 5.48 5.48 0 0 1 2.99 4.92c0 1.52-.54 2.82-1.6 3.88a5.26 5.26 0 0 1-3.87 1.59h-8.76c-.3 0-.56-.11-.77-.32a1.05 1.05 0 0 1-.32-.77v-17.51c0-.3.11-.56.32-.78.21-.2.47-.31.77-.31zm19.02 17.5c.88 0 1.66-.32 2.32-.96a3.24 3.24 0 0 0 0-4.64 3.24 3.24 0 0 0-2.32-.97h-6.92v6.58zm-6.92-8.75h6.92c1.53 0 2.82.54 3.87 1.6a5.23 5.23 0 0 1 1.6 3.87c0 1.52-.53 2.82-1.6 3.88a5.26 5.26 0 0 1-3.87 1.59h-8.01c-.3 0-.57-.11-.79-.32a1.04 1.04 0 0 1-.32-.77v-17.55c.02-.29.13-.54.33-.74.21-.2.47-.31.78-.31.3 0 .56.1.77.31.21.22.32.47.32.78zm14.83-7.66c0-.3.11-.56.32-.78.21-.2.47-.31.77-.31.3 0 .57.1.79.31.21.22.32.47.32.78v17.5c0 .31-.1.57-.32.78-.22.21-.48.32-.79.32-.3 0-.56-.11-.77-.32a1.05 1.05 0 0 1-.32-.77zm23.69 17.5c0 .31-.11.57-.33.78-.22.21-.48.32-.78.32-.3 0-.56-.11-.78-.32a1.05 1.05 0 0 1-.31-.77v-2.04c-2.16 2.08-4.47 3.13-6.93 3.13a8.9 8.9 0 0 1-6.45-2.66 8.84 8.84 0 0 1-2.66-6.47V3177c0-.3.11-.56.32-.78.21-.2.47-.31.77-.31.3 0 .57.1.78.31.2.22.31.47.31.78v9.47c0 1.92.68 3.56 2.03 4.9a6.8 6.8 0 0 0 4.9 2.05c1.9 0 3.53-.68 4.89-2.04a6.65 6.65 0 0 0 2.04-4.9v-9.48c0-.3.1-.56.31-.78.22-.2.47-.31.78-.31.3 0 .56.1.78.31.22.22.33.47.33.78zm-13.05-22.7c-1.03-.8-1.55-1.74-1.55-2.82 0-.3.11-.56.33-.77.22-.21.48-.32.78-.32.3 0 .56.1.77.32.22.21.32.47.32.77 0 .55.35 1.01 1.06 1.37.65.3 1.39.46 2.21.46.82 0 1.57-.15 2.23-.46.72-.35 1.08-.8 1.08-1.37 0-.3.1-.56.31-.77.21-.21.47-.32.78-.32.3 0 .56.1.77.32.21.21.32.46.33.75a3.6 3.6 0 0 1-1.58 2.82 6.3 6.3 0 0 1-3.92 1.21 6.94 6.94 0 0 1-3.92-1.2zm43.25 7a9.48 9.48 0 0 1 2.88 6.95c0 2.72-.96 5.04-2.88 6.96a9.49 9.49 0 0 1-6.96 2.89 9.49 9.49 0 0 1-6.97-2.89 9.48 9.48 0 0 1-2.88-6.96c0-2.72.96-5.04 2.88-6.96a9.49 9.49 0 0 1 6.97-2.88c2.72 0 5.04.96 6.96 2.88zm-1.55 1.54a7.38 7.38 0 0 0-5.41-2.25c-2.11 0-3.92.75-5.42 2.25a7.38 7.38 0 0 0-2.25 5.41c0 2.11.75 3.92 2.25 5.42a7.38 7.38 0 0 0 5.42 2.25c2.1 0 3.91-.75 5.41-2.25a7.37 7.37 0 0 0 2.23-5.42c0-2.12-.74-3.92-2.23-5.41zm22.5 10.83a7.37 7.37 0 0 0 2.24-5.42c0-2.12-.75-3.92-2.23-5.41a7.38 7.38 0 0 0-5.42-2.25c-2.1 0-3.91.75-5.41 2.25a7.38 7.38 0 0 0-2.25 5.41c0 2.11.74 3.92 2.25 5.42a7.38 7.38 0 0 0 5.41 2.25c2.11 0 3.91-.75 5.42-2.25zm-13.07-11.7l.7-.68a9.49 9.49 0 0 1 6.96-2.88c2.72 0 5.04.96 6.96 2.88a9.48 9.48 0 0 1 2.89 6.96c0 2.72-.97 5.04-2.89 6.96a9.49 9.49 0 0 1-6.96 2.89 9.49 9.49 0 0 1-6.96-2.89 9.48 9.48 0 0 1-2.88-6.96v-7.3c0-2.71.96-5.03 2.88-6.95a9.49 9.49 0 0 1 6.96-2.89h.84c2.15 0 4.13-.45 5.95-1.35.14-.07.3-.1.5-.1.31 0 .57.1.78.31.21.21.32.47.32.77 0 .33-.1.59-.32.78-.07.08-.17.16-.3.23-1.04.52-2.14.92-3.29 1.17-1.15.26-2.36.39-3.64.39h-.84c-2.12 0-3.93.74-5.41 2.23a7.38 7.38 0 0 0-2.25 5.42zm24.75.87a7.38 7.38 0 0 0-2.25 5.41c0 2.11.75 3.92 2.25 5.42a7.38 7.38 0 0 0 5.41 2.25c2.11 0 3.92-.75 5.42-2.25a7.37 7.37 0 0 0 2.23-5.42c0-2.12-.74-3.92-2.23-5.41a7.38 7.38 0 0 0-5.42-2.25c-2.1 0-3.91.75-5.41 2.25zm-2.25 22.6c0 .3-.1.57-.32.78-.2.2-.47.31-.77.31-.3 0-.56-.1-.78-.31a1.05 1.05 0 0 1-.31-.78v-17.19c0-2.72.96-5.04 2.88-6.96a9.49 9.49 0 0 1 6.96-2.88c2.72 0 5.04.96 6.97 2.88a9.48 9.48 0 0 1 2.88 6.96c0 2.72-.96 5.04-2.88 6.96a9.49 9.49 0 0 1-6.97 2.89 9.49 9.49 0 0 1-6.96-2.89l-.7-.68zm35.8-22.6a7.38 7.38 0 0 0-5.42-2.25c-2.11 0-3.92.75-5.42 2.25a7.38 7.38 0 0 0-2.25 5.41c0 2.11.75 3.92 2.25 5.42a7.38 7.38 0 0 0 5.42 2.25c2.1 0 3.91-.75 5.41-2.25a7.37 7.37 0 0 0 2.24-5.42c0-2.12-.75-3.92-2.24-5.41zm2.23 11.69c-2.37 2.38-4.92 3.57-7.65 3.57a9.49 9.49 0 0 1-6.96-2.89 9.48 9.48 0 0 1-2.89-6.96c0-2.72.96-5.04 2.89-6.96a9.49 9.49 0 0 1 6.96-2.88c2.72 0 5.04.96 6.96 2.88a9.48 9.48 0 0 1 2.88 6.96v8.76c0 .3-.1.56-.31.77-.21.21-.47.32-.78.32-.3 0-.56-.11-.78-.32a1.04 1.04 0 0 1-.32-.77zm6.5-1.08c.38 0 .67.16.9.46.43.53.8.9 1.09 1.1.91.6 2 .9 3.28.9 1.28 0 2.39-.34 3.33-1.03.93-.7 1.4-1.5 1.4-2.43 0-1.04-.46-1.94-1.4-2.7a5.12 5.12 0 0 0-3.33-1.13c-.3 0-.56-.1-.77-.32a1.05 1.05 0 0 1-.32-.77c0-.3.11-.56.32-.77.21-.21.47-.32.77-.32 1.26 0 2.36-.25 3.31-.75.95-.5 1.42-1.16 1.42-2 0-.93-.47-1.68-1.41-2.24a6.35 6.35 0 0 0-3.32-.84c-1.27 0-2.37.3-3.28.93a4.37 4.37 0 0 0-1.23 1.28 1.11 1.11 0 0 1-1.56 0 1.04 1.04 0 0 1-.32-.77c0-.23.05-.42.15-.58.32-.5.75-.98 1.3-1.43a7.7 7.7 0 0 1 4.94-1.61c1.94 0 3.57.5 4.91 1.52a4.56 4.56 0 0 1 2 3.75c0 1.48-.9 2.74-2.7 3.78 1.8 1.57 2.7 3.23 2.7 4.97 0 1.5-.67 2.82-2 3.95a7.34 7.34 0 0 1-4.9 1.7 7.65 7.65 0 0 1-4.95-1.64c-.49-.39-.9-.8-1.2-1.26-.15-.2-.22-.4-.22-.66 0-.3.1-.56.33-.77.21-.21.47-.32.76-.32zm38.77-5.2V3177c0-.3.1-.56.31-.78.21-.2.47-.31.78-.31.3 0 .56.1.78.31.21.22.32.47.32.78v8.75l11.29-9.56c.2-.19.45-.28.74-.28.3 0 .56.1.77.31.21.22.32.47.32.78 0 .31-.1.57-.28.75l-9.4 7.95 9.36 8.01a1 1 0 0 1 .32.8c0 .3-.1.56-.32.77-.2.21-.47.32-.77.32a.95.95 0 0 1-.7-.27l-9.59-8.19-1.74 1.5v5.87c0 .3-.1.56-.32.77-.22.21-.48.32-.78.32-.3 0-.57-.11-.78-.32a1.05 1.05 0 0 1-.31-.77v-5.88l-1.74-1.49-9.59 8.2c-.2.17-.43.26-.7.26-.3 0-.57-.11-.78-.32a1.04 1.04 0 0 1-.33-.77c0-.32.11-.58.34-.8l9.35-8.01-9.39-7.95a.99.99 0 0 1-.3-.75c0-.3.11-.56.33-.78.21-.2.48-.31.78-.31.3 0 .53.1.72.28zm36.14 8.76c0 .3-.1.56-.32.77-.22.21-.48.32-.79.32-.3 0-.56-.11-.77-.32a1.05 1.05 0 0 1-.32-.77v-2.04c-2.15 2.08-4.46 3.13-6.92 3.13a8.9 8.9 0 0 1-6.45-2.66 8.84 8.84 0 0 1-2.66-6.47V3177c0-.3.1-.56.32-.78.2-.2.47-.31.77-.31.3 0 .56.1.77.31.22.22.32.47.32.78v9.47c0 1.92.67 3.56 2.02 4.9a6.8 6.8 0 0 0 4.9 2.05c1.9 0 3.54-.68 4.9-2.04a6.65 6.65 0 0 0 2.03-4.9v-9.48c0-.3.11-.56.32-.78.21-.2.47-.31.77-.31.3 0 .57.1.79.31.21.22.32.47.32.78zm4.56-3.56c.37 0 .67.16.9.46.43.53.79.9 1.08 1.1.92.6 2.01.9 3.29.9 1.28 0 2.38-.34 3.32-1.03.94-.7 1.4-1.5 1.4-2.43 0-1.04-.46-1.94-1.39-2.7a5.12 5.12 0 0 0-3.33-1.13c-.3 0-.56-.1-.77-.32a1.05 1.05 0 0 1-.32-.77c0-.3.1-.56.32-.77.2-.21.46-.32.77-.32 1.25 0 2.36-.25 3.3-.75.95-.5 1.43-1.16 1.43-2 0-.93-.47-1.68-1.42-2.24a6.35 6.35 0 0 0-3.31-.84c-1.28 0-2.37.3-3.29.93a4.37 4.37 0 0 0-1.23 1.28 1.11 1.11 0 0 1-1.55 0 1.04 1.04 0 0 1-.33-.77c0-.23.05-.42.16-.58.31-.5.75-.98 1.3-1.43a7.7 7.7 0 0 1 4.94-1.61c1.93 0 3.57.5 4.9 1.52a4.56 4.56 0 0 1 2 3.75c0 1.48-.9 2.74-2.7 3.78 1.8 1.57 2.7 3.23 2.7 4.97 0 1.5-.66 2.82-2 3.95a7.34 7.34 0 0 1-4.9 1.7 7.65 7.65 0 0 1-4.94-1.64c-.5-.39-.9-.8-1.21-1.26-.14-.2-.21-.4-.21-.66 0-.3.1-.56.32-.77.22-.21.47-.32.77-.32zm17.38-4.1v7.66c0 .3-.1.56-.31.77-.21.21-.47.32-.78.32-.3 0-.56-.11-.77-.32a1.05 1.05 0 0 1-.32-.77v-17.51c0-.3.1-.56.32-.78.21-.2.47-.31.77-.31.3 0 .57.1.78.31.2.22.31.47.31.78v7.66h11.68V3177c0-.3.1-.56.31-.78.21-.2.47-.31.78-.31.3 0 .56.1.77.31.21.22.32.47.32.78v17.5c0 .31-.1.57-.32.78-.21.21-.47.32-.77.32-.3 0-.57-.11-.78-.32a1.05 1.05 0 0 1-.31-.77v-7.67zm35.02 7.66c0 .3-.1.56-.32.77-.22.21-.48.32-.78.32-.3 0-.57-.11-.78-.32a1.05 1.05 0 0 1-.31-.77v-2.04c-2.16 2.08-4.47 3.13-6.93 3.13a8.9 8.9 0 0 1-6.45-2.66 8.84 8.84 0 0 1-2.66-6.47V3177c0-.3.1-.56.32-.78.2-.2.47-.31.77-.31.3 0 .56.1.78.31.2.22.31.47.31.78v9.47c0 1.92.68 3.56 2.02 4.9a6.8 6.8 0 0 0 4.9 2.05c1.9 0 3.54-.68 4.9-2.04a6.65 6.65 0 0 0 2.04-4.9v-9.48c0-.3.1-.56.31-.78.21-.2.47-.31.78-.31.3 0 .56.1.78.31.21.22.32.47.32.78z"/></defs><g><g transform="translate(-538 -3166)"><use fill="#666" xlink:href="#vkpja"/></g></g></svg>