<svg xmlns="http://www.w3.org/2000/svg" xmlns:xlink="http://www.w3.org/1999/xlink" width="291" height="18" viewBox="0 0 291 18"><defs><path id="pqrna" d="M538.69 3448.55a.7.7 0 0 1 .72-.72.7.7 0 0 1 .72.72v4.05l4.55-4.55a.74.74 0 0 1 1.04-.02.74.74 0 0 1 0 1.03l-3.58 3.6 3.66 4.95a.7.7 0 0 1 .08.69.76.76 0 0 1-.38.4.65.65 0 0 1-.28.07.68.68 0 0 1-.6-.31l-3.52-4.77-.97.97v3.38a.7.7 0 0 1-.2.51.7.7 0 0 1-.52.22.7.7 0 0 1-.51-.22.7.7 0 0 1-.21-.5zm16.03 6.39c0 1.06-.37 1.97-1.12 2.7a3.72 3.72 0 0 1-2.7 1.13 3.69 3.69 0 0 1-2.72-1.13 3.69 3.69 0 0 1-1.12-2.7c0-1.06.38-1.96 1.12-2.71a3.69 3.69 0 0 1 2.71-1.12c1.05 0 1.95.37 2.71 1.12a3.76 3.76 0 0 1 1.12 2.7zm-3.83-2.4a2.33 2.33 0 0 0-1.7.7 2.45 2.45 0 0 0-.7 1.7 2.44 2.44 0 0 0 1.46 2.2 2.3 2.3 0 0 0 1.88 0 2.43 2.43 0 0 0 1.46-2.2 2.47 2.47 0 0 0-1.46-2.2c-.3-.14-.6-.2-.94-.2zm7.88 1.55l-1.43 4.28a.6.6 0 0 1-.23.28.7.7 0 0 1-.42.12.72.72 0 0 1-.5-.21.74.74 0 0 1-.2-.5c0-.09 0-.18.04-.28l2.07-6.2a.7.7 0 0 1 .67-.46c.16 0 .3.04.43.13.12.08.2.2.24.32l1.41 4.22 1.4-4.22a.62.62 0 0 1 .25-.32.7.7 0 0 1 .42-.13.7.7 0 0 1 .45.13c.1.08.18.2.22.32l2.07 6.21a.66.66 0 0 1 0 .55.8.8 0 0 1-.15.23.72.72 0 0 1-.5.2.75.75 0 0 1-.43-.1.52.52 0 0 1-.22-.3l-1.44-4.28-1.39 4.16c-.11.35-.34.53-.68.53s-.57-.18-.69-.53zm11.08 0l-1.43 4.28a.6.6 0 0 1-.23.28.7.7 0 0 1-.42.12.72.72 0 0 1-.5-.21.74.74 0 0 1-.2-.5c0-.09 0-.18.04-.28l2.07-6.2a.7.7 0 0 1 .67-.46c.16 0 .3.04.42.13.13.08.21.2.25.32l1.4 4.22 1.42-4.22a.62.62 0 0 1 .24-.32.7.7 0 0 1 .42-.13.7.7 0 0 1 .45.13c.1.08.18.2.22.32l2.07 6.21a.66.66 0 0 1 0 .55.8.8 0 0 1-.15.23.72.72 0 0 1-.5.2.75.75 0 0 1-.43-.1.52.52 0 0 1-.22-.3l-1.44-4.28-1.39 4.16c-.12.35-.34.53-.68.53s-.57-.18-.7-.53zm14.4.14a2.3 2.3 0 0 0-.88-1.22 2.47 2.47 0 0 0-1.43-.47 2.4 2.4 0 0 0-1.43.47 2.37 2.37 0 0 0-.87 1.22zm-.78 2.56c.13-.11.3-.17.47-.18a.7.7 0 0 1 .7.71.7.7 0 0 1-.2.52c-.7.61-1.54.93-2.5.93a3.69 3.69 0 0 1-2.7-1.13 3.69 3.69 0 0 1-1.13-2.7c0-1.06.38-1.96 1.12-2.71a3.69 3.69 0 0 1 2.71-1.12c1.05 0 1.95.37 2.7 1.12a3.72 3.72 0 0 1 1.13 2.7c0 .21-.07.38-.2.52a.7.7 0 0 1-.52.2h-5.41a2.34 2.34 0 0 0 .87 1.22 2.46 2.46 0 0 0 2.26.33c.25-.1.48-.23.7-.41zm4.94-1.14v2.4a.7.7 0 0 1-.2.5.71.71 0 0 1-.79.16.7.7 0 0 1-.44-.66v-6.23a.7.7 0 0 1 .21-.5.7.7 0 0 1 .79-.16.71.71 0 0 1 .43.66v2.4h3.51v-2.4c0-.1.02-.19.06-.27a.73.73 0 0 1 .15-.23.72.72 0 0 1 .5-.2c.1-.01.2 0 .28.04.09.04.16.1.23.16a.74.74 0 0 1 .2.5v6.23a.75.75 0 0 1-.2.5.67.67 0 0 1-.23.16.72.72 0 0 1-.28.06.72.72 0 0 1-.5-.21.74.74 0 0 1-.21-.5v-2.41zm16.93 2.4a.7.7 0 0 1-.21.5c-.14.15-.3.22-.5.22a.68.68 0 0 1-.5-.21.7.7 0 0 1-.21-.51v-3.9a1.67 1.67 0 0 0-.99-1.49 1.58 1.58 0 0 0-1.27 0c-.2.1-.37.21-.52.36a1.6 1.6 0 0 0-.47 1.14v3.89a.7.7 0 0 1-.21.5c-.14.15-.3.22-.5.22a.7.7 0 0 1-.51-.21.7.7 0 0 1-.21-.51v-3.9c0-.22-.04-.43-.13-.62a1.68 1.68 0 0 0-.86-.86 1.58 1.58 0 0 0-1.77.35 1.64 1.64 0 0 0-.48 1.14v3.89a.7.7 0 0 1-.21.5c-.14.15-.3.22-.5.22a.7.7 0 0 1-.51-.21.7.7 0 0 1-.21-.51v-6.23c0-.2.07-.36.2-.5.15-.14.31-.21.51-.21.16 0 .3.04.42.13.13.1.21.2.26.35a3.1 3.1 0 0 1 2.95-.22c.4.19.75.46 1.05.83a2.98 2.98 0 0 1 3.5-.85 3.12 3.12 0 0 1 1.63 1.63c.17.37.25.76.25 1.18zm5.19-5.51a2.33 2.33 0 0 0-1.7.7 2.45 2.45 0 0 0-.7 1.7 2.44 2.44 0 0 0 1.46 2.2 2.3 2.3 0 0 0 1.88 0 2.43 2.43 0 0 0 1.46-2.2 2.46 2.46 0 0 0-1.46-2.2c-.3-.14-.6-.2-.94-.2zm2.4 5.51v-.13a3.92 3.92 0 0 1-2.4.85 3.69 3.69 0 0 1-2.7-1.13 3.69 3.69 0 0 1-1.13-2.7c0-1.06.38-1.96 1.12-2.71a3.69 3.69 0 0 1 2.71-1.12c1.05 0 1.95.37 2.7 1.12a3.69 3.69 0 0 1 1.13 2.7v3.12c0 .2-.07.37-.21.5-.14.15-.3.22-.5.22a.7.7 0 0 1-.51-.21.69.69 0 0 1-.21-.5zm4.1-3.11c0 .32.05.63.18.93a2.44 2.44 0 0 0 1.27 1.27 2.3 2.3 0 0 0 1.88 0 2.43 2.43 0 0 0 1.46-2.2 2.47 2.47 0 0 0-1.46-2.2 2.33 2.33 0 0 0-2.64.52 2.45 2.45 0 0 0-.7 1.68zm2.4 3.83c-.92 0-1.72-.29-2.4-.85v3.42c0 .2-.08.37-.22.5a.7.7 0 0 1-.5.2.7.7 0 0 1-.72-.7v-6.4c0-1.06.38-1.96 1.12-2.71a3.69 3.69 0 0 1 2.71-1.12c1.05 0 1.95.37 2.7 1.12a3.72 3.72 0 0 1 1.13 2.7c0 1.07-.37 1.98-1.12 2.71-.38.38-.8.66-1.25.85a3.8 3.8 0 0 1-1.46.28zm11.47 0a.67.67 0 0 1-.5-.21.72.72 0 0 1-.21-.5c-.32.25-.65.43-1 .54a3.74 3.74 0 0 1-2.52-.12 3.65 3.65 0 0 1-1.9-1.9 3.4 3.4 0 0 1-.3-1.38v-3.38c0-.2.08-.36.22-.5a.7.7 0 0 1 .5-.21c.2 0 .37.07.5.2.15.15.22.31.22.51v3.38a2.09 2.09 0 0 0 .62 1.51 2.15 2.15 0 0 0 3.66-1.51v-3.38a.7.7 0 0 1 .72-.71c.19 0 .36.07.5.2.14.15.2.31.2.51v6.23c0 .2-.06.37-.2.5a.7.7 0 0 1-.51.22zm8.34 0a.67.67 0 0 1-.5-.21.72.72 0 0 1-.2-.5c-.32.25-.66.43-1 .54a3.74 3.74 0 0 1-2.53-.12 3.65 3.65 0 0 1-1.9-1.9c-.2-.44-.29-.9-.29-1.38v-3.38c0-.2.07-.36.21-.5a.7.7 0 0 1 .51-.21c.2 0 .36.07.5.2.14.15.21.31.21.51v3.38a2.09 2.09 0 0 0 .63 1.51 2.15 2.15 0 0 0 3.65-1.51v-3.38a.7.7 0 0 1 .72-.71c.2 0 .36.07.5.2.14.15.2.31.2.51v6.23c0 .2-.06.37-.2.5a.7.7 0 0 1-.5.22zm6.15-6.95c0-.1.02-.19.06-.27a.73.73 0 0 1 .15-.23.72.72 0 0 1 .5-.2c.1-.01.2 0 .29.04a.74.74 0 0 1 .43.66v2.42l3.48-2.95a.68.68 0 0 1 .48-.18.72.72 0 0 1 .5.2.8.8 0 0 1 .15.24.7.7 0 0 1-.15.78l-3.06 2.59 3.07 2.62c.13.14.2.3.2.51 0 .1-.02.2-.06.28a.8.8 0 0 1-.15.23.72.72 0 0 1-.5.2.69.69 0 0 1-.47-.17l-3.2-2.73-.3.25v1.94a.75.75 0 0 1-.2.5.67.67 0 0 1-.22.16.72.72 0 0 1-.28.06.72.72 0 0 1-.51-.21.74.74 0 0 1-.2-.5zm17.93 6.95a.67.67 0 0 1-.5-.21.71.71 0 0 1-.21-.5c-.31.25-.65.43-1 .54a3.74 3.74 0 0 1-2.52-.12 3.65 3.65 0 0 1-1.9-1.9c-.2-.44-.29-.9-.29-1.38v-3.38a.7.7 0 0 1 .72-.71c.2 0 .36.07.5.2.14.15.21.31.21.51v3.38a2.1 2.1 0 0 0 .63 1.51 2.15 2.15 0 0 0 3.65-1.51v-3.38a.7.7 0 0 1 .72-.71c.2 0 .36.07.5.2.14.15.2.31.2.51v6.23c0 .2-.06.37-.2.5a.7.7 0 0 1-.5.22zm2.74-2.3c.24 0 .44.09.57.29.13.15.24.25.32.3.27.19.6.28.98.28.39 0 .71-.1.97-.3.26-.18.4-.39.4-.6 0-.28-.14-.52-.4-.73a1.49 1.49 0 0 0-.97-.32.68.68 0 0 1-.5-.2.68.68 0 0 1-.2-.5c0-.2.06-.38.2-.52.14-.13.3-.2.5-.2.4 0 .72-.07.98-.2.25-.14.38-.29.38-.45 0-.21-.13-.4-.38-.55a1.89 1.89 0 0 0-.98-.23c-.39 0-.71.1-.98.27-.11.08-.2.18-.29.3l-.1.12a.7.7 0 0 1-.51.21.68.68 0 0 1-.5-.2.68.68 0 0 1-.22-.51.7.7 0 0 1 .11-.38c.14-.21.31-.41.54-.6.54-.42 1.2-.63 1.95-.63.76 0 1.42.2 1.97.62.55.41.82.94.82 1.58 0 .65-.24 1.11-.73 1.4.49.42.73 1 .73 1.71 0 .64-.27 1.18-.82 1.64-.55.46-1.2.7-1.97.7-.76 0-1.41-.22-1.95-.65-.2-.16-.37-.33-.5-.52a.7.7 0 0 1-.13-.42c0-.2.07-.37.2-.5.15-.15.31-.22.5-.22zm13.55-1.53c0 1.06-.37 1.97-1.12 2.7a3.72 3.72 0 0 1-2.7 1.13 3.69 3.69 0 0 1-2.71-1.13 3.69 3.69 0 0 1-1.12-2.7c0-1.06.37-1.96 1.12-2.71a3.69 3.69 0 0 1 2.7-1.12c1.05 0 1.95.37 2.71 1.12a3.76 3.76 0 0 1 1.12 2.7zm-3.83-2.4a2.33 2.33 0 0 0-1.7.7 2.44 2.44 0 0 0-.7 1.7 2.44 2.44 0 0 0 1.46 2.2 2.3 2.3 0 0 0 1.88 0 2.43 2.43 0 0 0 1.46-2.2c0-.33-.06-.64-.18-.93a2.47 2.47 0 0 0-1.28-1.28c-.3-.13-.6-.2-.94-.2zm11.3 2.4a2.46 2.46 0 0 0-1.46-2.2 2.33 2.33 0 0 0-2.64.52 2.45 2.45 0 0 0-.7 1.68c0 .32.06.63.18.93a2.44 2.44 0 0 0 1.27 1.27 2.3 2.3 0 0 0 1.88 0 2.43 2.43 0 0 0 1.47-2.2zm-2.4-5a2.3 2.3 0 0 0-1.7.7c-.37.37-.6.8-.68 1.29a3.65 3.65 0 0 1 2.38-.82c1.04 0 1.95.37 2.7 1.12a3.72 3.72 0 0 1 1.12 2.7c0 1.07-.37 1.98-1.12 2.71a3.72 3.72 0 0 1-2.7 1.13 3.69 3.69 0 0 1-2.71-1.13 3.69 3.69 0 0 1-1.12-2.7v-2.6c0-.52.1-1.02.3-1.48a3.94 3.94 0 0 1 2.05-2.04c.46-.2.95-.3 1.48-.3h.29c.73 0 1.39-.16 1.98-.45a.7.7 0 0 1 .6-.02.75.75 0 0 1 .38.38c.04.09.05.18.05.28 0 .15-.04.28-.14.4s-.22.22-.39.31c-.16.1-.34.17-.55.24a5.26 5.26 0 0 1-1.31.25l-.62.03zm6.49 5c0 .32.06.63.18.93a2.44 2.44 0 0 0 1.27 1.27 2.3 2.3 0 0 0 1.88 0 2.44 2.44 0 0 0 1.47-2.2 2.47 2.47 0 0 0-1.46-2.2 2.33 2.33 0 0 0-2.64.52 2.45 2.45 0 0 0-.7 1.68zm2.4 3.83c-.92 0-1.72-.29-2.4-.85v3.42a.7.7 0 0 1-.72.71.7.7 0 0 1-.71-.71v-6.4c0-1.06.37-1.96 1.12-2.71a3.69 3.69 0 0 1 2.7-1.12c1.06 0 1.96.37 2.71 1.12a3.72 3.72 0 0 1 1.13 2.7c0 1.07-.38 1.98-1.13 2.71-.38.38-.8.66-1.24.85a3.8 3.8 0 0 1-1.46.28zm8.89-6.23a2.33 2.33 0 0 0-1.7.7 2.44 2.44 0 0 0-.7 1.7 2.44 2.44 0 0 0 1.46 2.2 2.3 2.3 0 0 0 1.88 0 2.43 2.43 0 0 0 1.46-2.2 2.47 2.47 0 0 0-1.46-2.2c-.3-.14-.6-.2-.94-.2zm2.4 5.51v-.13a3.92 3.92 0 0 1-2.4.85 3.69 3.69 0 0 1-2.7-1.13 3.69 3.69 0 0 1-1.13-2.7c0-1.06.37-1.96 1.12-2.71a3.69 3.69 0 0 1 2.7-1.12c1.06 0 1.96.37 2.72 1.12a3.69 3.69 0 0 1 1.12 2.7v3.12c0 .2-.07.37-.21.5-.14.15-.3.22-.5.22a.7.7 0 0 1-.51-.21.68.68 0 0 1-.21-.5zm7.37-3.81v-2.42a.7.7 0 0 1 .21-.5.7.7 0 0 1 .5-.21.72.72 0 0 1 .52.2.74.74 0 0 1 .2.51v2.42l3.49-2.95a.68.68 0 0 1 .47-.18.72.72 0 0 1 .5.2.74.74 0 0 1 .21.51c0 .2-.07.37-.21.5l-3.06 2.6 3.06 2.62c.14.14.21.3.21.51a.74.74 0 0 1-.2.5.72.72 0 0 1-.5.2.69.69 0 0 1-.48-.16l-3.2-2.73-.29.25v1.94a.74.74 0 0 1-.2.5.72.72 0 0 1-.5.2.72.72 0 0 1-.67-.42.7.7 0 0 1-.06-.28v-1.94l-.29-.25-3.2 2.73a.7.7 0 0 1-.47.18.72.72 0 0 1-.5-.21.74.74 0 0 1-.2-.5c0-.22.06-.4.2-.52l3.06-2.62-3.05-2.59a.65.65 0 0 1-.22-.51c0-.1.02-.19.06-.27a.74.74 0 0 1 .15-.23.72.72 0 0 1 .5-.2.7.7 0 0 1 .48.17zm13.6-.01a2.3 2.3 0 0 0-.88-1.22 2.47 2.47 0 0 0-1.43-.47 2.4 2.4 0 0 0-1.43.47 2.38 2.38 0 0 0-.87 1.22zm-.78 2.56c.13-.11.3-.17.47-.18a.7.7 0 0 1 .71.71c0 .2-.07.37-.2.52-.71.61-1.55.93-2.5.93a3.69 3.69 0 0 1-2.72-1.13 3.69 3.69 0 0 1-1.12-2.7c0-1.06.38-1.96 1.12-2.71a3.69 3.69 0 0 1 2.71-1.12c1.05 0 1.95.37 2.71 1.12a3.72 3.72 0 0 1 1.12 2.7c0 .21-.07.38-.2.52a.7.7 0 0 1-.52.2h-5.41a2.34 2.34 0 0 0 .87 1.22 2.45 2.45 0 0 0 2.26.33c.25-.1.48-.23.7-.41zm4.94-1.14v2.4a.7.7 0 0 1-.2.5.71.71 0 0 1-.79.16.7.7 0 0 1-.44-.66v-6.23a.7.7 0 0 1 .21-.5.7.7 0 0 1 .79-.16.71.71 0 0 1 .43.66v2.4h3.51v-2.4c0-.1.02-.19.06-.27a.74.74 0 0 1 .15-.23.72.72 0 0 1 .5-.2.72.72 0 0 1 .5.2.74.74 0 0 1 .21.5v6.23a.74.74 0 0 1-.2.5.72.72 0 0 1-.5.2.72.72 0 0 1-.51-.2.74.74 0 0 1-.2-.5v-2.4zm12.53 3.12a.67.67 0 0 1-.5-.21.72.72 0 0 1-.2-.5c-.32.25-.66.43-1 .54a3.74 3.74 0 0 1-2.53-.12 3.65 3.65 0 0 1-1.9-1.9 3.4 3.4 0 0 1-.29-1.38v-3.38c0-.2.07-.36.21-.5a.7.7 0 0 1 .51-.21c.2 0 .36.07.5.2.14.15.21.31.21.51v3.38a2.09 2.09 0 0 0 .63 1.51 2.15 2.15 0 0 0 3.65-1.51v-3.38a.7.7 0 0 1 .72-.71c.2 0 .36.07.5.2.14.15.21.31.21.51v6.23a.7.7 0 0 1-.72.71zm7.87-6.23a2.34 2.34 0 0 0-1.7.7 2.38 2.38 0 0 0 0 3.4 2.45 2.45 0 0 0 1.7.7 2.44 2.44 0 0 0 2.4-2.4 2.47 2.47 0 0 0-1.46-2.2c-.3-.14-.61-.2-.94-.2zm-3.78 1.69a3.92 3.92 0 0 1 3.77-3.12c1.06 0 1.96.37 2.7 1.12a3.7 3.7 0 0 1 1.14 2.7 3.7 3.7 0 0 1-1.13 2.71 3.68 3.68 0 0 1-2.7 1.13 3.95 3.95 0 0 1-3.3-1.88c-.24-.38-.4-.8-.48-1.24h-.7v2.4c0 .1-.02.2-.06.28a.8.8 0 0 1-.15.23.67.67 0 0 1-.23.15.72.72 0 0 1-.28.06.72.72 0 0 1-.5-.21.74.74 0 0 1-.2-.5v-6.24c0-.1 0-.19.05-.27a.73.73 0 0 1 .15-.23.72.72 0 0 1 .5-.2c.1-.01.2 0 .28.04.09.04.16.1.23.16a.8.8 0 0 1 .15.23c.04.08.06.17.06.27v2.4zm16.45 0a.87.87 0 0 0 .77-.5.83.83 0 0 0 0-.68.88.88 0 0 0-.44-.44.79.79 0 0 0-.33-.07h-1.88v1.69zm.52 3.1a.82.82 0 0 0 .6-.24.94.94 0 0 0 .18-.27c.04-.1.06-.2.06-.32a.83.83 0 0 0-.25-.61.87.87 0 0 0-.59-.24h-2.4v1.69zm-.52-6.22a2.34 2.34 0 0 1 2.09 1.4c.12.27.18.56.18.87 0 .49-.13.91-.39 1.28.15.14.29.28.4.41a2.34 2.34 0 0 1 .45.89 2.31 2.31 0 0 1-1.32 2.62c-.28.12-.57.19-.89.19h-3.11a.72.72 0 0 1-.51-.21.74.74 0 0 1-.2-.5v-6.24c0-.1.01-.19.05-.27a.74.74 0 0 1 .15-.23.72.72 0 0 1 .5-.2zm13.58 5.64c.13-.1.28-.15.45-.15a.7.7 0 0 1 .71.7c0 .21-.07.38-.22.54-.7.61-1.54.93-2.5.93a3.69 3.69 0 0 1-2.7-1.13 3.69 3.69 0 0 1-1.13-2.7c0-1.06.38-1.96 1.12-2.71a3.69 3.69 0 0 1 2.71-1.12c.96 0 1.8.3 2.5.93a.7.7 0 0 1 .24.54.7.7 0 0 1-.2.51c-.13.14-.3.2-.5.2a.72.72 0 0 1-.47-.16 2.27 2.27 0 0 0-1.57-.6 2.34 2.34 0 0 0-1.7.7 2.38 2.38 0 0 0 0 3.4 2.45 2.45 0 0 0 1.7.7 2.3 2.3 0 0 0 1.56-.58zm13.23 1.3a.7.7 0 0 1-.2.5c-.14.15-.31.22-.5.22a.68.68 0 0 1-.51-.21.7.7 0 0 1-.2-.51v-3.9a1.67 1.67 0 0 0-.99-1.49 1.58 1.58 0 0 0-1.27 0c-.2.1-.37.21-.52.36a1.6 1.6 0 0 0-.48 1.14v3.89a.7.7 0 0 1-.2.5c-.14.15-.31.22-.5.22a.7.7 0 0 1-.52-.21.7.7 0 0 1-.2-.51v-3.9c0-.22-.05-.43-.13-.62a1.68 1.68 0 0 0-.87-.86 1.58 1.58 0 0 0-1.77.35 1.64 1.64 0 0 0-.48 1.14v3.89a.7.7 0 0 1-.2.5c-.14.15-.31.22-.5.22a.7.7 0 0 1-.52-.21.7.7 0 0 1-.2-.51v-6.23c0-.2.07-.36.2-.5.14-.14.31-.21.5-.21.17 0 .3.04.43.13.12.1.2.2.25.35a3.1 3.1 0 0 1 2.95-.22c.4.19.75.46 1.05.83a2.98 2.98 0 0 1 3.51-.85 3.12 3.12 0 0 1 1.63 1.63c.16.37.24.76.24 1.18zm5.2-5.51a2.33 2.33 0 0 0-1.7.7 2.45 2.45 0 0 0-.7 1.7c0 .32.06.63.18.93a2.44 2.44 0 0 0 1.27 1.27 2.3 2.3 0 0 0 1.88 0 2.43 2.43 0 0 0 1.47-2.2 2.47 2.47 0 0 0-1.46-2.2c-.3-.14-.61-.2-.94-.2zm2.4 5.51v-.13a3.92 3.92 0 0 1-2.4.85 3.69 3.69 0 0 1-2.71-1.13 3.69 3.69 0 0 1-1.12-2.7c0-1.06.37-1.96 1.12-2.71a3.69 3.69 0 0 1 2.7-1.12c1.05 0 1.96.37 2.71 1.12a3.69 3.69 0 0 1 1.13 2.7v3.12c0 .2-.07.37-.21.5-.14.15-.31.22-.5.22a.7.7 0 0 1-.52-.21.69.69 0 0 1-.2-.5zm13.47 0a.7.7 0 0 1-.21.5c-.14.15-.3.22-.5.22a.68.68 0 0 1-.5-.21.7.7 0 0 1-.21-.51v-3.9a1.67 1.67 0 0 0-.99-1.49 1.58 1.58 0 0 0-1.27 0c-.2.1-.37.21-.52.36a1.6 1.6 0 0 0-.47 1.14v3.89a.7.7 0 0 1-.21.5c-.14.15-.3.22-.5.22a.7.7 0 0 1-.51-.21.7.7 0 0 1-.21-.51v-3.9c0-.22-.04-.43-.13-.62a1.68 1.68 0 0 0-.86-.86 1.58 1.58 0 0 0-1.77.35 1.64 1.64 0 0 0-.48 1.14v3.89a.7.7 0 0 1-.21.5c-.14.15-.3.22-.5.22a.7.7 0 0 1-.51-.21.7.7 0 0 1-.21-.51v-6.23c0-.2.07-.36.2-.5.15-.14.32-.21.51-.21.16 0 .3.04.42.13.13.1.21.2.26.35a3.1 3.1 0 0 1 2.95-.22c.4.19.75.46 1.05.83a2.98 2.98 0 0 1 3.5-.85 3.12 3.12 0 0 1 1.64 1.63c.16.37.24.76.24 1.18zm4.9-.71a.83.83 0 0 0 .6-.26.87.87 0 0 0 .25-.58.8.8 0 0 0-.07-.33.9.9 0 0 0-.45-.45.8.8 0 0 0-.33-.07h-2.14v1.69zm-2.14-3.11h2.14a2.34 2.34 0 0 1 2.09 1.4 2.18 2.18 0 0 1 0 1.76 2.33 2.33 0 0 1-1.2 1.2 2.2 2.2 0 0 1-.89.18H813a.72.72 0 0 1-.66-.44.7.7 0 0 1-.06-.28v-6.24a.76.76 0 0 1 .22-.49.68.68 0 0 1 .5-.21.7.7 0 0 1 .5.2.71.71 0 0 1 .21.51zm11.71 0a2.3 2.3 0 0 0-.88-1.22 2.47 2.47 0 0 0-1.42-.47 2.4 2.4 0 0 0-1.44.47 2.37 2.37 0 0 0-.87 1.22zm-.78 2.56c.14-.11.3-.17.47-.18a.7.7 0 0 1 .72.71.7.7 0 0 1-.21.52c-.7.61-1.54.93-2.5.93a3.69 3.69 0 0 1-2.71-1.13 3.69 3.69 0 0 1-1.12-2.7c0-1.06.37-1.96 1.12-2.71a3.69 3.69 0 0 1 2.7-1.12c1.06 0 1.96.37 2.72 1.12a3.72 3.72 0 0 1 1.12 2.7.7.7 0 0 1-.72.71h-5.42a2.34 2.34 0 0 0 .88 1.23 2.45 2.45 0 0 0 2.25.33c.26-.1.49-.23.7-.41z"/></defs><g><g transform="translate(-537 -3446)"><use fill="#666" xlink:href="#pqrna"/></g></g></svg>