<svg xmlns="http://www.w3.org/2000/svg" xmlns:xlink="http://www.w3.org/1999/xlink" width="357" height="24" viewBox="0 0 357 24"><defs><path id="zknda" d="M982.97 563.64c1.48 0 2.6-.32 3.36-.97a3.4 3.4 0 0 0 1.14-2.74 3.04 3.04 0 0 0-1.18-2.56c-.38-.3-.85-.53-1.4-.69a6.85 6.85 0 0 0-1.9-.24h-4.26v7.2zm-4.24-15.13v7.02h3.65c.78 0 1.45-.1 2-.3.56-.2 1.01-.47 1.37-.8.35-.33.61-.7.78-1.12.17-.42.25-.85.25-1.3 0-1.14-.36-2.02-1.08-2.6-.72-.6-1.83-.9-3.34-.9zm3.63-.98c.96 0 1.8.1 2.5.3.72.19 1.3.47 1.77.85.46.37.8.83 1.02 1.37.23.54.34 1.15.34 1.83a3.72 3.72 0 0 1-.9 2.47c-.3.35-.65.66-1.08.92-.43.27-.91.46-1.46.6 1.33.2 2.35.64 3.06 1.34.71.7 1.07 1.61 1.07 2.75 0 .72-.13 1.37-.38 1.95a3.96 3.96 0 0 1-1.11 1.48c-.49.4-1.09.7-1.8.92-.7.22-1.5.32-2.4.32h-5.5v-17.1zm18.7 6.69l-.12.1a.24.24 0 0 1-.14.04c-.08 0-.2-.05-.33-.16a4.06 4.06 0 0 0-1.41-.71c-.35-.11-.77-.17-1.26-.17-.69 0-1.3.12-1.83.37s-.97.6-1.34 1.06a4.73 4.73 0 0 0-.83 1.67 7.97 7.97 0 0 0-.28 2.2c0 .84.1 1.59.3 2.24.19.65.46 1.2.82 1.65.36.45.8.79 1.3 1.02.51.24 1.08.35 1.7.35a4.35 4.35 0 0 0 2.99-1.1c.14-.13.26-.2.36-.2.1 0 .17.04.24.12l.3.39a3.5 3.5 0 0 1-.7.67c-.28.21-.6.4-.94.55a5.73 5.73 0 0 1-2.43.48c-.76 0-1.45-.14-2.07-.42a4.5 4.5 0 0 1-1.61-1.2 5.67 5.67 0 0 1-1.06-1.95 8.36 8.36 0 0 1-.37-2.6c0-.92.12-1.76.36-2.52s.59-1.4 1.05-1.96a4.75 4.75 0 0 1 1.69-1.27c.66-.3 1.43-.45 2.29-.45a5.07 5.07 0 0 1 3.62 1.39zm12.58 3.19c0-.65-.09-1.23-.27-1.74a3.69 3.69 0 0 0-.76-1.3 3.31 3.31 0 0 0-1.16-.81 4.43 4.43 0 0 0-3.14 0c-.49.2-.9.47-1.26.84-.35.36-.64.8-.85 1.3-.22.51-.36 1.08-.43 1.7zm-7.93.73v.23c0 .9.1 1.7.3 2.38.21.69.5 1.26.9 1.73.37.46.84.8 1.38 1.04a5.38 5.38 0 0 0 5.19-.74c.17-.14.3-.2.37-.2.1 0 .19.04.24.12l.31.39c-.19.24-.44.46-.75.67-.32.21-.67.4-1.06.54a7.57 7.57 0 0 1-2.57.49 5.6 5.6 0 0 1-2.22-.43 4.71 4.71 0 0 1-1.72-1.25 5.71 5.71 0 0 1-1.1-2.01 8.78 8.78 0 0 1-.03-5.11c.24-.73.6-1.36 1.05-1.89a4.8 4.8 0 0 1 1.68-1.24 5.48 5.48 0 0 1 4.13-.1c.57.24 1.07.58 1.5 1.03.42.44.75 1 1 1.65.24.65.36 1.4.36 2.24 0 .18-.03.3-.07.37-.05.06-.13.1-.24.1zm25.64-5.72c.85 0 1.61.14 2.28.44.68.3 1.24.7 1.7 1.25.47.54.82 1.19 1.06 1.95.25.76.37 1.61.37 2.55 0 .95-.12 1.8-.37 2.55-.24.76-.6 1.41-1.05 1.95a4.6 4.6 0 0 1-1.7 1.24c-.68.3-1.44.44-2.3.44-.85 0-1.6-.15-2.28-.44a4.66 4.66 0 0 1-1.71-1.24 5.51 5.51 0 0 1-1.06-1.95 8.32 8.32 0 0 1-.37-2.55c0-.94.12-1.79.37-2.55a5.5 5.5 0 0 1 1.06-1.95 4.72 4.72 0 0 1 1.7-1.25c.68-.3 1.44-.44 2.3-.44zm0 11.46c.7 0 1.32-.12 1.85-.37.53-.24.98-.6 1.33-1.05.35-.46.62-1.02.8-1.66.17-.65.26-1.38.26-2.19 0-.8-.09-1.52-.27-2.17a4.75 4.75 0 0 0-.79-1.67c-.35-.47-.8-.82-1.33-1.07a4.32 4.32 0 0 0-1.85-.38c-.71 0-1.33.13-1.86.38s-.97.6-1.33 1.07a4.82 4.82 0 0 0-.8 1.67 8.2 8.2 0 0 0-.27 2.17c0 .81.1 1.54.27 2.19.18.64.45 1.2.8 1.66.36.46.8.8 1.33 1.05s1.15.37 1.86.37zm16.68-10.14c.42-.39.94-.71 1.57-.96a6.01 6.01 0 0 1 2.2-.36c.7 0 1.32.08 1.84.26.53.18.96.41 1.32.7.35.28.6.6.78.97a2.55 2.55 0 0 1 .12 1.9c-.1.28-.24.54-.44.8-.2.24-.47.47-.8.68-.34.2-.74.36-1.22.47.96.2 1.68.58 2.18 1.12.49.55.74 1.2.74 1.95 0 .53-.12 1-.35 1.43-.23.44-.55.8-.96 1.12-.4.3-.88.55-1.42.72a5.82 5.82 0 0 1-3 .12 5.75 5.75 0 0 1-2.1-.9c-.28-.2-.5-.43-.7-.67l.3-.4a.3.3 0 0 1 .25-.11c.1 0 .22.07.37.2a4.43 4.43 0 0 0 1.63.9c.4.13.87.2 1.44.2.52 0 1-.06 1.42-.2.42-.13.78-.31 1.09-.55a2.46 2.46 0 0 0 .94-1.94 2.2 2.2 0 0 0-.93-1.82c-.3-.22-.68-.4-1.14-.52a5.93 5.93 0 0 0-1.56-.19h-1.34v-.8h1.34c.5 0 .97-.05 1.39-.17.42-.12.77-.28 1.06-.48.3-.2.52-.45.68-.73.16-.28.24-.58.24-.91a1.95 1.95 0 0 0-.78-1.56c-.26-.2-.6-.38-1-.5-.4-.13-.88-.19-1.42-.19a5.06 5.06 0 0 0-2.88.86c-.15.1-.26.16-.33.16a.3.3 0 0 1-.15-.04.39.39 0 0 1-.12-.13zm21.04 10.03v-10.24h-4.8c-.1 1.6-.23 2.99-.4 4.15a22.5 22.5 0 0 1-.64 2.98 9.7 9.7 0 0 1-.79 1.97c-.28.5-.57.88-.85 1.14zm3.28-.02v4.78c0 .26-.12.4-.36.4h-.65v-4.3h-11.4v3.95c0 .1-.02.17-.07.24-.05.07-.13.1-.23.1h-.7v-5.15h.46c.29 0 .57-.06.85-.18.29-.12.56-.33.83-.64.27-.31.52-.74.76-1.27.24-.54.45-1.22.64-2.04.2-.83.36-1.82.5-2.97.15-1.15.26-2.5.33-4.06h6.87v11.14zm8.22-11.33c.85 0 1.62.14 2.29.44.67.3 1.24.7 1.7 1.25.46.54.82 1.19 1.06 1.95.24.76.36 1.61.36 2.55 0 .95-.12 1.8-.36 2.55-.24.76-.6 1.41-1.06 1.95a4.6 4.6 0 0 1-1.7 1.24c-.67.3-1.44.44-2.29.44-.85 0-1.61-.15-2.29-.44a4.66 4.66 0 0 1-1.7-1.24 5.51 5.51 0 0 1-1.07-1.95 8.32 8.32 0 0 1-.36-2.55c0-.94.12-1.79.36-2.55a5.5 5.5 0 0 1 1.06-1.95 4.72 4.72 0 0 1 1.71-1.25c.68-.3 1.44-.44 2.3-.44zm0 11.46c.71 0 1.33-.12 1.86-.37.53-.24.97-.6 1.33-1.05.35-.46.61-1.02.79-1.66.18-.65.26-1.38.26-2.19 0-.8-.08-1.52-.26-2.17a4.75 4.75 0 0 0-.8-1.67c-.35-.47-.8-.82-1.32-1.07a4.32 4.32 0 0 0-1.86-.38c-.7 0-1.33.13-1.86.38s-.97.6-1.32 1.07a4.82 4.82 0 0 0-.8 1.67 8.2 8.2 0 0 0-.27 2.17c0 .81.09 1.54.27 2.19.18.64.44 1.2.8 1.66.35.46.8.8 1.32 1.05.53.25 1.15.37 1.86.37zm10.97-1.87c.23.35.47.64.72.88a3.26 3.26 0 0 0 1.68.9 4.95 4.95 0 0 0 2.84-.3c.53-.25.97-.62 1.33-1.09.35-.47.62-1.03.8-1.69.17-.66.26-1.38.26-2.17 0-1.79-.32-3.1-.98-3.94a3.34 3.34 0 0 0-2.8-1.27c-.8 0-1.5.2-2.14.62a6.1 6.1 0 0 0-1.71 1.72zm-.05-7.24a6.33 6.33 0 0 1 1.85-1.73c.7-.42 1.5-.64 2.37-.64 1.46 0 2.6.52 3.41 1.54.82 1.02 1.23 2.56 1.23 4.6 0 .88-.12 1.7-.35 2.46a5.86 5.86 0 0 1-1 1.98 4.78 4.78 0 0 1-3.84 1.8c-.8 0-1.5-.14-2.1-.44-.58-.3-1.09-.74-1.52-1.32v5.87h-1.15V552.6h.64c.2 0 .31.1.34.3zm17.97-2.35c.85 0 1.62.14 2.29.44.67.3 1.24.7 1.7 1.25.46.54.82 1.19 1.06 1.95.24.76.36 1.61.36 2.55 0 .95-.12 1.8-.36 2.55-.24.76-.6 1.41-1.06 1.95a4.6 4.6 0 0 1-1.7 1.24c-.67.3-1.44.44-2.29.44-.85 0-1.61-.15-2.29-.44a4.66 4.66 0 0 1-1.7-1.24 5.51 5.51 0 0 1-1.07-1.95 8.32 8.32 0 0 1-.36-2.55c0-.94.12-1.79.36-2.55a5.5 5.5 0 0 1 1.06-1.95 4.72 4.72 0 0 1 1.71-1.25c.68-.3 1.44-.44 2.3-.44zm0 11.46c.71 0 1.33-.12 1.86-.37.53-.24.97-.6 1.33-1.05.35-.46.61-1.02.79-1.66.18-.65.26-1.38.26-2.19 0-.8-.08-1.52-.26-2.17a4.75 4.75 0 0 0-.8-1.67c-.35-.47-.8-.82-1.32-1.07a4.32 4.32 0 0 0-1.86-.38c-.7 0-1.33.13-1.86.38s-.97.6-1.32 1.07a4.82 4.82 0 0 0-.8 1.67 8.2 8.2 0 0 0-.27 2.17c0 .81.09 1.54.27 2.19.18.64.44 1.2.8 1.66.35.46.8.8 1.32 1.05.53.25 1.15.37 1.86.37zm14.03-.07c.5 0 .95-.06 1.36-.18.4-.12.75-.3 1.03-.52.28-.23.5-.5.64-.82.15-.32.23-.68.23-1.08 0-.36-.06-.69-.18-.99a1.9 1.9 0 0 0-.57-.77c-.26-.2-.59-.37-1-.5-.41-.1-.9-.17-1.48-.17h-3.14v5.03zm-3.1-10.4v4.6h2.81c.43 0 .83-.06 1.2-.17.36-.12.68-.29.94-.5a2.27 2.27 0 0 0 .69-2.58c-.1-.26-.27-.49-.5-.69-.24-.2-.55-.36-.92-.48a4.67 4.67 0 0 0-1.4-.18zm2.85-.8c.71 0 1.32.07 1.83.22.5.15.9.35 1.21.6.31.26.54.56.69.9.14.33.21.69.21 1.06 0 .26-.04.54-.12.84a2.73 2.73 0 0 1-1.18 1.59c-.32.21-.72.38-1.2.48 1.07.13 1.86.45 2.37.97.5.52.76 1.17.76 1.95a3.04 3.04 0 0 1-1.2 2.51c-.38.3-.83.52-1.36.67-.53.16-1.11.23-1.75.23h-4.22v-12.02zm13.63-.2c.85 0 1.61.15 2.29.45.67.3 1.24.7 1.7 1.25.46.54.81 1.19 1.06 1.95.24.76.36 1.61.36 2.55 0 .95-.12 1.8-.36 2.55-.25.76-.6 1.41-1.06 1.95a4.6 4.6 0 0 1-1.7 1.24c-.68.3-1.44.44-2.29.44-.85 0-1.62-.15-2.29-.44a4.66 4.66 0 0 1-1.7-1.24 5.51 5.51 0 0 1-1.07-1.95 8.32 8.32 0 0 1-.36-2.55c0-.94.12-1.79.36-2.55a5.5 5.5 0 0 1 1.06-1.95 4.72 4.72 0 0 1 1.71-1.25c.67-.3 1.44-.44 2.29-.44zm0 11.47c.7 0 1.33-.12 1.86-.37.53-.24.97-.6 1.32-1.05.36-.46.62-1.02.8-1.66.17-.65.26-1.38.26-2.19 0-.8-.09-1.52-.26-2.17a4.75 4.75 0 0 0-.8-1.67c-.35-.47-.8-.82-1.32-1.07a4.32 4.32 0 0 0-1.86-.38c-.7 0-1.33.13-1.86.38s-.97.6-1.32 1.07a4.82 4.82 0 0 0-.8 1.67 8.2 8.2 0 0 0-.27 2.17c0 .81.09 1.54.27 2.19.17.64.44 1.2.8 1.66.35.46.8.8 1.32 1.05.53.25 1.15.37 1.86.37zm22.44-11.33v12.08h-1.02v-9.69a4.38 4.38 0 0 1 .09-.88l-4.9 8.3a.72.72 0 0 1-.15.17.3.3 0 0 1-.2.07h-.13a.3.3 0 0 1-.2-.07.72.72 0 0 1-.15-.17l-5.03-8.33a6.3 6.3 0 0 1 .08.9v9.7h-1v-12.08h.83c.08 0 .15.02.23.05.08.04.14.11.2.21l4.82 7.85c.1.19.2.4.3.64.06-.21.15-.43.27-.64l4.7-7.85c.06-.1.12-.18.2-.21a.62.62 0 0 1 .25-.05zm17.51-.13c.86 0 1.62.14 2.3.44.66.3 1.23.7 1.7 1.25.46.54.8 1.19 1.05 1.95.24.76.37 1.61.37 2.55 0 .95-.13 1.8-.37 2.55-.24.76-.6 1.41-1.06 1.95a4.6 4.6 0 0 1-1.7 1.24c-.67.3-1.43.44-2.29.44-.85 0-1.61-.15-2.28-.44a4.66 4.66 0 0 1-1.71-1.24 5.51 5.51 0 0 1-1.07-1.95 8.32 8.32 0 0 1-.36-2.55c0-.94.12-1.79.36-2.55a5.5 5.5 0 0 1 1.07-1.95 4.72 4.72 0 0 1 1.7-1.25c.68-.3 1.44-.44 2.3-.44zm0 11.46c.71 0 1.33-.12 1.86-.37.53-.24.97-.6 1.33-1.05.35-.46.62-1.02.8-1.66.17-.65.25-1.38.25-2.19 0-.8-.08-1.52-.26-2.17a4.75 4.75 0 0 0-.8-1.67c-.35-.47-.79-.82-1.32-1.07a4.32 4.32 0 0 0-1.86-.38c-.7 0-1.32.13-1.85.38s-.98.6-1.33 1.07a4.82 4.82 0 0 0-.8 1.67 8.2 8.2 0 0 0-.27 2.17c0 .81.09 1.54.27 2.19.18.64.44 1.2.8 1.66.35.46.8.8 1.33 1.05s1.14.37 1.85.37zm14.91.05c.71 0 1.34-.12 1.88-.36.54-.23 1-.57 1.36-1 .36-.44.63-.97.82-1.58.19-.62.28-1.3.28-2.07a7.6 7.6 0 0 0-.26-2.07 4.46 4.46 0 0 0-.79-1.59 3.52 3.52 0 0 0-1.3-1.01 4.88 4.88 0 0 0-3.57-.05 3.87 3.87 0 0 0-2.29 2.32c-.21.56-.32 1.2-.32 1.9 0 .84.1 1.6.28 2.27.18.68.45 1.26.8 1.74a3.65 3.65 0 0 0 3.11 1.5zm.8-15a5.9 5.9 0 0 0-2.3.66c-.64.35-1.17.83-1.6 1.44-.42.61-.74 1.35-.96 2.2a13.5 13.5 0 0 0-.36 2.97 4.55 4.55 0 0 1 3.25-2.96 5.76 5.76 0 0 1 3.74.2 4.4 4.4 0 0 1 1.6 1.2 5.4 5.4 0 0 1 1 1.86c.23.72.34 1.53.34 2.42a7.2 7.2 0 0 1-.38 2.4 4.82 4.82 0 0 1-2.84 3.04 6 6 0 0 1-4.37.05 4.15 4.15 0 0 1-1.73-1.29c-.5-.6-.88-1.4-1.17-2.42-.3-1-.44-2.25-.44-3.75 0-1.32.12-2.52.35-3.59.24-1.06.6-1.99 1.1-2.76.5-.78 1.13-1.4 1.9-1.86.78-.47 1.7-.75 2.78-.87l4.28-.44.06.58c.01.14 0 .26-.06.35-.06.08-.16.14-.3.15zM1202.8 562c.23.35.47.64.72.88a3.26 3.26 0 0 0 1.68.9 4.95 4.95 0 0 0 2.84-.3c.53-.25.97-.62 1.33-1.09.35-.47.62-1.03.8-1.69.17-.66.26-1.38.26-2.17 0-1.79-.32-3.1-.98-3.94a3.34 3.34 0 0 0-2.8-1.27c-.8 0-1.5.2-2.14.62a6.1 6.1 0 0 0-1.71 1.72zm-.05-7.24a6.33 6.33 0 0 1 1.85-1.73c.7-.42 1.5-.64 2.37-.64 1.46 0 2.6.52 3.41 1.54.82 1.02 1.23 2.56 1.23 4.6 0 .88-.12 1.7-.35 2.46a5.86 5.86 0 0 1-1 1.98 4.78 4.78 0 0 1-3.84 1.8c-.8 0-1.5-.14-2.1-.44-.58-.3-1.09-.74-1.52-1.32v5.87h-1.15V552.6h.64c.2 0 .31.1.34.3zm19.92 4.05c-1.13.04-2.1.13-2.92.27-.82.14-1.5.33-2.02.58-.53.24-.92.53-1.18.86-.25.33-.38.71-.38 1.14 0 .4.07.75.2 1.05a2.04 2.04 0 0 0 1.28 1.14c.29.09.59.13.9.13a5.04 5.04 0 0 0 2.34-.57c.34-.18.64-.4.93-.65.29-.25.57-.52.85-.8zm-7-4.5a6.91 6.91 0 0 1 1.97-1.43 5.41 5.41 0 0 1 4-.18c.48.2.88.5 1.19.88.31.39.55.85.71 1.4.16.54.24 1.14.24 1.81v7.83h-.45c-.24 0-.39-.11-.45-.34l-.16-1.54c-.33.32-.65.6-.98.87a5.81 5.81 0 0 1-2.14 1.06c-.4.1-.85.15-1.34.15-.4 0-.8-.07-1.18-.19a2.69 2.69 0 0 1-1.74-1.52c-.18-.38-.27-.85-.27-1.4 0-.5.14-.98.43-1.41.29-.44.74-.82 1.35-1.14a8.9 8.9 0 0 1 2.36-.77c.96-.2 2.11-.3 3.46-.34v-1.26c0-1.11-.24-1.97-.71-2.57-.48-.6-1.18-.9-2.11-.9-.57 0-1.06.08-1.46.25a5.18 5.18 0 0 0-1.7 1.06c-.18.16-.33.24-.45.24a.36.36 0 0 1-.21-.06.54.54 0 0 1-.15-.16zm12.28-.58c.42-.39.95-.71 1.57-.96a6.01 6.01 0 0 1 2.2-.36c.7 0 1.32.08 1.85.26.52.18.96.41 1.31.7.35.28.61.6.78.97a2.55 2.55 0 0 1 .12 1.9c-.09.28-.24.54-.44.8-.2.24-.47.47-.8.68-.33.2-.74.36-1.21.47.95.2 1.68.58 2.17 1.12.5.55.74 1.2.74 1.95 0 .53-.11 1-.34 1.43-.24.44-.55.8-.96 1.12-.4.3-.88.55-1.42.72a5.82 5.82 0 0 1-3.01.12 5.75 5.75 0 0 1-2.09-.9c-.28-.2-.51-.43-.7-.67l.3-.4a.3.3 0 0 1 .24-.11c.1 0 .22.07.38.2a4.43 4.43 0 0 0 1.62.9c.4.13.88.2 1.44.2.53 0 1-.06 1.42-.2.43-.13.79-.31 1.09-.55a2.46 2.46 0 0 0 .94-1.94 2.2 2.2 0 0 0-.93-1.82c-.3-.22-.68-.4-1.13-.52a5.93 5.93 0 0 0-1.57-.19h-1.34v-.8h1.34c.51 0 .98-.05 1.4-.17.41-.12.77-.28 1.06-.48.29-.2.51-.45.67-.73.16-.28.24-.58.24-.91a1.95 1.95 0 0 0-.78-1.56c-.26-.2-.6-.38-1-.5-.4-.13-.87-.19-1.42-.19a5.06 5.06 0 0 0-2.87.86c-.15.1-.26.16-.33.16a.3.3 0 0 1-.16-.04.39.39 0 0 1-.12-.13zm21.03 3.67c0-.65-.1-1.23-.27-1.74a3.7 3.7 0 0 0-.76-1.3 3.31 3.31 0 0 0-1.16-.81 4.43 4.43 0 0 0-3.14 0c-.49.2-.9.47-1.26.84-.36.36-.64.8-.86 1.3-.21.51-.35 1.08-.43 1.7zm-7.94.73v.23c0 .9.1 1.7.32 2.38.2.69.5 1.26.88 1.73.38.46.84.8 1.39 1.04a5.38 5.38 0 0 0 5.19-.74c.17-.14.3-.2.37-.2.1 0 .19.04.24.12l.31.39c-.19.24-.44.46-.76.67-.31.21-.66.4-1.05.54a7.57 7.57 0 0 1-2.57.49 5.6 5.6 0 0 1-2.22-.43 4.71 4.71 0 0 1-1.73-1.25 5.71 5.71 0 0 1-1.1-2.01 8.78 8.78 0 0 1-.02-5.11c.24-.73.59-1.36 1.05-1.89a4.8 4.8 0 0 1 1.68-1.24 5.48 5.48 0 0 1 4.13-.1c.57.24 1.07.58 1.5 1.03.42.44.75 1 1 1.65.23.65.36 1.4.36 2.24 0 .18-.03.3-.08.37-.04.06-.12.1-.24.1zm36.53 6.5h-.8c-.2 0-.37-.04-.5-.1a.69.69 0 0 1-.28-.32l-3-4.26c-.23-.34-.5-.6-.83-.77-.33-.17-.7-.26-1.1-.26h-1.5v5.71h-1.1v-5.71h-1.5c-.4 0-.77.09-1.1.26-.33.17-.6.43-.84.77l-3 4.26a.62.62 0 0 1-.29.32c-.12.06-.29.1-.5.1h-.78l3.55-5.01a2.6 2.6 0 0 1 1.7-1.22c-.31-.09-.57-.22-.79-.4a3.4 3.4 0 0 1-.6-.66l-3.5-4.74h.88c.26 0 .45.11.57.34l3.16 4.27c.2.29.45.5.74.67.3.16.62.24.95.24h1.34v-5.53h1.11v5.53h1.33a2.14 2.14 0 0 0 1.7-.9l3.16-4.28a.62.62 0 0 1 .58-.34h.87l-3.49 4.74c-.18.25-.38.47-.6.65-.22.19-.48.32-.79.4a2.61 2.61 0 0 1 1.7 1.23zm13.2-12.03v12.02h-1.13v-9.69a5.85 5.85 0 0 1 .04-.75 6.85 6.85 0 0 1-.32.56l-.33.45-.82 1.1a565.02 565.02 0 0 0-2.44 3.3l-3.53 4.74a.87.87 0 0 1-.18.2.39.39 0 0 1-.25.1h-.66V552.6h1.15v9.69a6.03 6.03 0 0 1-.05.75 2.45 2.45 0 0 1 .31-.56l.33-.44a573.44 573.44 0 0 0 3.27-4.4 4679.3 4679.3 0 0 1 3.7-4.95c.08-.06.17-.1.25-.1zm4.3 1.13c.41-.39.94-.71 1.56-.96a6.01 6.01 0 0 1 2.2-.36c.7 0 1.32.08 1.85.26.52.18.96.41 1.31.7.35.28.61.6.78.97a2.55 2.55 0 0 1 .12 1.9c-.09.28-.24.54-.44.8-.2.24-.47.47-.8.68-.33.2-.74.36-1.21.47.95.2 1.68.58 2.17 1.12.5.55.74 1.2.74 1.95 0 .53-.11 1-.34 1.43-.24.44-.55.8-.96 1.12-.4.3-.88.55-1.42.72a5.82 5.82 0 0 1-3.01.12 5.75 5.75 0 0 1-2.09-.9c-.28-.2-.51-.43-.7-.67l.3-.4a.3.3 0 0 1 .24-.11c.1 0 .22.07.38.2a4.43 4.43 0 0 0 1.62.9c.4.13.88.2 1.44.2.53 0 1-.06 1.42-.2.43-.13.79-.31 1.1-.55a2.46 2.46 0 0 0 .94-1.94 2.2 2.2 0 0 0-.93-1.82c-.3-.22-.69-.4-1.14-.52a5.93 5.93 0 0 0-1.57-.19h-1.34v-.8h1.34c.51 0 .98-.05 1.4-.17.41-.12.77-.28 1.06-.48.29-.2.51-.45.67-.73.16-.28.24-.58.24-.91a1.95 1.95 0 0 0-.77-1.56c-.27-.2-.6-.38-1-.5-.4-.13-.88-.19-1.43-.19a5.06 5.06 0 0 0-2.87.86c-.15.1-.26.16-.33.16a.3.3 0 0 1-.16-.04.39.39 0 0 1-.12-.13zm22.03-1.13v12.02h-1.14v-6.03h-7.06v6.03h-1.15v-12.02h1.15v5.11h7.06v-5.11zm14.74 0v12.02h-1.14v-9.69a5.85 5.85 0 0 1 .05-.75 6.97 6.97 0 0 1-.32.56l-.34.45a565.02 565.02 0 0 0-3.26 4.4l-3.53 4.74a.87.87 0 0 1-.18.2.39.39 0 0 1-.25.1h-.65V552.6h1.14v9.69a5.94 5.94 0 0 1-.04.75 2.45 2.45 0 0 1 .3-.56l.34-.44a573.44 573.44 0 0 0 3.26-4.4 4692.55 4692.55 0 0 1 3.71-4.95c.08-.06.16-.1.25-.1z"/></defs><g><g transform="translate(-976 -546)"><use fill="#727272" xlink:href="#zknda"/></g></g></svg>