<svg xmlns="http://www.w3.org/2000/svg" xmlns:xlink="http://www.w3.org/1999/xlink" width="788" height="119" viewBox="0 0 788 119"><defs><path id="jz2sa" d="M558.15 507.98c1.72 0 3.09.63 4.1 1.89 1.99 2.17 3.65 3.67 5 4.49 4.18 2.5 9.19 3.76 15.03 3.76 5.85 0 10.92-1.42 15.2-4.27 4.3-2.85 6.44-6.18 6.44-10 0-4.3-2.13-8-6.4-11.11-4.26-3.12-9.34-4.68-15.24-4.68a5.1 5.1 0 0 1-3.53-1.3 4.13 4.13 0 0 1-1.45-3.19c0-1.25.48-2.32 1.45-3.18a5.1 5.1 0 0 1 3.53-1.3c5.74 0 10.78-1.03 15.13-3.09 4.34-2.05 6.51-4.79 6.51-8.22 0-3.86-2.16-6.95-6.47-9.27-4.32-2.32-9.37-3.48-15.17-3.48-5.84 0-10.85 1.28-15.04 3.84a19.17 19.17 0 0 0-4.9 4.35c-.22.34-.46.65-.73.94a5.4 5.4 0 0 1-3.62 1.3c-1.34 0-2.5-.43-3.5-1.3a4.08 4.08 0 0 1-1.48-3.19 4 4 0 0 1 .72-2.39 25.29 25.29 0 0 1 5.95-5.86c6.22-4.45 13.76-6.67 22.6-6.67 8.85 0 16.33 2.1 22.45 6.27 6.11 4.17 9.17 9.33 9.17 15.46 0 6.09-4.13 11.28-12.4 15.58 8.27 6.47 12.4 13.3 12.4 20.5 0 6.18-3.07 11.6-9.21 16.26-6.14 4.66-13.61 6.99-22.4 6.99-8.85 0-16.39-2.25-22.6-6.74a25.47 25.47 0 0 1-5.56-5.22 4.06 4.06 0 0 1-.96-2.68c0-1.25.5-2.31 1.48-3.18 1-.87 2.16-1.3 3.5-1.3zm148.78-43.82a30.98 30.98 0 0 0-22.52-9.2 30.98 30.98 0 0 0-22.52 9.2c-6.24 6.18-9.36 13.62-9.36 22.31 0 8.64 3.12 16.06 9.36 22.24a30.85 30.85 0 0 0 22.52 9.27c8.77 0 16.28-3.1 22.52-9.27a30.15 30.15 0 0 0 9.29-22.24c0-8.74-3.1-16.18-9.29-22.31zm9.29 48.1c-8.92 9.75-19.53 14.63-31.81 14.63-11.31 0-20.96-3.94-28.96-11.8-8-7.93-12-17.47-12-28.62 0-11.2 4-20.74 12-28.61 8-7.92 17.65-11.88 28.96-11.88 11.3 0 20.96 3.96 28.96 11.88 8 7.87 11.99 17.4 11.99 28.61v41c0 8.3-3.05 15.52-9.14 21.66-8.58 8.5-18.97 12.74-31.15 12.74-12.2 0-22.55-4.25-31.08-12.74-3.17-3-5.73-6.26-7.68-9.78a5.3 5.3 0 0 1-.8-2.68c0-1.26.44-2.32 1.31-3.19a4.4 4.4 0 0 1 3.22-1.3c1.27 0 2.36.45 3.3 1.37.38.34.72.8 1.01 1.38a36.74 36.74 0 0 0 6.07 7.9 34.24 34.24 0 0 0 11.3 7.56 35.25 35.25 0 0 0 13.35 2.5c9.65 0 17.89-3.38 24.71-10.14 4.3-5.12 6.44-10.21 6.44-15.28zm105.72-54.4c8 7.92 12 17.48 12 28.68s-4 20.77-12 28.69c-8 7.92-17.65 11.88-28.96 11.88-11.3 0-20.96-3.96-28.95-11.88-8-7.92-12-17.48-12-28.69 0-11.2 4-20.76 12-28.68 8-7.92 17.64-11.88 28.95-11.88 11.31 0 20.97 3.96 28.96 11.88zm-6.43 6.37a30.85 30.85 0 0 0-22.53-9.27c-8.77 0-16.28 3.1-22.52 9.27-6.24 6.18-9.36 13.62-9.36 22.31 0 8.7 3.12 16.13 9.36 22.31a30.85 30.85 0 0 0 22.52 9.27c8.78 0 16.29-3.09 22.53-9.27a30.24 30.24 0 0 0 9.28-22.3c0-8.75-3.1-16.18-9.28-22.32zm63.53 0c-6.24 6.18-9.36 13.62-9.36 22.31 0 8.7 3.12 16.13 9.36 22.31a30.85 30.85 0 0 0 22.52 9.27c8.77 0 16.28-3.09 22.52-9.27a30.24 30.24 0 0 0 9.29-22.3c0-8.75-3.1-16.18-9.29-22.32a30.85 30.85 0 0 0-22.52-9.27c-8.78 0-16.28 3.1-22.52 9.27zm-9.36 93.15c0 1.26-.44 2.32-1.32 3.19a4.4 4.4 0 0 1-3.22 1.3 4.4 4.4 0 0 1-3.21-1.3 4.32 4.32 0 0 1-1.32-3.19v-70.84c0-11.2 4-20.76 12-28.68 7.99-7.92 17.64-11.88 28.95-11.88 11.3 0 20.96 3.96 28.96 11.88 8 7.92 11.99 17.48 11.99 28.68s-4 20.77-12 28.69c-7.99 7.92-17.64 11.88-28.95 11.88-11.31 0-20.96-3.96-28.96-11.88l-2.92-2.83zm169.41-99.52c8 7.92 12 17.48 12 28.68s-4 20.77-12 28.69c-8 7.92-17.65 11.88-28.96 11.88-11.3 0-20.96-3.96-28.95-11.88-8-7.92-12-17.48-12-28.69 0-11.2 4-20.76 12-28.68 8-7.92 17.64-11.88 28.95-11.88 11.31 0 20.97 3.96 28.96 11.88zm-6.43 6.37a30.85 30.85 0 0 0-22.53-9.27c-8.77 0-16.28 3.1-22.52 9.27-6.24 6.18-9.36 13.62-9.36 22.31 0 8.7 3.12 16.13 9.36 22.31a30.85 30.85 0 0 0 22.52 9.27c8.78 0 16.29-3.09 22.53-9.27a30.24 30.24 0 0 0 9.28-22.3c0-8.75-3.1-16.18-9.28-22.32zm80.13 17.82c3.75 0 6.97-1.33 9.65-3.98a12.98 12.98 0 0 0 4.02-9.56c0-3.63-1.34-6.81-4.02-9.57a13.23 13.23 0 0 0-9.65-3.98h-25.74v27.1zm6.07 36.07c3.65 0 6.87-1.32 9.65-3.98a13.3 13.3 0 0 0 4.02-9.56c0-3.72-1.34-6.9-4.02-9.56-2.78-2.66-6-3.99-9.65-3.99h-31.81v27.1zm-6.07-72.14c6.33 0 11.7 2.2 16.08 6.6a21.46 21.46 0 0 1 6.66 15.93c0 2.85-.54 5.57-1.61 8.18a28.55 28.55 0 0 1-4.75 7.6 22.78 22.78 0 0 1 5.85 4.28 21.97 21.97 0 0 1 6.58 16 21.7 21.7 0 0 1-6.66 16.02 22 22 0 0 1-16.08 6.52h-36.42a4.4 4.4 0 0 1-3.22-1.3 4.31 4.31 0 0 1-1.31-3.2v-72.14c0-1.25.44-2.32 1.31-3.19a4.4 4.4 0 0 1 3.22-1.3zm94.1 72.14c3.65 0 6.87-1.32 9.65-3.98a13.3 13.3 0 0 0 4.02-9.56c0-3.72-1.34-6.9-4.02-9.56-2.78-2.66-6-3.99-9.66-3.99h-28.8v27.1zm-28.82-36.07h28.81c6.34 0 11.7 2.2 16.1 6.6a21.46 21.46 0 0 1 6.64 15.93 21.7 21.7 0 0 1-6.65 16 22 22 0 0 1-16.09 6.53h-33.34a4.52 4.52 0 0 1-3.26-1.3 4.25 4.25 0 0 1-1.35-3.2v-72.28c.1-1.21.56-2.23 1.4-3.05a4.4 4.4 0 0 1 3.2-1.3 4.4 4.4 0 0 1 3.23 1.3 4.31 4.31 0 0 1 1.31 3.19zm151.43 0c-1.37-7.2-4.41-13.13-9.14-17.82a30.85 30.85 0 0 0-22.52-9.27c-8.78 0-16.29 3.1-22.53 9.27-4.68 4.64-7.75 10.58-9.21 17.82zm-11.19 28.61a4.38 4.38 0 0 1 2.85-1.01c1.27 0 2.34.45 3.22 1.34.88.9 1.32 1.97 1.32 3.22 0 1.26-.4 2.3-1.17 3.12-7.6 6.52-16.5 9.78-26.7 9.78-11.3 0-20.96-3.96-28.95-11.88-8-7.92-12-17.48-12-28.69 0-11.2 4-20.76 12-28.68 8-7.92 17.65-11.88 28.96-11.88 11.3 0 20.96 3.96 28.95 11.88 8 7.92 12 17.48 12 28.68 0 1.26-.44 2.32-1.32 3.19a4.4 4.4 0 0 1-3.22 1.3h-68.15c1.46 7.25 4.53 13.19 9.21 17.82a30.85 30.85 0 0 0 22.53 9.27c4 0 7.7-.64 11.11-1.92a31.17 31.17 0 0 0 9.36-5.54z"/></defs><g><g transform="translate(-552 -444)"><use fill="#5d6460" xlink:href="#jz2sa"/></g></g></svg>