<svg xmlns="http://www.w3.org/2000/svg" xmlns:xlink="http://www.w3.org/1999/xlink" width="896" height="114" viewBox="0 0 896 114"><defs><path id="o3zba" d="M574.8 8789.47a5.03 5.03 0 0 1 3.6 1.49l10.28 10.5a42.5 42.5 0 0 1-16.91 12.93c-6.78 2.91-14.8 4.36-24.05 4.36-8.49 0-16.1-1.4-22.81-4.2a49.39 49.39 0 0 1-17.1-11.63 50.89 50.89 0 0 1-10.78-17.58 63.25 63.25 0 0 1-3.76-22.1c0-8.09 1.35-15.53 4.06-22.3a51.65 51.65 0 0 1 11.43-17.56 51.58 51.58 0 0 1 17.64-11.47c6.85-2.73 14.4-4.1 22.63-4.1 4.19 0 8.14.36 11.85 1.08 3.7.72 7.17 1.72 10.39 2.98a47.98 47.98 0 0 1 16.1 10.4l-8.74 11.4c-.56.7-1.23 1.33-2 1.9a5.3 5.3 0 0 1-3.22.85c-.92 0-1.79-.2-2.6-.6-.82-.39-1.69-.87-2.61-1.45l-3.03-1.86c-1.1-.67-2.4-1.29-3.91-1.86a33.22 33.22 0 0 0-5.3-1.45c-2.01-.4-4.38-.6-7.09-.6-4.3 0-8.22.77-11.77 2.31a25.6 25.6 0 0 0-9.2 6.74 30.9 30.9 0 0 0-5.99 10.88c-1.4 4.3-2.1 9.2-2.1 14.72 0 5.56.77 10.5 2.34 14.82a32.32 32.32 0 0 0 6.36 10.92 26.96 26.96 0 0 0 9.4 6.74 28.79 28.79 0 0 0 11.5 2.31c2.35 0 4.5-.11 6.44-.33 1.94-.23 3.76-.6 5.45-1.12a22.52 22.52 0 0 0 4.75-2.09c1.48-.87 3-1.97 4.53-3.31.61-.5 1.27-.91 2-1.23a5.36 5.36 0 0 1 2.22-.49zm142.34 28.1h-26.08v-89.86h-41.95v89.85h-26.08V8709h94.1zm103.38-41.5l-10.36-29.74c-.76-1.88-1.58-4.1-2.45-6.67-.87-2.55-1.74-5.32-2.6-8.3a114.76 114.76 0 0 1-4.92 15.12l-10.27 29.58zm41.18 41.5h-20.1c-2.24 0-4.06-.52-5.44-1.54a9.74 9.74 0 0 1-3.14-3.9l-6.6-18.93h-42.48l-6.6 18.92a9.1 9.1 0 0 1-3.03 3.76 8.62 8.62 0 0 1-5.4 1.68h-20.25L791.9 8709h26.54zm103.46-28.1a5.03 5.03 0 0 1 3.6 1.49l10.28 10.5a42.5 42.5 0 0 1-16.9 12.93c-6.78 2.91-14.8 4.36-24.05 4.36-8.49 0-16.1-1.4-22.82-4.2a49.39 49.39 0 0 1-17.1-11.63 50.9 50.9 0 0 1-10.78-17.58 63.25 63.25 0 0 1-3.75-22.1c0-8.09 1.35-15.53 4.06-22.3a51.65 51.65 0 0 1 11.43-17.56 51.58 51.58 0 0 1 17.64-11.47c6.85-2.73 14.39-4.1 22.62-4.1 4.2 0 8.14.36 11.85 1.08 3.7.72 7.17 1.72 10.4 2.98a47.98 47.98 0 0 1 16.1 10.4l-8.74 11.4c-.57.7-1.23 1.33-2 1.9a5.3 5.3 0 0 1-3.22.85c-.92 0-1.79-.2-2.6-.6-.82-.39-1.7-.87-2.61-1.45l-3.03-1.86c-1.1-.67-2.4-1.29-3.91-1.86a33.22 33.22 0 0 0-5.3-1.45c-2.02-.4-4.38-.6-7.09-.6-4.3 0-8.22.77-11.77 2.31a25.6 25.6 0 0 0-9.2 6.74 30.9 30.9 0 0 0-5.99 10.88c-1.4 4.3-2.1 9.2-2.1 14.72 0 5.56.77 10.5 2.33 14.82a32.32 32.32 0 0 0 6.37 10.92 26.96 26.96 0 0 0 9.4 6.74 28.79 28.79 0 0 0 11.5 2.31c2.35 0 4.5-.11 6.44-.33 1.94-.23 3.76-.6 5.44-1.12a22.51 22.51 0 0 0 4.76-2.09c1.48-.87 2.99-1.97 4.52-3.31.62-.5 1.28-.91 2-1.23a5.36 5.36 0 0 1 2.22-.49zm145.8-80.47v108.56h-26.08v-60.8c0-2.83.09-5.82.27-8.97.18-3.16.52-6.52 1.03-10.1a82.33 82.33 0 0 1-7.9 15.94l-33.97 56.4c-.57.9-1.24 1.8-2.03 2.69-.8.9-1.68 1.7-2.65 2.42s-2.02 1.3-3.14 1.75c-1.13.45-2.3.67-3.53.67h-19.56V8709h26.08v60.73c0 2.83-.08 5.82-.23 8.98a94.93 94.93 0 0 1-1.08 10.1 85.35 85.35 0 0 1 7.9-15.88l33.98-56.4c.56-.9 1.24-1.79 2.03-2.68.8-.9 1.67-1.7 2.65-2.42.97-.72 2.01-1.3 3.14-1.76a9.47 9.47 0 0 1 3.53-.67zm85.58 89.56c3.43 0 6.24-.37 8.44-1.12 2.2-.74 3.92-1.75 5.18-3.01a10 10 0 0 0 2.57-4.29c.46-1.59.69-3.25.69-4.99 0-1.99-.23-3.82-.7-5.51a9.44 9.44 0 0 0-2.56-4.36 12.56 12.56 0 0 0-5.18-2.83c-2.2-.67-5.01-1-8.44-1h-15.03v27.11zm0-46.12c7.72 0 14.28.82 19.68 2.46 5.39 1.64 9.77 3.84 13.15 6.6a24.73 24.73 0 0 1 7.36 9.6 29.42 29.42 0 0 1 2.3 11.52c0 5.21-.96 9.97-2.87 14.27a30.47 30.47 0 0 1-8.32 11.02 38.91 38.91 0 0 1-13.35 7.12c-5.27 1.69-11.25 2.53-17.95 2.53h-40.95V8709h79.15v18.85h-53.23v24.6zm189.67 10.8c0 7.85-1.4 15.16-4.18 21.91a52.67 52.67 0 0 1-11.78 17.62c-5.06 5-11.16 8.9-18.29 11.74-7.13 2.83-15.04 4.24-23.73 4.24-8.7 0-16.62-1.41-23.78-4.24a54.46 54.46 0 0 1-18.37-11.74 52.36 52.36 0 0 1-11.8-17.62 56.86 56.86 0 0 1-4.19-21.9c0-7.85 1.4-15.15 4.18-21.91a51.99 51.99 0 0 1 11.81-17.58 54.76 54.76 0 0 1 18.37-11.7c7.16-2.83 15.08-4.25 23.78-4.25 8.69 0 16.6 1.43 23.73 4.29a54.92 54.92 0 0 1 18.3 11.73 52.28 52.28 0 0 1 11.77 17.59 56.7 56.7 0 0 1 4.18 21.83zm-26.54 0c0-5.36-.72-10.19-2.15-14.49a30.47 30.47 0 0 0-6.17-10.91 26.63 26.63 0 0 0-9.86-6.86 34.8 34.8 0 0 0-13.26-2.38c-5.02 0-9.48.8-13.39 2.38a26.56 26.56 0 0 0-9.9 6.86 30.45 30.45 0 0 0-6.16 10.91 45.69 45.69 0 0 0-2.15 14.5c0 5.41.71 10.27 2.15 14.56a30.43 30.43 0 0 0 6.17 10.92 26.2 26.2 0 0 0 9.9 6.81 35.8 35.8 0 0 0 13.38 2.35c4.95 0 9.38-.78 13.26-2.35a26.26 26.26 0 0 0 9.86-6.81 30.45 30.45 0 0 0 6.17-10.92 45.97 45.97 0 0 0 2.15-14.56z"/><path id="o3zbb" d="M491 8821v-116h898v116zm83.8-31.53c-.77 0-1.51.16-2.23.49-.72.32-1.38.73-2 1.23a29.9 29.9 0 0 1-4.52 3.31 22.52 22.52 0 0 1-4.75 2.09c-1.69.52-3.5.9-5.45 1.12-1.94.22-4.09.33-6.44.33-4.1 0-7.93-.77-11.5-2.3a26.96 26.96 0 0 1-9.4-6.75 32.32 32.32 0 0 1-6.37-10.92c-1.56-4.32-2.33-9.26-2.33-14.82 0-5.52.7-10.42 2.1-14.72a30.9 30.9 0 0 1 5.99-10.88 25.6 25.6 0 0 1 9.2-6.74 29.32 29.32 0 0 1 11.77-2.31c2.71 0 5.08.2 7.1.6 2.02.4 3.78.88 5.29 1.45 1.5.57 2.81 1.2 3.91 1.86l3.03 1.86c.92.58 1.79 1.06 2.6 1.46.82.4 1.7.6 2.61.6a5.3 5.3 0 0 0 3.23-.86c.76-.57 1.43-1.2 1.99-1.9l8.74-11.4a47.98 47.98 0 0 0-16.1-10.4 59.25 59.25 0 0 0-10.4-2.98 62.14 62.14 0 0 0-11.84-1.08c-8.24 0-15.78 1.37-22.63 4.1a51.58 51.58 0 0 0-17.64 11.47 51.65 51.65 0 0 0-11.43 17.55 59.59 59.59 0 0 0-4.06 22.32c0 7.94 1.25 15.3 3.76 22.09a50.89 50.89 0 0 0 10.77 17.58 49.39 49.39 0 0 0 17.1 11.62c6.73 2.81 14.33 4.21 22.82 4.21 9.26 0 17.27-1.45 24.05-4.36a42.5 42.5 0 0 0 16.9-12.92l-10.27-10.5a5.03 5.03 0 0 0-3.6-1.5zM717.14 8709h-94.1v108.56h26.07v-89.85h41.95v89.85h26.08zm72.78 67.06l10.27-29.58a118.68 118.68 0 0 0 4.91-15.12c.87 2.98 1.74 5.75 2.61 8.3.87 2.56 1.69 4.79 2.45 6.67l10.36 29.73zm28.53-67.06H791.9l-43.25 108.56h20.24c2.15 0 3.95-.56 5.41-1.68a9.1 9.1 0 0 0 3.03-3.76l6.6-18.92h42.48l6.6 18.92a9.74 9.74 0 0 0 3.14 3.91c1.38 1.02 3.2 1.53 5.45 1.53h20.1zm146.71 80.47c-.76 0-1.5.16-2.22.49-.72.32-1.38.73-2 1.23a29.89 29.89 0 0 1-4.52 3.31 22.51 22.51 0 0 1-4.76 2.09c-1.68.52-3.5.9-5.44 1.12-1.94.22-4.1.33-6.44.33-4.1 0-7.93-.77-11.5-2.3a26.96 26.96 0 0 1-9.4-6.75 32.32 32.32 0 0 1-6.37-10.92c-1.56-4.32-2.34-9.26-2.34-14.82 0-5.52.7-10.42 2.11-14.72a30.9 30.9 0 0 1 5.98-10.88 25.6 25.6 0 0 1 9.2-6.74 29.32 29.32 0 0 1 11.78-2.31c2.7 0 5.07.2 7.1.6 2.01.4 3.78.88 5.29 1.45 1.5.57 2.8 1.2 3.9 1.86l3.04 1.86c.92.58 1.79 1.06 2.6 1.46.82.4 1.7.6 2.61.6a5.3 5.3 0 0 0 3.22-.86c.77-.57 1.43-1.2 2-1.9l8.74-11.4a47.98 47.98 0 0 0-16.1-10.4 59.25 59.25 0 0 0-10.4-2.98 62.14 62.14 0 0 0-11.85-1.08c-8.23 0-15.77 1.37-22.62 4.1a51.58 51.58 0 0 0-17.64 11.47 51.65 51.65 0 0 0-11.43 17.55 59.59 59.59 0 0 0-4.06 22.32c0 7.94 1.25 15.3 3.75 22.09a50.9 50.9 0 0 0 10.78 17.58 49.39 49.39 0 0 0 17.1 11.62c6.73 2.81 14.33 4.21 22.82 4.21 9.25 0 17.27-1.45 24.04-4.36a42.5 42.5 0 0 0 16.91-12.92l-10.27-10.5a5.03 5.03 0 0 0-3.6-1.5zM1091.4 8709c-1.23 0-2.4.23-3.53.67a13.86 13.86 0 0 0-3.14 1.76c-.98.72-1.86 1.52-2.65 2.42-.8.9-1.47 1.79-2.03 2.68l-33.98 56.4a85.35 85.35 0 0 0-7.9 15.87c.56-3.57.92-6.94 1.08-10.1.15-3.15.23-6.14.23-8.97V8709h-26.08v108.56h19.56c1.22 0 2.4-.22 3.53-.67a13.84 13.84 0 0 0 3.14-1.75c.97-.72 1.85-1.53 2.65-2.42.79-.9 1.46-1.79 2.03-2.68l33.97-56.4a82.33 82.33 0 0 0 7.9-15.94c-.5 3.57-.85 6.93-1.03 10.09-.18 3.15-.27 6.14-.27 8.97v60.8h26.08V8709zm90.11 89.56v-27.12h15.03c3.43 0 6.24.34 8.44 1 2.2.68 3.92 1.62 5.18 2.84a9.44 9.44 0 0 1 2.57 4.36c.46 1.69.69 3.52.69 5.51 0 1.74-.23 3.4-.7 5a10 10 0 0 1-2.56 4.28 13.04 13.04 0 0 1-5.18 3.01c-2.2.75-5.01 1.12-8.44 1.12zm0-46.12v-24.59h53.23V8709h-79.15v108.56h40.95c6.7 0 12.68-.84 17.95-2.53a38.91 38.91 0 0 0 13.35-7.12 30.47 30.47 0 0 0 8.32-11.02 34.62 34.62 0 0 0 2.87-14.27c0-4.03-.76-7.86-2.3-11.51a24.73 24.73 0 0 0-7.36-9.62c-3.38-2.75-7.76-4.95-13.15-6.59-5.4-1.64-11.96-2.46-19.68-2.46zm204.7 10.8c0-7.8-1.4-15.07-4.18-21.82a52.28 52.28 0 0 0-11.78-17.59 54.92 54.92 0 0 0-18.29-11.73c-7.13-2.86-15.04-4.29-23.73-4.29-8.7 0-16.62 1.42-23.78 4.25a54.76 54.76 0 0 0-18.37 11.7 51.99 51.99 0 0 0-11.8 17.58 56.87 56.87 0 0 0-4.19 21.9c0 7.85 1.4 15.16 4.18 21.91a52.36 52.36 0 0 0 11.81 17.62c5.09 5 11.21 8.9 18.37 11.74 7.16 2.83 15.08 4.24 23.78 4.24 8.69 0 16.6-1.41 23.73-4.24a54.13 54.13 0 0 0 18.3-11.74c5.06-4.99 8.98-10.86 11.77-17.62a56.88 56.88 0 0 0 4.18-21.9zm-28.69 14.57a30.45 30.45 0 0 1-6.17 10.92 26.26 26.26 0 0 1-9.86 6.81 35.29 35.29 0 0 1-13.26 2.35 35.8 35.8 0 0 1-13.39-2.35 26.2 26.2 0 0 1-9.9-6.81 30.43 30.43 0 0 1-6.16-10.92 45.94 45.94 0 0 1-2.15-14.56c0-5.37.71-10.2 2.15-14.5a30.45 30.45 0 0 1 6.17-10.91 26.56 26.56 0 0 1 9.9-6.86 35.31 35.31 0 0 1 13.38-2.38c4.95 0 9.38.8 13.26 2.38a26.63 26.63 0 0 1 9.86 6.86 30.47 30.47 0 0 1 6.17 10.91 45.72 45.72 0 0 1 2.15 14.5c0 5.41-.72 10.27-2.15 14.56z"/><mask id="o3zbd" width="2" height="2" x="-1" y="-1"><path fill="#fff" d="M493 8707h894v112H493z"/><use xlink:href="#o3zba"/></mask><filter id="o3zbc" width="928" height="146" x="476" y="8690" filterUnits="userSpaceOnUse"><feOffset in="SourceGraphic" result="FeOffset1023Out"/><feGaussianBlur in="FeOffset1023Out" result="FeGaussianBlur1024Out" stdDeviation="2.8 2.8"/></filter><clipPath id="o3zbe"><use fill="#fff" xlink:href="#o3zbb"/></clipPath></defs><g><g transform="translate(-492 -8706)"><g filter="url(#o3zbc)"><use fill="none" stroke-opacity=".12" stroke-width="0" mask="url(&quot;#o3zbd&quot;)" xlink:href="#o3zba"/><use fill="#121a32" fill-opacity=".12" xlink:href="#o3zba"/></g><use fill="#fff" xlink:href="#o3zba"/><use fill="#fff" fill-opacity="0" stroke="#fff" stroke-linecap="round" stroke-linejoin="round" stroke-miterlimit="50" stroke-width="4" clip-path="url(&quot;#o3zbe&quot;)" xlink:href="#o3zba"/></g></g></svg>