<svg xmlns="http://www.w3.org/2000/svg" xmlns:xlink="http://www.w3.org/1999/xlink" width="377" height="32" viewBox="0 0 377 32"><defs><path id="i4l5a" d="M552.87 3266.61c.3 0 .55.1.77.32.21.22.32.47.32.78v19.68c0 .3-.1.56-.32.78-.22.21-.47.32-.77.32-.3 0-.56-.11-.78-.32a1.05 1.05 0 0 1-.32-.78v-18.59h-10.94v18.6c0 .3-.1.55-.32.77-.21.21-.47.32-.77.32-.3 0-.56-.11-.77-.32a1.05 1.05 0 0 1-.33-.78v-19.68c0-.3.11-.56.33-.78.21-.21.47-.32.77-.32zm19.3 14.22c0 2.12-.76 3.92-2.25 5.41a7.38 7.38 0 0 1-5.42 2.25 7.38 7.38 0 0 1-5.41-2.25 7.38 7.38 0 0 1-2.24-5.4c0-2.12.74-3.93 2.24-5.42a7.38 7.38 0 0 1 5.41-2.25c2.12 0 3.92.75 5.42 2.25a7.38 7.38 0 0 1 2.24 5.41zm-7.67-5.47c-1.5 0-2.8.54-3.86 1.6a5.27 5.27 0 0 0-1.6 3.87c0 1.51.53 2.8 1.6 3.87a5.27 5.27 0 0 0 3.86 1.6c1.52 0 2.8-.53 3.87-1.6a5.27 5.27 0 0 0 1.6-3.87c0-1.51-.53-2.8-1.6-3.87a5.27 5.27 0 0 0-3.87-1.6zm10.55-1.1c0-.3.1-.55.32-.76.22-.22.47-.33.77-.33.3 0 .56.11.78.33.21.21.32.47.32.77v3.28c0 1.06.37 1.96 1.12 2.7a3.69 3.69 0 0 0 2.7 1.13c1.06 0 1.97-.38 2.71-1.12a3.67 3.67 0 0 0 1.13-2.7v-3.3c0-.3.1-.55.32-.76.21-.22.47-.33.77-.33.3 0 .56.11.77.33.22.21.32.47.32.77v13.12c0 .3-.1.56-.32.78-.21.21-.47.32-.77.32-.3 0-.56-.11-.77-.32a1.05 1.05 0 0 1-.32-.78v-5.2a5.73 5.73 0 0 1-3.83 1.38 5.8 5.8 0 0 1-4.26-1.77 5.8 5.8 0 0 1-1.76-4.25zm27.95 5.48a5.26 5.26 0 0 0-1.5-2.78 5.27 5.27 0 0 0-3.87-1.6c-1.52 0-2.8.54-3.87 1.6-.8.8-1.3 1.73-1.5 2.78zm-1.84 5.26c.2-.15.42-.23.68-.23.3 0 .56.1.77.32.22.21.32.47.32.77 0 .3-.1.56-.31.78a7.36 7.36 0 0 1-5 1.85 7.38 7.38 0 0 1-5.4-2.25 7.38 7.38 0 0 1-2.25-5.4c0-2.12.75-3.93 2.24-5.42a7.38 7.38 0 0 1 5.42-2.25c2.11 0 3.92.75 5.41 2.25a7.38 7.38 0 0 1 2.25 5.41c0 .3-.11.56-.33.77-.21.22-.47.32-.77.32h-11.94c.2 1.05.7 1.98 1.5 2.78a5.27 5.27 0 0 0 3.88 1.6c1.37 0 2.54-.43 3.53-1.3zm12.48-7.26l-3.37 10.13c-.06.11-.13.22-.22.32-.22.2-.48.31-.78.31-.3 0-.56-.1-.78-.32a1.05 1.05 0 0 1-.32-.77c0-.15.03-.29.09-.43l4.36-13.1c.05-.13.14-.26.26-.4.2-.2.46-.3.76-.3s.56.1.78.3c.11.14.2.27.25.4l3.35 10.07 3.35-10.06a1.07 1.07 0 0 1 1.03-.7c.3 0 .56.1.77.3.11.13.2.26.25.4l4.36 13.1c.06.13.08.27.08.42 0 .3-.1.56-.32.77-.21.21-.47.32-.77.32-.3 0-.56-.1-.77-.31-.1-.1-.17-.2-.23-.32l-3.38-10.13-3.3 9.94c-.06.2-.16.36-.3.5-.21.22-.47.32-.77.32-.3 0-.56-.1-.77-.31a1.36 1.36 0 0 1-.3-.5zm20.49 9.64l-5.25-12.6a1.06 1.06 0 0 1-.12-.51c0-.3.1-.56.32-.77.21-.22.47-.33.77-.33a1.09 1.09 0 0 1 1.04.73l4.43 10.62 4.43-10.62c.05-.15.15-.28.27-.41.21-.21.47-.32.77-.32.3 0 .56.11.77.33.22.21.32.47.32.77 0 .18-.04.35-.12.5l-8.15 19.55c-.05.15-.14.28-.26.4-.22.22-.48.33-.78.33-.3 0-.56-.1-.77-.32a1.05 1.05 0 0 1-.32-.77c0-.19.04-.36.12-.51zm34.86-6.55c0 2.12-.75 3.92-2.24 5.41a7.38 7.38 0 0 1-5.42 2.25 7.38 7.38 0 0 1-5.41-2.25 7.38 7.38 0 0 1-2.25-5.4c0-2.12.75-3.93 2.25-5.42a7.38 7.38 0 0 1 5.41-2.25c2.12 0 3.92.75 5.42 2.25a7.38 7.38 0 0 1 2.24 5.41zm-7.66-5.47c-1.51 0-2.8.54-3.87 1.6a5.27 5.27 0 0 0-1.6 3.87c0 1.51.54 2.8 1.6 3.87a5.27 5.27 0 0 0 3.87 1.6c1.52 0 2.8-.53 3.87-1.6a5.27 5.27 0 0 0 1.6-3.87c0-1.51-.53-2.8-1.6-3.87a5.27 5.27 0 0 0-3.87-1.6zm12.74 6.56v5.47c0 .3-.11.56-.33.78-.21.21-.47.32-.77.32-.3 0-.56-.11-.77-.32a1.05 1.05 0 0 1-.32-.78v-13.12c0-.3.1-.56.32-.77.21-.22.47-.33.77-.33.3 0 .56.11.77.33.22.21.33.47.33.77v5.47h8.2v-5.47c0-.3.1-.56.32-.77.22-.22.47-.33.77-.33.3 0 .56.11.78.33.21.21.32.47.32.77v13.12c0 .3-.11.56-.32.78-.22.21-.48.32-.78.32-.3 0-.55-.11-.77-.32a1.05 1.05 0 0 1-.32-.78v-5.47zm36.4 5.47c0 .3-.1.56-.32.78-.21.21-.47.32-.77.32-.3 0-.56-.11-.78-.32a1.05 1.05 0 0 1-.32-.78v-.89a6.83 6.83 0 0 1-4.92 1.99c-1.96 0-3.63-.7-5.02-2.09a6.85 6.85 0 0 1-2.09-5.02v-7.11c0-.3.1-.56.32-.77.22-.22.47-.33.77-.33.3 0 .56.11.78.33.21.21.32.47.32.77v7.1c0 1.37.48 2.53 1.44 3.49a4.74 4.74 0 0 0 3.48 1.44c1.36 0 2.52-.48 3.48-1.44a4.74 4.74 0 0 0 1.44-3.48v-7.11c0-.3.11-.56.32-.77.22-.22.48-.33.78-.33.3 0 .56.11.77.33.21.21.32.47.32.77zm14.11-2.43c.2-.15.42-.22.67-.22.3 0 .56.1.78.32.21.22.32.47.32.77 0 .3-.12.57-.34.81a7.36 7.36 0 0 1-5 1.85 7.38 7.38 0 0 1-5.4-2.25 7.38 7.38 0 0 1-2.25-5.4c0-2.12.75-3.93 2.24-5.42a7.38 7.38 0 0 1 5.42-2.25c1.91 0 3.57.62 4.99 1.85.25.23.38.51.38.85 0 .3-.1.56-.32.77-.22.21-.47.32-.77.32-.27 0-.5-.08-.7-.24a5.24 5.24 0 0 0-3.58-1.36c-1.52 0-2.8.54-3.87 1.6a5.27 5.27 0 0 0-1.6 3.87c0 1.51.53 2.8 1.6 3.87a5.27 5.27 0 0 0 3.87 1.6c1.36 0 2.55-.45 3.56-1.34zm4.8-10.7c0-.3.1-.55.31-.76.22-.22.48-.33.78-.33.3 0 .56.11.77.33.21.21.32.47.32.77v.89a6.83 6.83 0 0 1 4.92-1.99c1.96 0 3.64.7 5.03 2.09a6.85 6.85 0 0 1 2.08 5.02v7.11c0 .3-.1.56-.32.78-.21.21-.47.32-.77.32-.3 0-.56-.11-.77-.32a1.05 1.05 0 0 1-.32-.78v-7.1c0-1.36-.48-2.52-1.45-3.49a4.74 4.74 0 0 0-3.48-1.44c-1.35 0-2.51.48-3.48 1.44a4.74 4.74 0 0 0-1.44 3.48v7.11c0 .3-.1.56-.32.78-.21.21-.47.32-.77.32-.3 0-.56-.11-.78-.32a1.05 1.05 0 0 1-.32-.78zm32.42 6.57c0 2.12-.75 3.92-2.25 5.41a7.38 7.38 0 0 1-5.41 2.25 7.38 7.38 0 0 1-5.42-2.25 7.38 7.38 0 0 1-2.24-5.4c0-2.12.75-3.93 2.24-5.42a7.38 7.38 0 0 1 5.42-2.25c2.11 0 3.92.75 5.41 2.25a7.38 7.38 0 0 1 2.25 5.41zm-7.66-5.47c-1.51 0-2.8.54-3.87 1.6a5.27 5.27 0 0 0-1.6 3.87c0 1.51.53 2.8 1.6 3.87a5.27 5.27 0 0 0 3.87 1.6c1.51 0 2.8-.53 3.87-1.6a5.27 5.27 0 0 0 1.6-3.87c0-1.51-.53-2.8-1.6-3.87a5.27 5.27 0 0 0-3.87-1.6zm24.68 11.64a1.05 1.05 0 0 1-.24 1.2c-.21.2-.47.31-.77.31-.3 0-.55-.1-.76-.31a1.04 1.04 0 0 1-.22-.29l-5.03-10.99-5.04 11c-.06.11-.13.2-.2.28-.22.21-.48.31-.78.31-.3 0-.56-.1-.77-.32a1.05 1.05 0 0 1-.33-.77c0-.15.03-.3.09-.42l6.07-13.22c.05-.12.11-.2.18-.26.2-.21.46-.32.78-.32.31 0 .57.1.77.3.07.07.13.16.18.28zm10.08-.7c.6 0 1.12-.21 1.55-.64.43-.43.64-.95.64-1.55 0-.6-.21-1.11-.64-1.54a2.1 2.1 0 0 0-1.55-.65h-4.92v4.38zm-4.92-12.03v5.47h4.92c1.22 0 2.25.42 3.1 1.28a4.22 4.22 0 0 1 1.28 3.1c0 1.2-.43 2.24-1.28 3.09a4.22 4.22 0 0 1-3.1 1.28h-6.01c-.3 0-.56-.11-.78-.32a1.05 1.05 0 0 1-.32-.78v-13.15c.01-.3.12-.54.33-.75.21-.21.47-.32.77-.32.3 0 .56.11.77.33.21.21.32.47.32.77zm13.7 10.18c.38 0 .68.15.9.45.3.38.55.63.75.76.63.43 1.4.64 2.3.64.91 0 1.68-.24 2.32-.71.65-.48.97-1.01.97-1.61 0-.7-.32-1.3-.97-1.82a3.57 3.57 0 0 0-2.31-.78c-.3 0-.56-.1-.78-.32a1.05 1.05 0 0 1-.32-.78c0-.3.11-.55.32-.77.22-.21.48-.32.78-.32.9 0 1.67-.17 2.31-.5.65-.34.97-.77.97-1.28 0-.6-.32-1.1-.97-1.47a4.45 4.45 0 0 0-2.31-.58c-.9 0-1.68.22-2.31.64-.3.22-.55.46-.73.73a1.15 1.15 0 0 1-.94.53c-.3 0-.56-.1-.77-.32a1.05 1.05 0 0 1-.33-.77c0-.22.06-.42.17-.59.25-.4.6-.78 1.04-1.13a6.03 6.03 0 0 1 3.87-1.28c1.51 0 2.8.4 3.87 1.21 1.06.81 1.6 1.82 1.6 3.03 0 1.22-.62 2.17-1.85 2.87a4.78 4.78 0 0 1 1.85 3.7c0 1.2-.54 2.26-1.6 3.16a5.8 5.8 0 0 1-3.87 1.35c-1.52 0-2.8-.43-3.87-1.29-.4-.3-.71-.64-.96-1-.15-.19-.22-.4-.22-.65 0-.3.1-.56.32-.78.22-.2.47-.32.78-.32zm17.69 2.93l-5.25-12.6a1.06 1.06 0 0 1-.13-.51c0-.3.11-.56.33-.77.21-.22.47-.33.77-.33a1.09 1.09 0 0 1 1.04.73l4.43 10.62 4.43-10.62c.05-.15.14-.28.27-.41.21-.21.47-.32.77-.32.3 0 .56.11.77.33.21.21.32.47.32.77 0 .18-.04.35-.12.5l-8.15 19.55c-.06.15-.14.28-.26.4-.22.22-.48.33-.78.33-.3 0-.56-.1-.77-.32a1.05 1.05 0 0 1-.32-.77c0-.19.04-.36.12-.51zm23.67-7.64a5.26 5.26 0 0 0-1.5-2.78 5.27 5.27 0 0 0-3.87-1.6c-1.52 0-2.8.54-3.87 1.6-.8.8-1.3 1.73-1.5 2.78zm-1.85 5.26c.2-.15.43-.23.69-.23.3 0 .56.1.77.32.22.21.32.47.32.77 0 .3-.1.56-.31.78a7.36 7.36 0 0 1-5 1.85 7.38 7.38 0 0 1-5.4-2.25 7.38 7.38 0 0 1-2.25-5.4c0-2.12.75-3.93 2.24-5.42a7.38 7.38 0 0 1 5.42-2.25c2.11 0 3.92.75 5.41 2.25a7.38 7.38 0 0 1 2.24 5.41c0 .3-.1.56-.32.77-.21.22-.47.32-.77.32h-11.94c.2 1.05.7 1.98 1.5 2.78a5.27 5.27 0 0 0 3.88 1.6c1.36 0 2.54-.43 3.52-1.3zm9.21 2.4c0 .3-.1.55-.32.77-.22.21-.47.32-.77.32-.3 0-.56-.11-.78-.32a1.05 1.05 0 0 1-.32-.78v-13.12c0-.3.1-.56.32-.77.22-.22.48-.33.78-.33.3 0 .55.11.77.33.21.21.32.47.32.77v.29a5.73 5.73 0 0 1 3.83-1.39 5.8 5.8 0 0 1 4.25 1.77c.25.24.47.5.67.78.2-.28.43-.54.67-.78a5.8 5.8 0 0 1 4.25-1.77 5.8 5.8 0 0 1 4.26 1.77 5.8 5.8 0 0 1 1.76 4.25v8.2c0 .3-.1.56-.32.78-.22.21-.47.32-.77.32-.3 0-.56-.11-.78-.32a1.05 1.05 0 0 1-.32-.78v-8.2c0-1.06-.37-1.96-1.12-2.7a3.69 3.69 0 0 0-2.7-1.13c-1.06 0-1.97.38-2.71 1.12a3.69 3.69 0 0 0-1.12 2.71v8.2c0 .3-.11.56-.33.78-.21.21-.47.32-.77.32-.3 0-.56-.11-.77-.32a1.05 1.05 0 0 1-.32-.78v-8.2c0-1.06-.38-1.96-1.12-2.7a3.69 3.69 0 0 0-2.71-1.13c-1.06 0-1.96.38-2.7 1.12a3.69 3.69 0 0 0-1.13 2.71zm33.8-2.44c.2-.15.42-.22.67-.22.3 0 .56.1.78.32.21.22.32.47.32.77 0 .3-.12.57-.34.81a7.36 7.36 0 0 1-5 1.85 7.38 7.38 0 0 1-5.4-2.25 7.38 7.38 0 0 1-2.25-5.4c0-2.12.75-3.93 2.24-5.42a7.38 7.38 0 0 1 5.42-2.25c1.91 0 3.57.62 4.99 1.85.25.23.38.51.38.85 0 .3-.1.56-.32.77-.22.21-.47.32-.77.32-.27 0-.5-.08-.7-.24a5.24 5.24 0 0 0-3.58-1.36c-1.52 0-2.8.54-3.87 1.6a5.27 5.27 0 0 0-1.6 3.87c0 1.51.53 2.8 1.6 3.87a5.27 5.27 0 0 0 3.87 1.6c1.36 0 2.55-.45 3.56-1.34zm14.1-5.22v-4.38h-4.38c-.6 0-1.12.22-1.55.64a2.1 2.1 0 0 0-.64 1.55c0 .6.21 1.12.64 1.54.43.43.94.65 1.55.65zm1.09-6.57c.3 0 .55.11.77.33.21.21.32.47.32.77v13.12c0 .3-.1.56-.32.78-.22.21-.47.32-.77.32-.3 0-.56-.11-.78-.32a1.05 1.05 0 0 1-.32-.78v-5.47h-3.28c-.6 0-1.12.22-1.55.65-.17.17-.3.36-.4.56l-2.5 4.67c-.06.14-.14.26-.24.36-.22.22-.48.33-.78.33-.3 0-.56-.11-.77-.32a1.05 1.05 0 0 1-.32-.78c0-.22.06-.43.17-.6l2.5-4.7c.14-.27.32-.53.53-.78-.3-.18-.57-.4-.82-.67a4.18 4.18 0 0 1-1.29-3.09c0-1.21.43-2.24 1.28-3.1a4.22 4.22 0 0 1 3.1-1.28zm6.16 0c0 .3-.1.56-.32.78-.21.21-.47.32-.77.32-.3 0-.56-.1-.77-.32a1.05 1.05 0 0 1-.32-.78c0-1.8.64-3.36 1.92-4.64a6.33 6.33 0 0 1 4.64-1.92c1.81 0 3.36.64 4.64 1.92a6.32 6.32 0 0 1 1.92 4.64c0 1.82-.64 3.37-1.92 4.65l-2.26 2.1a4.23 4.23 0 0 0-1.29 3.1c0 .3-.1.56-.32.77-.21.22-.47.32-.77.32-.3 0-.56-.1-.77-.32a1.05 1.05 0 0 1-.32-.77c0-1.82.64-3.36 1.92-4.65l2.26-2.1a4.23 4.23 0 0 0 1.29-3.1c0-1.2-.43-2.24-1.28-3.1a4.22 4.22 0 0 0-3.1-1.27c-1.21 0-2.24.43-3.1 1.28a4.22 4.22 0 0 0-1.28 3.1zm6.02 13.68c0 .45-.16.84-.48 1.16-.32.32-.7.48-1.16.48-.46 0-.84-.16-1.16-.48-.32-.32-.48-.7-.48-1.16 0-.46.16-.85.48-1.17.32-.31.7-.47 1.16-.47.46 0 .84.16 1.16.47.32.32.48.71.48 1.17z"/></defs><g><g transform="translate(-537 -3265)"><use fill="#666" xlink:href="#i4l5a"/></g></g></svg>