<svg xmlns="http://www.w3.org/2000/svg" xmlns:xlink="http://www.w3.org/1999/xlink" width="454" height="51" viewBox="0 0 454 51"><defs><path id="gq81a" d="M556.54 3082.63a7.41 7.41 0 0 0-5.44-2.25c-.4 0-.75-.14-1.03-.42a1.4 1.4 0 0 1-.43-1.03c0-.4.14-.75.43-1.03a1.4 1.4 0 0 1 1.03-.43c1.87 0 3.46-.65 4.76-1.96a6.48 6.48 0 0 0 1.96-4.76c0-1.83-.65-3.42-1.96-4.76a6.48 6.48 0 0 0-4.76-1.97c-1.86 0-3.45.66-4.76 1.97a6.48 6.48 0 0 0-1.97 4.76c0 .4-.14.75-.42 1.03a1.4 1.4 0 0 1-1.03.42 1.42 1.42 0 0 1-1.43-1.45c0-2.66.93-4.92 2.8-6.8a9.26 9.26 0 0 1 6.8-2.81c2.66 0 4.93.94 6.8 2.81a9.26 9.26 0 0 1 2.82 6.8c0 2.67-.94 4.94-2.82 6.82-.43.42-.94.84-1.52 1.26.83.5 1.57 1.08 2.23 1.74a10.3 10.3 0 0 1 3.07 7.5c0 2.94-1.03 5.44-3.1 7.5a10.18 10.18 0 0 1-7.47 3.07 10.3 10.3 0 0 1-7.5-3.07 10.3 10.3 0 0 1-3.07-7.5 1.42 1.42 0 0 1 1.43-1.46c.4 0 .75.15 1.03.43s.42.62.42 1.03c0 2.1.75 3.92 2.25 5.44a7.46 7.46 0 0 0 5.44 2.25c2.1 0 3.9-.75 5.44-2.25a7.46 7.46 0 0 0 2.25-5.44c0-2.1-.75-3.9-2.25-5.44zm29.55-4.36a9.88 9.88 0 0 0-7.22-2.98c-2.8 0-5.21 1-7.22 2.98-2 2-3 4.4-3 7.22 0 2.8 1 5.2 3 7.2s4.41 3 7.22 3c2.82 0 5.22-1 7.22-3a9.8 9.8 0 0 0 2.98-7.2c0-2.83-1-5.23-2.98-7.22zm2.98 15.56c-2.86 3.16-6.26 4.74-10.2 4.74-3.62 0-6.72-1.28-9.28-3.82a12.62 12.62 0 0 1-3.84-9.26c0-3.62 1.28-6.71 3.84-9.26a12.65 12.65 0 0 1 9.28-3.84c3.63 0 6.72 1.28 9.29 3.84a12.57 12.57 0 0 1 3.84 9.26v13.27c0 2.68-.98 5.02-2.93 7a13.6 13.6 0 0 1-9.98 4.13c-3.91 0-7.23-1.38-9.97-4.13a13 13 0 0 1-2.46-3.16c-.17-.3-.26-.59-.26-.87 0-.4.14-.75.43-1.03a1.4 1.4 0 0 1 1.03-.42c.4 0 .76.15 1.05.44.13.11.24.26.33.45a11.88 11.88 0 0 0 5.57 5c1.32.54 2.74.81 4.28.81 3.09 0 5.73-1.1 7.92-3.28 1.37-1.66 2.06-3.3 2.06-4.94zm29.1-17.6a12.65 12.65 0 0 1 3.84 9.28c0 3.63-1.29 6.72-3.85 9.28a12.65 12.65 0 0 1-9.28 3.85c-3.63 0-6.72-1.28-9.28-3.85a12.64 12.64 0 0 1-3.85-9.28c0-3.62 1.28-6.72 3.85-9.28a12.65 12.65 0 0 1 9.28-3.84c3.62 0 6.72 1.28 9.28 3.84zm-2.07 2.06c-2-2-4.4-3-7.22-3-2.81 0-5.22 1-7.22 3s-3 4.41-3 7.22c0 2.82 1 5.22 3 7.22s4.4 3 7.22 3c2.81 0 5.22-1 7.22-3a9.83 9.83 0 0 0 2.98-7.22c0-2.82-1-5.23-2.98-7.22zm15.56 0c-2 2-3 4.41-3 7.22 0 2.82 1 5.22 3 7.22s4.41 3 7.22 3c2.82 0 5.22-1 7.22-3a9.83 9.83 0 0 0 2.98-7.22c0-2.82-1-5.23-2.98-7.22-2-2-4.4-3-7.22-3-2.8 0-5.22 1-7.22 3zm-3 30.15c0 .4-.14.75-.42 1.03a1.4 1.4 0 0 1-1.03.42c-.4 0-.75-.14-1.03-.42a1.4 1.4 0 0 1-.42-1.03v-22.93c0-3.62 1.28-6.72 3.84-9.28a12.65 12.65 0 0 1 9.28-3.84c3.63 0 6.72 1.28 9.29 3.84a12.65 12.65 0 0 1 3.84 9.28c0 3.63-1.28 6.72-3.84 9.28a12.65 12.65 0 0 1-9.29 3.85c-3.62 0-6.72-1.28-9.28-3.85l-.94-.9zm49.51-32.2a12.65 12.65 0 0 1 3.84 9.27c0 3.63-1.28 6.72-3.84 9.28a12.65 12.65 0 0 1-9.28 3.85c-3.63 0-6.72-1.28-9.28-3.85a12.64 12.64 0 0 1-3.85-9.28c0-3.62 1.28-6.72 3.85-9.28a12.65 12.65 0 0 1 9.28-3.84c3.62 0 6.72 1.28 9.28 3.84zm-2.06 2.05c-2-2-4.4-3-7.22-3-2.81 0-5.22 1-7.22 3s-3 4.41-3 7.22c0 2.82 1 5.22 3 7.22s4.4 3 7.22 3c2.81 0 5.22-1 7.22-3a9.83 9.83 0 0 0 2.97-7.22c0-2.82-.99-5.23-2.97-7.22zm20.88 5.77c1.2 0 2.24-.43 3.1-1.29a4.32 4.32 0 0 0 0-6.19 4.22 4.22 0 0 0-3.1-1.29h-8.25v8.77zm1.95 11.67c1.17 0 2.2-.43 3.1-1.29a4.32 4.32 0 0 0 0-6.18 4.32 4.32 0 0 0-3.1-1.3h-10.2v8.77zm-1.95-23.34c2.03 0 3.75.71 5.16 2.13a6.98 6.98 0 0 1 2.13 5.16c0 .92-.17 1.8-.51 2.65a9.25 9.25 0 0 1-1.53 2.46 7.31 7.31 0 0 1 3.99 6.56c0 2.03-.71 3.76-2.13 5.18a7.02 7.02 0 0 1-5.16 2.1h-11.67c-.41 0-.75-.13-1.04-.41a1.4 1.4 0 0 1-.42-1.03v-23.35c0-.4.14-.75.42-1.03a1.4 1.4 0 0 1 1.04-.42zm35.56 3.84a12.65 12.65 0 0 1 3.85 9.28c0 3.63-1.28 6.72-3.85 9.28a12.65 12.65 0 0 1-9.28 3.85c-3.62 0-6.72-1.28-9.28-3.85a12.64 12.64 0 0 1-3.85-9.28c0-3.62 1.29-6.72 3.85-9.28a12.65 12.65 0 0 1 9.28-3.84c3.63 0 6.72 1.28 9.28 3.84zm-2.06 2.06c-2-2-4.4-3-7.22-3-2.81 0-5.22 1-7.22 3s-3 4.41-3 7.22c0 2.82 1 5.22 3 7.22s4.4 3 7.22 3c2.81 0 5.22-1 7.22-3a9.83 9.83 0 0 0 2.98-7.22c0-2.82-1-5.23-2.98-7.22zm32.94 5.77a10.73 10.73 0 0 0-2.93-5.77c-2-2-4.41-3-7.22-3-2.82 0-5.22 1-7.22 3a10.97 10.97 0 0 0-2.96 5.77zm-3.6 9.26c.27-.22.58-.33.92-.33.4 0 .75.14 1.03.43.29.3.43.64.43 1.05 0 .4-.13.74-.38 1a12.67 12.67 0 0 1-8.55 3.17c-3.63 0-6.72-1.28-9.29-3.85a12.65 12.65 0 0 1-3.84-9.28c0-3.62 1.28-6.72 3.84-9.28a12.65 12.65 0 0 1 9.29-3.84c3.62 0 6.71 1.28 9.28 3.84a12.65 12.65 0 0 1 3.84 9.28c0 .41-.14.75-.42 1.03a1.4 1.4 0 0 1-1.03.43H743.1a10.97 10.97 0 0 0 2.96 5.76c2 2 4.4 3 7.22 3 1.28 0 2.46-.2 3.56-.62a9.97 9.97 0 0 0 3-1.8zm24.41-19.48c0-.4.14-.75.42-1.03a1.4 1.4 0 0 1 1.03-.42c.41 0 .75.14 1.04.42.28.28.42.63.42 1.03v2.72c2.87-2.78 5.95-4.17 9.23-4.17a11.6 11.6 0 0 1 8.58 3.56 11.68 11.68 0 0 1 3.59 8.6v12.64a1.44 1.44 0 0 1-1.48 1.45c-.4 0-.75-.14-1.03-.42a1.4 1.4 0 0 1-.42-1.03v-12.64c0-2.58-.9-4.75-2.72-6.51a8.85 8.85 0 0 0-6.52-2.75c-2.53 0-4.7.92-6.54 2.75a8.83 8.83 0 0 0-2.7 6.51v12.64c0 .4-.13.75-.41 1.03a1.4 1.4 0 0 1-1.04.42c-.4 0-.75-.14-1.03-.42a1.4 1.4 0 0 1-.42-1.03zm52.44 23.35c0 .4-.15.75-.44 1.03-.28.28-.63.42-1.04.42-.4 0-.75-.14-1.03-.42a1.4 1.4 0 0 1-.42-1.03v-2.72c-2.88 2.78-5.96 4.17-9.24 4.17-3.33 0-6.2-1.18-8.6-3.54a11.79 11.79 0 0 1-3.54-8.63v-12.63c0-.4.14-.75.42-1.03a1.4 1.4 0 0 1 1.03-.42c.4 0 .75.14 1.03.42.29.28.43.63.43 1.03v12.63c0 2.57.9 4.75 2.7 6.54a9.07 9.07 0 0 0 6.53 2.72c2.53 0 4.7-.9 6.52-2.72a8.86 8.86 0 0 0 2.72-6.54v-12.63c0-.4.14-.75.42-1.03a1.4 1.4 0 0 1 1.03-.42c.4 0 .76.14 1.04.42.3.28.44.63.44 1.03zm6.6 0c0 .4-.13.75-.41 1.03a1.4 1.4 0 0 1-1.03.42c-.41 0-.76-.14-1.05-.42a1.38 1.38 0 0 1-.43-1.03v-23.35c0-.4.14-.75.43-1.03.3-.28.64-.42 1.05-.42.4 0 .75.14 1.03.42.28.28.42.63.42 1.03v1.57c2.37-2.01 4.8-3.02 7.29-3.02 2.81 0 5.22 1 7.22 3 .48.5 1 1.1 1.52 1.83.53-.72 1.05-1.33 1.55-1.83 2-2 4.4-3 7.22-3 2.81 0 5.22 1 7.22 3a9.83 9.83 0 0 1 2.98 7.22v14.58c0 .4-.14.75-.43 1.03a1.4 1.4 0 0 1-1.03.42c-.4 0-.75-.14-1.03-.42a1.4 1.4 0 0 1-.42-1.03v-14.58c0-2.02-.72-3.74-2.16-5.16a7.01 7.01 0 0 0-5.13-2.16c-2 0-3.72.72-5.16 2.16a7.02 7.02 0 0 0-2.13 5.16v14.58a1.44 1.44 0 0 1-1.48 1.45c-.4 0-.75-.14-1.03-.42a1.4 1.4 0 0 1-.42-1.03v-14.58c0-2.02-.71-3.74-2.13-5.16a7.04 7.04 0 0 0-5.16-2.16c-2 0-3.72.72-5.16 2.16a7.02 7.02 0 0 0-2.13 5.16zm59.08-18.9c-2-2-4.4-3-7.22-3-2.81 0-5.22 1-7.22 3s-3 4.41-3 7.22c0 2.82 1 5.22 3 7.22s4.4 3 7.22 3c2.81 0 5.22-1 7.22-3a9.83 9.83 0 0 0 2.98-7.22c0-2.82-1-5.23-2.98-7.22zm2.98 15.6c-3.16 3.16-6.56 4.75-10.2 4.75-3.63 0-6.72-1.28-9.28-3.85a12.64 12.64 0 0 1-3.85-9.28c0-3.62 1.28-6.72 3.85-9.28a12.65 12.65 0 0 1 9.28-3.84c3.63 0 6.72 1.28 9.28 3.84a12.65 12.65 0 0 1 3.85 9.28v11.68c0 .4-.14.75-.43 1.03a1.4 1.4 0 0 1-1.03.42c-.4 0-.75-.14-1.04-.42a1.38 1.38 0 0 1-.43-1.03zm9.35-6.92v10.22c0 .4-.14.75-.42 1.03a1.4 1.4 0 0 1-1.03.42c-.41 0-.75-.14-1.03-.42a1.4 1.4 0 0 1-.43-1.03v-23.35c0-.4.14-.75.43-1.03a1.4 1.4 0 0 1 1.03-.42c.4 0 .75.14 1.03.42.28.28.42.63.42 1.03v10.22h15.56v-10.22c0-.4.15-.75.43-1.03a1.4 1.4 0 0 1 1.03-.42c.4 0 .75.14 1.03.42.28.28.42.63.42 1.03v23.35c0 .4-.14.75-.42 1.03a1.4 1.4 0 0 1-1.03.42c-.4 0-.75-.14-1.03-.42a1.4 1.4 0 0 1-.43-1.03v-10.22zm46.7 10.22c0 .4-.15.75-.44 1.03-.29.28-.64.42-1.04.42s-.75-.14-1.03-.42a1.4 1.4 0 0 1-.43-1.03v-2.72c-2.87 2.78-5.95 4.17-9.23 4.17-3.33 0-6.2-1.18-8.6-3.54a11.79 11.79 0 0 1-3.54-8.63v-12.63c0-.4.14-.75.42-1.03a1.4 1.4 0 0 1 1.03-.42c.4 0 .75.14 1.03.42.28.28.42.63.42 1.03v12.63c0 2.57.9 4.75 2.7 6.54a9.07 9.07 0 0 0 6.54 2.72c2.53 0 4.7-.9 6.51-2.72a8.86 8.86 0 0 0 2.72-6.54v-12.63c0-.4.14-.75.43-1.03a1.4 1.4 0 0 1 1.03-.42c.4 0 .75.14 1.04.42.29.28.43.63.43 1.03zm27.07-13.13a10.73 10.73 0 0 0-2.93-5.77c-2-2-4.4-3-7.22-3-2.81 0-5.22 1-7.22 3a10.97 10.97 0 0 0-2.95 5.77zm-3.59 9.26c.27-.22.57-.33.92-.33.4 0 .75.14 1.03.43.28.3.42.64.42 1.05 0 .4-.13.74-.38 1a12.67 12.67 0 0 1-8.55 3.17c-3.63 0-6.72-1.28-9.28-3.85a12.65 12.65 0 0 1-3.85-9.28c0-3.62 1.28-6.72 3.85-9.28a12.65 12.65 0 0 1 9.28-3.84c3.62 0 6.72 1.28 9.28 3.84a12.65 12.65 0 0 1 3.85 9.28c0 .41-.15.75-.43 1.03a1.4 1.4 0 0 1-1.03.43h-21.84a10.97 10.97 0 0 0 2.95 5.76c2 2 4.4 3 7.22 3 1.28 0 2.47-.2 3.56-.62a9.97 9.97 0 0 0 3-1.8z"/></defs><g><g transform="translate(-539 -3060)"><use fill="#666" xlink:href="#gq81a"/></g></g></svg>