<svg xmlns="http://www.w3.org/2000/svg" xmlns:xlink="http://www.w3.org/1999/xlink" width="386" height="88" viewBox="0 0 386 88"><defs><path id="pht2a" d="M567.1 2977.1a12.97 12.97 0 0 0-9.52-3.93c-.71 0-1.31-.25-1.8-.74-.5-.5-.75-1.1-.75-1.8 0-.71.25-1.32.74-1.8.5-.5 1.1-.75 1.8-.75 3.29 0 6.07-1.15 8.34-3.44 2.3-2.3 3.44-5.07 3.44-8.33 0-3.2-1.15-5.97-3.44-8.32a11.35 11.35 0 0 0-8.33-3.45c-3.26 0-6.03 1.15-8.33 3.45a11.34 11.34 0 0 0-3.44 8.32c0 .71-.25 1.31-.74 1.8-.5.5-1.1.74-1.8.74a2.49 2.49 0 0 1-2.5-2.54 16.2 16.2 0 0 1 4.91-11.9 16.2 16.2 0 0 1 11.9-4.92 16.2 16.2 0 0 1 11.9 4.93 16.2 16.2 0 0 1 4.92 11.9c0 4.67-1.64 8.65-4.93 11.93-.76.74-1.65 1.47-2.66 2.21a20.4 20.4 0 0 1 3.9 3.04 18.03 18.03 0 0 1 5.37 13.12c0 5.14-1.8 9.52-5.42 13.13a17.81 17.81 0 0 1-13.08 5.37c-5.12 0-9.5-1.8-13.13-5.37a18.03 18.03 0 0 1-5.37-13.13 2.5 2.5 0 0 1 2.5-2.54c.71 0 1.31.24 1.8.74.5.49.74 1.1.74 1.8 0 3.7 1.32 6.87 3.94 9.52a13.05 13.05 0 0 0 9.52 3.93c3.66 0 6.83-1.3 9.52-3.93a13.05 13.05 0 0 0 3.93-9.52c0-3.66-1.3-6.83-3.93-9.51zm51.72-7.62a17.3 17.3 0 0 0-12.63-5.21 17.3 17.3 0 0 0-12.64 5.2 17.22 17.22 0 0 0-5.25 12.64c0 4.9 1.75 9.1 5.25 12.6s7.72 5.24 12.64 5.24c4.92 0 9.13-1.75 12.63-5.25a17.15 17.15 0 0 0 5.21-12.59 17.2 17.2 0 0 0-5.2-12.63zm5.21 27.23c-5 5.53-10.95 8.29-17.84 8.29a22.2 22.2 0 0 1-16.25-6.69 22.08 22.08 0 0 1-6.72-16.2 22 22 0 0 1 6.72-16.2 22.14 22.14 0 0 1 16.25-6.73c6.34 0 11.76 2.24 16.24 6.73a22 22 0 0 1 6.73 16.2v23.21c0 4.7-1.7 8.8-5.13 12.27a23.8 23.8 0 0 1-17.47 7.22c-6.84 0-12.65-2.4-17.44-7.22a22.77 22.77 0 0 1-4.3-5.54 3.02 3.02 0 0 1-.45-1.52c0-.7.24-1.3.73-1.8.5-.5 1.1-.74 1.8-.74.72 0 1.34.26 1.85.78.22.2.42.45.58.78a20.78 20.78 0 0 0 3.4 4.47 19.2 19.2 0 0 0 6.34 4.29c2.31.94 4.8 1.41 7.49 1.41a18.9 18.9 0 0 0 13.86-5.74c2.41-2.9 3.61-5.78 3.61-8.65zm50.91-30.8a22.13 22.13 0 0 1 6.73 16.24c0 6.35-2.24 11.76-6.73 16.24a22.14 22.14 0 0 1-16.24 6.73 22.13 22.13 0 0 1-16.25-6.73 22.13 22.13 0 0 1-6.73-16.24c0-6.34 2.25-11.76 6.73-16.24a22.14 22.14 0 0 1 16.25-6.73c6.34 0 11.76 2.24 16.24 6.73zm-3.6 3.6a17.23 17.23 0 0 0-12.64-5.24c-4.93 0-9.14 1.75-12.64 5.25a17.22 17.22 0 0 0-5.25 12.63c0 4.92 1.75 9.13 5.25 12.63s7.71 5.25 12.64 5.25c4.92 0 9.13-1.75 12.63-5.25a17.2 17.2 0 0 0 5.21-12.63 17.2 17.2 0 0 0-5.2-12.63zm27.23 0a17.22 17.22 0 0 0-5.25 12.64c0 4.92 1.75 9.13 5.25 12.63s7.71 5.25 12.63 5.25c4.93 0 9.14-1.75 12.64-5.25a17.2 17.2 0 0 0 5.2-12.63 17.2 17.2 0 0 0-5.2-12.63 17.23 17.23 0 0 0-12.64-5.25c-4.92 0-9.13 1.75-12.63 5.25zm-5.25 52.75c0 .72-.25 1.32-.74 1.8-.5.5-1.1.75-1.8.75-.72 0-1.32-.25-1.8-.74-.5-.5-.75-1.1-.75-1.8v-40.12c0-6.34 2.24-11.76 6.73-16.24a22.14 22.14 0 0 1 16.24-6.73c6.35 0 11.76 2.24 16.25 6.73a22.13 22.13 0 0 1 6.73 16.24c0 6.35-2.25 11.76-6.73 16.24a22.14 22.14 0 0 1-16.25 6.73 22.13 22.13 0 0 1-16.24-6.73l-1.64-1.6zm86.64-56.35a22.13 22.13 0 0 1 6.72 16.24c0 6.35-2.24 11.76-6.72 16.24a22.14 22.14 0 0 1-16.25 6.73 22.13 22.13 0 0 1-16.24-6.73 22.13 22.13 0 0 1-6.73-16.24c0-6.34 2.24-11.76 6.73-16.24a22.14 22.14 0 0 1 16.24-6.73c6.35 0 11.76 2.24 16.25 6.73zm-3.61 3.6a17.23 17.23 0 0 0-12.64-5.24c-4.92 0-9.13 1.75-12.63 5.25a17.22 17.22 0 0 0-5.25 12.63c0 4.92 1.75 9.13 5.25 12.63s7.71 5.25 12.63 5.25c4.92 0 9.14-1.75 12.64-5.25a17.2 17.2 0 0 0 5.2-12.63 17.2 17.2 0 0 0-5.2-12.63zm36.55 10.1c2.1 0 3.9-.75 5.41-2.26a7.38 7.38 0 0 0 2.26-5.41c0-2.05-.75-3.86-2.26-5.42a7.39 7.39 0 0 0-5.41-2.25h-14.44v15.34zm3.4 20.42c2.05 0 3.86-.75 5.42-2.25a7.56 7.56 0 0 0 2.25-5.42c0-2.1-.75-3.9-2.25-5.41a7.57 7.57 0 0 0-5.42-2.26h-17.84v15.34zm-3.4-40.85c3.55 0 6.56 1.25 9.02 3.73a12.2 12.2 0 0 1 3.73 9.03c0 1.61-.3 3.16-.9 4.63a16.2 16.2 0 0 1-2.66 4.31c1.36.74 2.46 1.54 3.28 2.42a12.5 12.5 0 0 1 3.69 9.06c0 3.56-1.25 6.58-3.73 9.07a12.28 12.28 0 0 1-9.03 3.69h-20.43c-.7 0-1.3-.25-1.8-.74s-.74-1.1-.74-1.8v-40.85c0-.72.25-1.32.74-1.8.5-.5 1.1-.75 1.8-.75zm44.38 40.85c2.05 0 3.86-.75 5.42-2.25a7.56 7.56 0 0 0 2.25-5.42c0-2.1-.75-3.9-2.25-5.41a7.57 7.57 0 0 0-5.42-2.26h-16.16v15.34zm-16.16-20.42h16.16c3.56 0 6.57 1.24 9.03 3.73a12.2 12.2 0 0 1 3.73 9.02c0 3.56-1.24 6.58-3.73 9.07a12.28 12.28 0 0 1-9.03 3.69h-18.7c-.71 0-1.32-.25-1.83-.74-.5-.49-.76-1.1-.76-1.8v-40.94c.06-.68.32-1.25.78-1.72.5-.5 1.1-.74 1.8-.74.72 0 1.32.25 1.81.74.5.5.74 1.1.74 1.8zm76.55 0a18.78 18.78 0 0 0-5.13-10.1 17.23 17.23 0 0 0-12.64-5.24c-4.92 0-9.13 1.75-12.63 5.25a19.2 19.2 0 0 0-5.17 10.09zm-6.28 16.2c.46-.38 1-.57 1.6-.57.71 0 1.31.25 1.8.75.5.51.74 1.12.74 1.83s-.22 1.3-.65 1.76a22.17 22.17 0 0 1-14.98 5.54 22.13 22.13 0 0 1-16.24-6.73 22.13 22.13 0 0 1-6.73-16.24c0-6.34 2.24-11.76 6.73-16.24a22.14 22.14 0 0 1 16.24-6.73c6.35 0 11.76 2.24 16.25 6.73a22.13 22.13 0 0 1 6.73 16.24c0 .71-.25 1.31-.74 1.8-.5.5-1.1.74-1.8.74H882.1a19.2 19.2 0 0 0 5.17 10.1c3.5 3.5 7.71 5.24 12.63 5.24 2.25 0 4.32-.36 6.24-1.08a17.45 17.45 0 0 0 5.25-3.14z"/></defs><g><g transform="translate(-538 -2938)"><use fill="#666" xlink:href="#pht2a"/></g></g></svg>