<svg xmlns="http://www.w3.org/2000/svg" xmlns:xlink="http://www.w3.org/1999/xlink" width="785" height="64" viewBox="0 0 785 64"><defs><path id="muhja" d="M578.45 1399.77a9.22 9.22 0 0 0-6.77-2.81c-.51 0-.94-.18-1.29-.53a1.76 1.76 0 0 1-.53-1.29c0-.5.18-.93.53-1.29.35-.35.78-.52 1.29-.52a8 8 0 0 0 5.93-2.46 8.11 8.11 0 0 0 2.45-5.95c0-2.29-.82-4.27-2.45-5.95a8.07 8.07 0 0 0-5.93-2.46c-2.32 0-4.3.82-5.94 2.46a8.11 8.11 0 0 0-2.45 5.95c0 .5-.18.94-.53 1.29-.35.35-.78.52-1.28.52s-.93-.17-1.27-.52a1.78 1.78 0 0 1-.51-1.3c0-3.31 1.16-6.14 3.5-8.49a11.53 11.53 0 0 1 8.48-3.51c3.3 0 6.13 1.17 8.47 3.51a11.6 11.6 0 0 1 3.5 8.5c0 3.34-1.16 6.18-3.5 8.52-.55.53-1.18 1.06-1.9 1.59 1.03.62 1.96 1.34 2.78 2.16a12.9 12.9 0 0 1 3.82 9.38c0 3.67-1.28 6.8-3.85 9.37a12.67 12.67 0 0 1-9.32 3.84c-3.65 0-6.76-1.28-9.35-3.84a12.9 12.9 0 0 1-3.83-9.37 1.78 1.78 0 0 1 1.78-1.82c.5 0 .93.18 1.29.53.35.35.52.78.52 1.29 0 2.64.94 4.9 2.8 6.8a9.28 9.28 0 0 0 6.79 2.8c2.6 0 4.86-.93 6.77-2.8a9.33 9.33 0 0 0 2.8-6.8 9.4 9.4 0 0 0-2.8-6.8zm37.45-5.45a12.3 12.3 0 0 0-9-3.72c-3.5 0-6.5 1.24-9 3.72-2.5 2.5-3.74 5.51-3.74 9.03 0 3.5 1.25 6.49 3.74 8.99 2.5 2.5 5.5 3.75 9 3.75s6.5-1.25 9-3.75a12.27 12.27 0 0 0 3.7-9 12.3 12.3 0 0 0-3.7-9.02zm3.7 19.46c-3.56 3.94-7.8 5.91-12.7 5.91a15.8 15.8 0 0 1-11.57-4.77 15.8 15.8 0 0 1-4.8-11.57c0-4.53 1.6-8.4 4.8-11.58 3.2-3.2 7.05-4.8 11.57-4.8 4.52 0 8.37 1.6 11.57 4.8 3.2 3.19 4.8 7.05 4.8 11.58v16.58a12.1 12.1 0 0 1-3.66 8.76 16.93 16.93 0 0 1-12.45 5.15c-4.87 0-9-1.71-12.42-5.15a16.26 16.26 0 0 1-3.06-3.96 2.16 2.16 0 0 1-.33-1.08c0-.5.18-.94.53-1.29.35-.35.78-.53 1.29-.53.5 0 .94.19 1.31.56.16.14.3.32.4.56a14.84 14.84 0 0 0 2.43 3.19 13.67 13.67 0 0 0 4.52 3.06c1.64.67 3.42 1.01 5.33 1.01 3.86 0 7.15-1.37 9.88-4.1 1.71-2.07 2.57-4.13 2.57-6.18zm36.87-22c3.2 3.2 4.79 7.06 4.79 11.6 0 4.53-1.6 8.4-4.8 11.6-3.19 3.2-7.04 4.8-11.56 4.8-4.52 0-8.38-1.6-11.57-4.8-3.2-3.2-4.8-7.07-4.8-11.6 0-4.54 1.6-8.4 4.8-11.6 3.2-3.2 7.05-4.81 11.57-4.81 4.52 0 8.37 1.6 11.57 4.8zm-2.57 2.57c-2.5-2.5-5.5-3.75-9-3.75s-6.5 1.25-9 3.75-3.74 5.51-3.74 9.03c0 3.51 1.24 6.52 3.74 9.02s5.5 3.75 9 3.75 6.5-1.25 9-3.75a12.3 12.3 0 0 0 3.7-9.02 12.3 12.3 0 0 0-3.7-9.03zm20 0c-2.5 2.5-3.74 5.51-3.74 9.03 0 3.51 1.24 6.52 3.74 9.02 2.49 2.5 5.49 3.75 9 3.75 3.5 0 6.5-1.25 9-3.75a12.3 12.3 0 0 0 3.7-9.02 12.3 12.3 0 0 0-3.7-9.03c-2.5-2.5-5.5-3.75-9-3.75-3.51 0-6.51 1.25-9 3.75zm-3.74 37.68c0 .5-.18.94-.53 1.29-.35.35-.78.52-1.29.52-.5 0-.93-.17-1.28-.52a1.76 1.76 0 0 1-.53-1.3v-28.64c0-4.54 1.6-8.4 4.8-11.6 3.19-3.2 7.05-4.81 11.57-4.81 4.51 0 8.37 1.6 11.57 4.8 3.2 3.2 4.79 7.07 4.79 11.6 0 4.54-1.6 8.4-4.8 11.6-3.19 3.21-7.05 4.81-11.56 4.81-4.52 0-8.38-1.6-11.57-4.8l-1.17-1.15zm62.3-40.26c3.2 3.2 4.8 7.07 4.8 11.6 0 4.54-1.6 8.4-4.8 11.6-3.19 3.21-7.05 4.81-11.57 4.81-4.51 0-8.37-1.6-11.57-4.8-3.2-3.2-4.79-7.07-4.79-11.6 0-4.54 1.6-8.4 4.8-11.6 3.19-3.2 7.05-4.81 11.56-4.81 4.52 0 8.38 1.6 11.58 4.8zm-2.57 2.58c-2.49-2.5-5.49-3.75-9-3.75-3.5 0-6.5 1.25-9 3.75-2.49 2.5-3.73 5.51-3.73 9.03 0 3.51 1.24 6.52 3.74 9.02 2.49 2.5 5.49 3.75 9 3.75 3.5 0 6.5-1.25 9-3.75a12.3 12.3 0 0 0 3.7-9.02 12.3 12.3 0 0 0-3.7-9.03zm26.64 7.2c1.5 0 2.78-.53 3.85-1.6a5.28 5.28 0 0 0 1.61-3.87c0-1.46-.54-2.75-1.6-3.87a5.25 5.25 0 0 0-3.86-1.6h-10.29v10.95zm2.42 14.6c1.46 0 2.75-.54 3.86-1.61a5.41 5.41 0 0 0 1.6-3.87c0-1.5-.53-2.8-1.6-3.87a5.38 5.38 0 0 0-3.86-1.6h-12.7v10.95zm-2.42-29.18c2.53 0 4.67.89 6.42 2.67a8.73 8.73 0 0 1 2.66 6.44c0 1.15-.21 2.26-.64 3.31a11.57 11.57 0 0 1-1.9 3.08c.98.52 1.75 1.1 2.34 1.73a8.94 8.94 0 0 1 2.63 6.47c0 2.54-.89 4.7-2.66 6.47a8.73 8.73 0 0 1-6.43 2.64H744.4c-.5 0-.93-.17-1.28-.53a1.76 1.76 0 0 1-.53-1.28v-29.18c0-.51.17-.94.53-1.3.35-.35.77-.52 1.28-.52zm32.21 29.18c1.46 0 2.75-.54 3.86-1.61a5.41 5.41 0 0 0 1.6-3.87c0-1.5-.53-2.8-1.6-3.87a5.38 5.38 0 0 0-3.86-1.6h-11.51v10.95zm-11.51-14.6h11.51c2.53 0 4.68.9 6.43 2.68a8.73 8.73 0 0 1 2.66 6.44c0 2.54-.89 4.7-2.66 6.47a8.73 8.73 0 0 1-6.43 2.64h-13.32c-.51 0-.94-.17-1.3-.53a1.73 1.73 0 0 1-.54-1.28v-29.24c.03-.5.22-.9.55-1.23.35-.36.78-.53 1.29-.53.5 0 .93.17 1.28.53.35.35.53.78.53 1.29zm55.12 0a13.43 13.43 0 0 0-3.65-7.2c-2.5-2.5-5.5-3.75-9-3.75s-6.5 1.25-9 3.75a13.73 13.73 0 0 0-3.68 7.2zm-4.47 11.58c.33-.27.7-.4 1.14-.4a1.8 1.8 0 0 1 1.81 1.85c0 .5-.16.91-.47 1.25a15.76 15.76 0 0 1-10.66 3.95c-4.52 0-8.38-1.6-11.57-4.8-3.2-3.2-4.8-7.07-4.8-11.6 0-4.54 1.6-8.4 4.8-11.6 3.2-3.2 7.05-4.81 11.57-4.81 4.52 0 8.37 1.6 11.57 4.8 3.2 3.2 4.79 7.07 4.79 11.6 0 .51-.18.94-.53 1.3-.35.35-.78.52-1.28.52h-27.23a13.73 13.73 0 0 0 3.68 7.2c2.5 2.5 5.5 3.76 9 3.76 1.6 0 3.07-.26 4.44-.78a12.42 12.42 0 0 0 3.74-2.24zm33.4-7.94c-.51 0-.95-.17-1.3-.53a1.73 1.73 0 0 1-.55-1.28c0-.51.18-.94.54-1.3.36-.35.8-.52 1.3-.52h14.53c.5 0 .94.17 1.3.53.36.35.54.78.54 1.29 0 .5-.18.93-.54 1.28-.36.36-.8.53-1.3.53zm54.28-3.63c1.5 0 2.79-.54 3.86-1.61a5.28 5.28 0 0 0 1.6-3.87c0-1.46-.53-2.75-1.6-3.87a5.25 5.25 0 0 0-3.86-1.6h-10.28v10.95zm2.43 14.59c1.46 0 2.74-.54 3.85-1.61a5.41 5.41 0 0 0 1.61-3.87c0-1.5-.53-2.8-1.6-3.87a5.38 5.38 0 0 0-3.86-1.6h-12.71v10.95zm-2.43-29.18c2.53 0 4.68.89 6.43 2.67a8.73 8.73 0 0 1 2.66 6.44c0 1.15-.21 2.26-.64 3.31a11.57 11.57 0 0 1-1.9 3.08c.97.52 1.75 1.1 2.34 1.73a8.94 8.94 0 0 1 2.62 6.47c0 2.54-.88 4.7-2.65 6.47a8.73 8.73 0 0 1-6.43 2.64h-14.55c-.51 0-.94-.17-1.29-.53a1.76 1.76 0 0 1-.52-1.28v-29.18c0-.51.17-.94.52-1.3.35-.35.78-.52 1.29-.52zm38.8 18.22v12.78c0 .5-.17.93-.52 1.28-.35.36-.78.53-1.29.53-.5 0-.93-.17-1.28-.53a1.76 1.76 0 0 1-.53-1.28v-29.18c0-.51.18-.94.53-1.3.35-.35.78-.52 1.28-.52s.94.17 1.29.53c.35.35.52.78.52 1.29v12.77h19.4v-12.77c0-.51.18-.94.53-1.3.35-.35.78-.52 1.29-.52.5 0 .93.17 1.28.53.35.35.53.78.53 1.29v29.18c0 .5-.18.93-.53 1.28-.35.36-.78.53-1.28.53s-.94-.17-1.29-.53a1.76 1.76 0 0 1-.52-1.28v-12.78zm54.2-10.84c-2.5-2.5-5.5-3.75-9-3.75-3.52 0-6.52 1.25-9 3.75-2.5 2.5-3.75 5.51-3.75 9.03 0 3.51 1.25 6.52 3.74 9.02 2.5 2.5 5.5 3.75 9 3.75s6.5-1.25 9-3.75a12.3 12.3 0 0 0 3.71-9.02 12.3 12.3 0 0 0-3.7-9.03zm3.7 19.48c-3.93 3.97-8.17 5.95-12.7 5.95-4.53 0-8.39-1.6-11.58-4.8-3.2-3.2-4.8-7.07-4.8-11.6 0-4.54 1.6-8.4 4.8-11.6 3.2-3.2 7.05-4.81 11.57-4.81 4.52 0 8.38 1.6 11.57 4.8 3.2 3.2 4.8 7.07 4.8 11.6v14.6c0 .5-.18.93-.53 1.28-.35.36-.78.53-1.29.53-.5 0-.94-.17-1.3-.53a1.73 1.73 0 0 1-.54-1.28zm51.82-25.04c0-.51.18-.94.53-1.3.35-.35.78-.52 1.28-.52s.94.17 1.3.53c.36.35.54.78.54 1.29v29.18c0 .5-.18.93-.54 1.28-.36.36-.8.53-1.3.53s-.93-.17-1.28-.53a1.76 1.76 0 0 1-.53-1.28V1416c-2.96 2.52-5.99 3.78-9.08 3.78-3.51 0-6.51-1.25-9-3.75a22.5 22.5 0 0 1-1.9-2.28c-.67.9-1.3 1.66-1.93 2.28a12.23 12.23 0 0 1-8.99 3.75c-3.5 0-6.5-1.25-8.99-3.75a12.31 12.31 0 0 1-3.7-9.02v-18.22c0-.51.17-.94.52-1.3.35-.35.78-.52 1.29-.52.5 0 .93.17 1.28.53.35.35.53.78.53 1.29V1407c0 2.52.9 4.67 2.68 6.44a8.7 8.7 0 0 0 6.4 2.7c2.48 0 4.62-.9 6.4-2.7a8.8 8.8 0 0 0 2.66-6.44v-18.22c0-.51.18-.94.54-1.3.36-.35.8-.52 1.3-.52.51 0 .94.17 1.3.53.34.35.52.78.52 1.29V1407a8.8 8.8 0 0 0 2.66 6.44 8.76 8.76 0 0 0 6.42 2.7c2.5 0 4.64-.9 6.43-2.7a8.8 8.8 0 0 0 2.66-6.44zm39.11 29.18c0 .5-.18.93-.54 1.28-.36.36-.8.53-1.3.53s-.94-.17-1.29-.53a1.76 1.76 0 0 1-.52-1.28v-3.4c-3.59 3.47-7.42 5.21-11.51 5.21-4.15 0-7.73-1.47-10.73-4.42a14.75 14.75 0 0 1-4.41-10.78v-15.8c0-.5.17-.93.53-1.28.35-.36.77-.53 1.28-.53.5 0 .94.17 1.29.53.35.35.52.78.52 1.29v15.79c0 3.2 1.12 5.92 3.36 8.17a11.29 11.29 0 0 0 8.16 3.4c3.15 0 5.86-1.13 8.12-3.4a11.1 11.1 0 0 0 3.39-8.17v-15.8c0-.5.17-.93.52-1.28.35-.36.78-.53 1.29-.53.5 0 .94.17 1.3.53.36.35.54.78.54 1.29zm16.93-14.62l-11.13-13.36c-.3-.32-.44-.72-.44-1.2 0-.51.18-.94.54-1.3.36-.35.8-.52 1.3-.52s.95.19 1.32.56l10.78 12.94 10.81-12.94c.37-.37.8-.56 1.31-.56s.94.17 1.29.53c.35.35.53.78.53 1.29 0 .46-.14.86-.41 1.2l-11.16 13.36 11.24 13.5c.22.33.33.7.33 1.12 0 .5-.18.93-.53 1.28-.35.36-.78.53-1.29.53-.5 0-.91-.18-1.22-.56l-10.9-13.03-10.87 13.03c-.31.38-.72.56-1.23.56-.5 0-.94-.17-1.3-.53a1.73 1.73 0 0 1-.54-1.28c0-.42.12-.79.35-1.12zm47.22-9c-2.5 2.5-3.74 5.51-3.74 9.03 0 3.51 1.24 6.52 3.74 9.02s5.5 3.75 9 3.75 6.5-1.25 9-3.75a12.3 12.3 0 0 0 3.7-9.02 12.3 12.3 0 0 0-3.7-9.03c-2.5-2.5-5.5-3.75-9-3.75s-6.5 1.25-9 3.75zm-3.74 37.68c0 .5-.18.94-.53 1.29-.35.35-.78.52-1.28.52-.51 0-.94-.17-1.29-.52a1.76 1.76 0 0 1-.52-1.3v-28.64c0-4.54 1.6-8.4 4.79-11.6 3.2-3.2 7.05-4.81 11.57-4.81 4.52 0 8.37 1.6 11.57 4.8 3.2 3.2 4.8 7.07 4.8 11.6 0 4.54-1.6 8.4-4.8 11.6-3.2 3.21-7.05 4.81-11.57 4.81-4.52 0-8.38-1.6-11.57-4.8l-1.17-1.15zm46.35-14.1l-11.83-28.41c-.08-.26-.12-.5-.12-.73 0-.51.18-.94.54-1.3.36-.35.8-.52 1.3-.52.51 0 .94.17 1.29.53.18.17.32.42.44.73l10.37 24.9 10.37-24.9c.12-.31.29-.58.5-.8a1.7 1.7 0 0 1 1.26-.46c.5 0 .93.17 1.28.53.35.35.54.78.56 1.29 0 .2-.04.4-.12.64l-18 43.18a1.8 1.8 0 0 1-1.72 1.23c-.5 0-.94-.17-1.29-.52a1.76 1.76 0 0 1-.52-1.3c0-.25.04-.46.11-.64zm21.4-29.14c0-.51.18-.94.53-1.3.35-.35.78-.52 1.29-.52.5 0 .94.17 1.3.53.36.35.54.78.54 1.29v14.59l18.76-15.94c.33-.31.74-.47 1.22-.47.51 0 .94.17 1.29.53.35.35.53.78.53 1.29 0 .48-.16.9-.47 1.26l-15.6 13.24 15.54 13.36c.35.33.53.77.53 1.32 0 .5-.18.93-.53 1.28-.35.36-.78.53-1.29.53a1.7 1.7 0 0 1-1.16-.44l-15.93-13.65-2.9 2.49v9.79c0 .5-.17.93-.53 1.28-.36.36-.8.53-1.3.53s-.94-.17-1.29-.53a1.76 1.76 0 0 1-.52-1.28zm56.65 5.56c-2.5-2.5-5.5-3.75-9-3.75s-6.5 1.25-9 3.75-3.74 5.51-3.74 9.03c0 3.51 1.24 6.52 3.74 9.02s5.5 3.75 9 3.75 6.5-1.25 9-3.75a12.3 12.3 0 0 0 3.7-9.02 12.3 12.3 0 0 0-3.7-9.03zm3.7 19.48c-3.93 3.97-8.16 5.95-12.7 5.95-4.52 0-8.38-1.6-11.57-4.8-3.2-3.2-4.8-7.07-4.8-11.6 0-4.54 1.6-8.4 4.8-11.6 3.2-3.2 7.05-4.81 11.57-4.81 4.52 0 8.37 1.6 11.57 4.8 3.2 3.2 4.79 7.07 4.79 11.6v14.6c0 .5-.18.93-.53 1.28-.35.36-.78.53-1.28.53s-.94-.17-1.3-.53a1.73 1.73 0 0 1-.54-1.28zm20.18-10.48l-11.13-13.36c-.3-.32-.44-.72-.44-1.2 0-.51.18-.94.54-1.3.36-.35.8-.52 1.3-.52s.95.19 1.32.56l10.78 12.94 10.81-12.94c.37-.37.8-.56 1.32-.56.5 0 .93.17 1.28.53.35.35.53.78.53 1.29 0 .46-.14.86-.41 1.2l-11.16 13.36 11.25 13.5c.21.33.32.7.32 1.12 0 .5-.18.93-.53 1.28-.35.36-.78.53-1.28.53-.51 0-.92-.18-1.23-.56l-10.9-13.03-10.87 13.03c-.31.38-.72.56-1.23.56-.5 0-.94-.17-1.3-.53a1.73 1.73 0 0 1-.54-1.28c0-.42.12-.79.35-1.12zm27.48 11.25c.59.56.88 1.28.88 2.13 0 .86-.3 1.59-.88 2.17-.56.59-1.27.88-2.13.88-.86 0-1.58-.3-2.16-.88a2.95 2.95 0 0 1-.88-2.17c0-.85.3-1.57.88-2.13.58-.59 1.3-.88 2.16-.88.86 0 1.57.29 2.13.88zm-3.97-39.9c0-.51.18-.94.54-1.3.36-.35.8-.52 1.3-.52s.93.17 1.29.52c.35.36.52.79.52 1.3v33.57c0 .5-.17.92-.52 1.23a1.7 1.7 0 0 1-1.29.56c-.5 0-.93-.19-1.29-.56a1.59 1.59 0 0 1-.55-1.23z"/></defs><g><g transform="translate(-557 -1371)"><use fill="#69b1d2" xlink:href="#muhja"/></g></g></svg>