<svg xmlns="http://www.w3.org/2000/svg" xmlns:xlink="http://www.w3.org/1999/xlink" width="463" height="292" viewBox="0 0 463 292"><defs><path id="259ua" d="M580.42 2331.47l-31.35-81.03-31.35 81.03zm-147.75 116.59c0-2.89.66-5.78 1.99-8.66l96.21-247.98c3.84-8.66 9.91-13 18.2-13 8.53 0 14.6 4.34 18.2 13l96.58 248.88c.96 2.4 1.44 5 1.44 7.76 0 5.3-1.87 9.8-5.59 13.54a18.4 18.4 0 0 1-13.51 5.59 17.8 17.8 0 0 1-13.34-5.6 20.43 20.43 0 0 1-4.32-6.13l-33.33-85.73h-92.26l-33.5 85.73a20.53 20.53 0 0 1-4.33 6.14 18.4 18.4 0 0 1-13.52 5.59c-5.28 0-9.76-1.86-13.42-5.6a18.6 18.6 0 0 1-5.5-13.53zm359.06-145.29c-8.9 0-17.18 1.7-24.87 5.06a63.81 63.81 0 0 0-20 13.62 64.5 64.5 0 0 0-13.42 20.13 61.57 61.57 0 0 0-4.95 24.54c0 8.67 1.65 16.85 4.95 24.55a64.45 64.45 0 0 0 13.42 20.12 63.72 63.72 0 0 0 20 13.63 61.24 61.24 0 0 0 24.87 5.05c8.77 0 17-1.68 24.68-5.05a64.12 64.12 0 0 0 33.6-33.84 60.97 60.97 0 0 0 4.96-24.46c0-8.66-1.65-16.81-4.95-24.45a64.17 64.17 0 0 0-33.6-33.84 60.86 60.86 0 0 0-24.69-5.06zm63.24 145.65v-3.61c-9 7.22-18.8 12.75-29.37 16.6a98.17 98.17 0 0 1-33.87 5.78c-27.87 0-51.65-9.86-71.35-29.6-19.7-19.73-29.55-43.55-29.55-71.47 0-27.91 9.85-51.73 29.55-71.47 19.7-19.73 43.48-29.6 71.35-29.6 27.63 0 51.41 9.87 71.35 29.6 19.7 19.74 29.55 43.56 29.55 71.47v82.3c0 5.17-1.83 9.6-5.5 13.26a18.03 18.03 0 0 1-13.24 5.5c-5.29 0-9.76-1.82-13.42-5.5a18.09 18.09 0 0 1-5.5-13.26z"/></defs><g><g transform="translate(-431 -2177)"><use fill="#ceecfa" xlink:href="#259ua"/></g></g></svg>