<?xml version="1.0" encoding="UTF-8"?>
<!DOCTYPE svg PUBLIC "-//W3C//DTD SVG 1.1//EN" "http://www.w3.org/Graphics/SVG/1.1/DTD/svg11.dtd">
<!-- Creator: CorelDRAW X7 -->
<svg xmlns="http://www.w3.org/2000/svg" xml:space="preserve" width="155.56mm" height="100.184mm" version="1.1" style="shape-rendering:geometricPrecision; text-rendering:geometricPrecision; image-rendering:optimizeQuality; fill-rule:evenodd; clip-rule:evenodd"
viewBox="0 0 15556 10018"
 xmlns:xlink="http://www.w3.org/1999/xlink">
 <defs>
  <style type="text/css">
   <![CDATA[
    .fil0 {fill:#FEFEFE}
    .fil2 {fill:#FEFEFE;fill-rule:nonzero}
    .fil1 {fill:#FEFEFE;fill-opacity:0.501961}
   ]]>
  </style>
 </defs>
 <g id="Слой_x0020_1">
  <metadata id="CorelCorpID_0Corel-Layer"/>
  <g id="_708210720">
   <path class="fil0" d="M0 9559l15556 0 0 240c-41,127 -463,232 -530,218l-14536 0c-170,-13 -471,-144 -490,-221l0 -237z"/>
   <polygon class="fil1" points="1911,1265 13646,1265 13646,4294 1911,4294 "/>
   <polygon class="fil1" points="1911,4876 5497,4876 5497,8554 1911,8554 "/>
   <polygon class="fil1" points="5986,4876 9571,4876 9571,8554 5986,8554 "/>
   <polygon class="fil1" points="10061,4876 13646,4876 13646,8554 10061,8554 "/>
   <path class="fil2" d="M1518 0l12677 0c135,0 258,55 346,144 89,89 145,212 145,347l0 8893c0,58 -24,111 -63,150 -38,38 -91,62 -150,62l-13201 0c-67,0 -129,-27 -173,-72 -44,-44 -72,-105 -72,-172l0 -8861c0,-135 56,-258 145,-347 88,-89 211,-144 346,-144zm12677 75l-12677 0c-114,0 -218,47 -293,122 -76,75 -123,179 -123,294l0 8861c0,46 20,89 50,119 31,31 73,50 120,50l13201 0c38,0 72,-15 97,-40 25,-25 41,-59 41,-97l0 -8893c0,-115 -47,-219 -123,-294 -75,-75 -179,-122 -293,-122z"/>
   <ellipse class="fil0" cx="7783" cy="529" rx="60" ry="59"/>
  </g>
 </g>
</svg>
