<svg xmlns="http://www.w3.org/2000/svg" xmlns:xlink="http://www.w3.org/1999/xlink" width="163" height="17" viewBox="0 0 163 17"><defs><path id="y6mca" d="M544.35 3560.23h-3.26v3.44h-1.16v-3.44h-3.25v-1.08h3.25v-3.42h1.16v3.42h3.26zm13.67 3.53v1.3h-6.5v-11.46h1.54v10.16zm6.17-2.35c-.66.03-1.22.08-1.68.16-.46.08-.84.2-1.13.32-.29.14-.5.3-.63.48s-.2.38-.2.6c0 .22.04.4.1.56a1.02 1.02 0 0 0 .72.6 2.9 2.9 0 0 0 1.8-.23 4.55 4.55 0 0 0 1.02-.8zm-4.6-3.3c.44-.44.93-.76 1.44-.98.52-.2 1.1-.32 1.72-.32.46 0 .86.08 1.21.23a2.48 2.48 0 0 1 1.43 1.59c.13.38.19.8.19 1.25v5.18h-.63a.62.62 0 0 1-.32-.07c-.08-.04-.14-.13-.18-.26l-.16-.77c-.21.2-.42.37-.62.52a3.57 3.57 0 0 1-3.1.58 1.86 1.86 0 0 1-1.21-1.06 2.33 2.33 0 0 1-.17-.96c0-.32.08-.63.26-.93.18-.3.46-.55.86-.78.4-.23.9-.42 1.54-.57.64-.14 1.41-.23 2.34-.25v-.63c0-.63-.14-1.1-.41-1.43-.27-.32-.67-.48-1.2-.48a2.56 2.56 0 0 0-1.5.42l-.44.3a.65.65 0 0 1-.37.13.4.4 0 0 1-.25-.07.7.7 0 0 1-.18-.2zm10.94 7.08c-.64 0-1.13-.18-1.48-.54-.34-.35-.51-.87-.51-1.54v-4.96h-.98a.32.32 0 0 1-.21-.08c-.06-.05-.1-.13-.1-.23v-.57l1.34-.17.32-2.5a.35.35 0 0 1 .11-.2.31.31 0 0 1 .22-.07h.72v2.79h2.35v1.03h-2.35v4.86c0 .35.09.6.25.76.17.17.38.25.64.25.15 0 .28-.02.39-.06a1.68 1.68 0 0 0 .49-.26c.05-.04.1-.06.14-.06.08 0 .15.04.2.13l.42.68a3.02 3.02 0 0 1-1.96.74zm7.02-8.36c.6 0 1.13.1 1.6.3a3.43 3.43 0 0 1 2 2.15c.17.52.26 1.1.26 1.73 0 .64-.09 1.21-.27 1.72a3.38 3.38 0 0 1-1.99 2.15c-.47.2-1 .3-1.6.3-.6 0-1.13-.1-1.6-.3a3.38 3.38 0 0 1-2-2.15 5.22 5.22 0 0 1-.27-1.72c0-.64.1-1.21.27-1.73a3.42 3.42 0 0 1 2-2.16c.47-.2 1-.29 1.6-.29zm0 7.23c.8 0 1.4-.27 1.8-.8.4-.54.59-1.29.59-2.25s-.2-1.71-.6-2.25c-.39-.54-.99-.81-1.79-.81-.4 0-.75.07-1.06.2-.3.15-.55.35-.75.6-.2.27-.35.6-.45.97-.1.38-.14.81-.14 1.3 0 .95.2 1.7.6 2.24.39.53 1 .8 1.8.8zm14.07-4.91c.45 0 .84-.05 1.19-.16.34-.11.63-.27.86-.47.23-.2.4-.44.52-.71.12-.28.18-.59.18-.92 0-.69-.22-1.2-.67-1.55-.45-.34-1.12-.52-2.02-.52h-1.7v4.33zm5.3 5.91h-1.38c-.28 0-.5-.1-.63-.33l-2.97-4.1a.88.88 0 0 0-.3-.27c-.1-.05-.26-.08-.48-.08H590v4.78h-1.55v-11.46h3.24c.73 0 1.35.07 1.88.22.53.14.97.36 1.31.63.34.28.6.62.76 1 .17.4.25.84.25 1.32a3 3 0 0 1-.75 2.08c-.24.29-.53.53-.88.72-.35.2-.75.35-1.2.45.2.11.38.28.52.49zm6.51-4.93c0-.33-.04-.64-.14-.91a1.82 1.82 0 0 0-1.06-1.18 2.2 2.2 0 0 0-.87-.16c-.68 0-1.22.2-1.62.6-.4.4-.64.94-.74 1.65zm1.16 3.8c-.18.21-.39.4-.64.55-.24.16-.5.29-.78.39a4.99 4.99 0 0 1-3.3.02 3.4 3.4 0 0 1-1.23-.83 3.81 3.81 0 0 1-.8-1.36 5.52 5.52 0 0 1-.03-3.44 3.44 3.44 0 0 1 1.94-2.12 3.91 3.91 0 0 1 2.93-.07 3.05 3.05 0 0 1 1.78 1.84c.17.46.25.97.25 1.54 0 .23-.02.38-.07.45-.05.08-.14.11-.27.11h-5.42c.02.52.1.96.22 1.34.12.38.3.7.52.95.22.25.5.44.8.57.31.12.66.18 1.04.18.36 0 .67-.04.92-.12a4.36 4.36 0 0 0 1.14-.54.62.62 0 0 1 .32-.12c.12 0 .21.05.28.14zm5.1-2.83c.28 0 .53-.04.75-.12a1.38 1.38 0 0 0 .89-.85c.08-.2.11-.42.11-.66 0-.5-.15-.89-.45-1.18-.3-.3-.74-.44-1.3-.44-.58 0-1.02.14-1.32.44-.3.29-.46.68-.46 1.18 0 .24.04.46.12.66a1.42 1.42 0 0 0 .9.85c.21.08.46.12.75.12zm2.56 4.4c0-.2-.06-.36-.17-.48a1.12 1.12 0 0 0-.45-.29c-.19-.06-.4-.11-.66-.14a543.1 543.1 0 0 0-1.65-.12 9.93 9.93 0 0 1-.83-.08c-.3.14-.54.31-.73.52a1.07 1.07 0 0 0-.15 1.25c.1.16.24.3.43.41.2.11.44.2.73.27s.63.1 1.02.1.73-.03 1.04-.1c.3-.07.56-.17.77-.3.2-.13.37-.28.48-.45.11-.18.17-.37.17-.59zm1.45-8.22v.53c0 .17-.11.28-.34.33l-.92.12c.18.35.27.74.27 1.17a2.5 2.5 0 0 1-1.81 2.43 4.1 4.1 0 0 1-2.29.05c-.17.1-.3.22-.4.34a.6.6 0 0 0-.13.36c0 .2.08.34.24.44.16.1.36.17.62.21.25.04.55.07.87.08l1.01.05c.35.03.68.07 1.01.13.33.06.62.15.88.29.25.13.46.31.62.55.15.23.23.54.23.91 0 .35-.08.68-.26 1-.17.33-.42.62-.75.88-.32.25-.72.45-1.2.6a6.1 6.1 0 0 1-3.15.05 3.64 3.64 0 0 1-1.1-.47c-.29-.2-.5-.42-.65-.68a1.62 1.62 0 0 1-.22-.81c0-.4.12-.74.37-1.02.25-.27.6-.5 1.03-.66-.24-.1-.43-.25-.57-.43a1.14 1.14 0 0 1-.2-.72c0-.12.01-.24.05-.37a2.01 2.01 0 0 1 .97-1.03 2.5 2.5 0 0 1-.93-.89c-.23-.37-.34-.8-.34-1.29a2.38 2.38 0 0 1 .86-1.9c.28-.23.6-.4.98-.52a3.97 3.97 0 0 1 3.05.27zm8.54-.32v8.1h-.85c-.2 0-.33-.1-.38-.3l-.11-.87c-.35.4-.75.7-1.19.94a3.1 3.1 0 0 1-1.5.36c-.44 0-.83-.07-1.17-.22a2.32 2.32 0 0 1-.85-.62c-.23-.27-.4-.59-.52-.97-.11-.38-.17-.8-.17-1.25v-5.17h1.42v5.17c0 .61.14 1.08.42 1.42.28.34.71.5 1.29.5.42 0 .81-.1 1.18-.3.36-.2.7-.47 1-.82v-5.97zm4.13-3.68v11.78h-1.42v-11.78zm7.1 8.13c-.66.03-1.22.08-1.68.16-.46.08-.84.2-1.13.32-.29.14-.5.3-.63.48s-.2.38-.2.6c0 .22.04.4.1.56a1.13 1.13 0 0 0 .7.6 2.9 2.9 0 0 0 1.8-.23 4.55 4.55 0 0 0 1.02-.8zm-4.6-3.3c.44-.44.93-.76 1.44-.98.52-.2 1.1-.32 1.72-.32.46 0 .86.08 1.21.23a2.48 2.48 0 0 1 1.43 1.59c.13.38.19.8.19 1.25v5.18h-.63a.62.62 0 0 1-.32-.07c-.08-.04-.14-.13-.18-.26l-.16-.77c-.21.2-.42.37-.62.52a3.58 3.58 0 0 1-3.1.58 1.87 1.87 0 0 1-1.21-1.06 2.33 2.33 0 0 1-.17-.96c0-.32.08-.63.26-.93.18-.3.46-.55.86-.78.4-.23.9-.42 1.54-.57.63-.14 1.41-.23 2.34-.25v-.63c0-.63-.14-1.1-.41-1.43-.27-.32-.67-.48-1.2-.48a2.56 2.56 0 0 0-1.5.42l-.44.3a.65.65 0 0 1-.37.13.4.4 0 0 1-.25-.07.7.7 0 0 1-.18-.2zm9.9.47c.26-.55.58-.99.95-1.3.38-.31.83-.47 1.37-.47.17 0 .33.02.5.06.15.04.29.1.41.18l-.1 1.06c-.03.13-.11.2-.24.2-.08 0-.19-.02-.33-.05a2.26 2.26 0 0 0-1.17.07c-.2.07-.38.18-.54.33-.16.15-.3.33-.42.54-.13.22-.24.47-.34.74v5.12h-1.43v-8.1h.81c.16 0 .26.03.32.09s.1.16.12.3zm25.05 5.4v1.08h-6.15v-1.09h2.46v-7.81c0-.24 0-.47.02-.71l-2.04 1.75a.46.46 0 0 1-.4.11.45.45 0 0 1-.28-.17l-.44-.61 3.41-2.96h1.16v10.4zm6.16.03c.38 0 .73-.07 1.04-.19a2.26 2.26 0 0 0 1.31-1.29 2.77 2.77 0 0 0 0-1.99 2.14 2.14 0 0 0-1.26-1.25c-.3-.1-.63-.16-.99-.16-.38 0-.73.06-1.04.2a2.3 2.3 0 0 0-1.28 1.3c-.12.28-.17.58-.17.9 0 .36.05.7.16 1a2.09 2.09 0 0 0 1.22 1.3c.3.12.63.18 1 .18zm-.83-6.12a55.4 55.4 0 0 0-.56.73 3.33 3.33 0 0 1 1.96-.58c.46 0 .9.07 1.3.23a3.12 3.12 0 0 1 1.82 1.73c.18.43.27.91.27 1.45a3.74 3.74 0 0 1-1.1 2.66c-.34.34-.75.6-1.23.8-.49.18-1.02.28-1.6.28-.58 0-1.1-.1-1.57-.28a3.34 3.34 0 0 1-1.95-2.01 4.64 4.64 0 0 1 .06-3.23c.22-.56.57-1.17 1.06-1.82l2.91-3.9a.9.9 0 0 1 .31-.25c.13-.07.28-.1.45-.1h1.27zm12.94 5.22c.26.35.55.6.86.74.3.15.65.22 1.04.22.75 0 1.33-.27 1.74-.8.4-.55.6-1.31.6-2.31 0-.53-.04-.98-.13-1.36-.1-.38-.23-.7-.4-.93-.18-.25-.4-.42-.65-.54a2.16 2.16 0 0 0-.88-.16c-.46 0-.87.1-1.22.32-.35.21-.67.51-.96.9zm-.07-4.9a4.2 4.2 0 0 1 1.18-1.01c.45-.26.96-.39 1.54-.39.47 0 .9.1 1.27.27.38.18.7.45.97.8.26.34.47.78.61 1.3a6.68 6.68 0 0 1-.02 3.45c-.16.51-.4.96-.7 1.33a3.25 3.25 0 0 1-3.84.96 3 3 0 0 1-.94-.7v3.59h-1.43v-10.85h.85c.2 0 .33.1.38.3zm14.34 6.85H695a.4.4 0 0 1-.27-.09.84.84 0 0 1-.17-.2l-2.04-3.18-.06.22a.72.72 0 0 1-.1.2l-1.9 2.76a1.6 1.6 0 0 1-.16.2.34.34 0 0 1-.26.1h-1.27l2.84-4.17-2.73-3.94h1.37c.12 0 .2.02.26.05.05.04.1.1.14.16l2 3.04c.04-.15.1-.3.2-.44l1.74-2.56c.05-.08.1-.14.15-.18a.32.32 0 0 1 .2-.07h1.32l-2.73 3.87z"/></defs><g><g transform="translate(-535 -3552)"><use xlink:href="#y6mca"/></g></g></svg>