<svg xmlns="http://www.w3.org/2000/svg" xmlns:xlink="http://www.w3.org/1999/xlink" width="33" height="20" viewBox="0 0 33 20"><defs><path id="7m9ua" d="M490.25 3080.24v17.35h-3.24v-7.58h-8.15v7.58h-3.24v-17.35h3.24v7.46h8.15v-7.46zm13.7 14.6c.33 0 .58.08.77.26.19.18.28.42.28.71v1.78h-11.9v-.98a1.77 1.77 0 0 1 .52-1.23l5.27-5.28c.44-.45.84-.87 1.18-1.28.35-.4.64-.81.87-1.21.24-.4.41-.8.54-1.22.12-.41.18-.85.18-1.3 0-.42-.06-.79-.18-1.1a2.11 2.11 0 0 0-1.3-1.28c-.3-.11-.65-.17-1.04-.17-.35 0-.67.05-.97.15a2.66 2.66 0 0 0-1.75 1.84c-.14.37-.31.62-.53.74-.22.12-.53.14-.94.08l-1.56-.28c.12-.83.36-1.56.7-2.19a5.25 5.25 0 0 1 3.07-2.51 7.09 7.09 0 0 1 4.35.03 4.54 4.54 0 0 1 2.8 2.56 5.4 5.4 0 0 1 .11 3.8 7.38 7.38 0 0 1-.75 1.57c-.31.5-.68.97-1.1 1.44-.43.46-.87.93-1.34 1.41l-3.91 4a8.88 8.88 0 0 1 2.18-.35z"/></defs><g><g transform="translate(-474 -3079)"><use fill="#ccc" xlink:href="#7m9ua"/></g></g></svg>