<svg xmlns="http://www.w3.org/2000/svg" xmlns:xlink="http://www.w3.org/1999/xlink" width="32" height="21" viewBox="0 0 32 21"><defs><path id="k1bxa" d="M490.85 3358.95v17.36h-3.24v-7.59h-8.15v7.59h-3.24v-17.36h3.24v7.47h8.15v-7.47zm6.8 6.3a10.87 10.87 0 0 1 2.13-.22c.91 0 1.72.13 2.41.4a4.74 4.74 0 0 1 2.82 2.81 6.36 6.36 0 0 1-.13 4.6 5.7 5.7 0 0 1-3.4 3.21 7.27 7.27 0 0 1-5.49-.17 7.67 7.67 0 0 1-2.16-1.42l.9-1.26c.2-.27.45-.41.76-.41.2 0 .4.06.62.2l.71.41c.27.15.58.3.95.42.36.13.8.2 1.31.2.55 0 1.03-.1 1.44-.27a2.8 2.8 0 0 0 1.04-.74c.28-.31.49-.69.63-1.13.14-.43.2-.9.2-1.42 0-.94-.27-1.68-.82-2.21-.54-.53-1.35-.8-2.43-.8a7.6 7.6 0 0 0-2.53.46l-1.85-.53 1.44-8.43h8.57v1.26c0 .43-.13.77-.4 1.04-.26.26-.7.4-1.34.4h-4.76z"/></defs><g><g transform="translate(-475 -3357)"><use fill="#ccc" xlink:href="#k1bxa"/></g></g></svg>