<svg xmlns="http://www.w3.org/2000/svg" xmlns:xlink="http://www.w3.org/1999/xlink" width="32" height="21" viewBox="0 0 32 21"><defs><path id="1nlsa" d="M490.9 3442.98v17.35h-3.24v-7.59h-8.15v7.59h-3.24v-17.35h3.24v7.46h8.15v-7.46zm8.2 6.3l-.6.74a5 5 0 0 1 2.34-.53c.65 0 1.3.11 1.91.33a4.63 4.63 0 0 1 2.78 2.6c.29.65.43 1.4.43 2.27a5.83 5.83 0 0 1-1.69 4.13c-.54.52-1.18.94-1.94 1.24-.75.3-1.59.46-2.5.46-.93 0-1.76-.15-2.5-.44a5.36 5.36 0 0 1-3.08-3.16 7.15 7.15 0 0 1 .09-5.01c.33-.86.84-1.75 1.54-2.68l4.14-5.56c.15-.19.36-.35.63-.49.28-.14.6-.2.96-.2h2.64zm.67 8.82c.47 0 .9-.08 1.3-.24a2.98 2.98 0 0 0 1.69-1.69 3.71 3.71 0 0 0 .01-2.6 2.78 2.78 0 0 0-1.66-1.64 3.74 3.74 0 0 0-2.58.02 2.88 2.88 0 0 0-1.62 1.68 4.14 4.14 0 0 0-.03 2.57 2.66 2.66 0 0 0 1.55 1.67c.4.15.84.23 1.34.23z"/></defs><g><g transform="translate(-475 -3441)"><use fill="#ccc" xlink:href="#1nlsa"/></g></g></svg>