<svg xmlns="http://www.w3.org/2000/svg" xmlns:xlink="http://www.w3.org/1999/xlink" width="242" height="20" viewBox="0 0 242 20"><defs><path id="ah8qa" d="M841.06 337.7v10.75h-2v-6.73a17.93 17.93 0 0 1 .1-1.68 7.22 7.22 0 0 1-.66 1.39l-4.11 6.4a1.78 1.78 0 0 1-.37.42c-.07.06-.15.1-.24.15a.7.7 0 0 1-.28.05H832V337.7h2v6.74a18.36 18.36 0 0 1-.1 1.68 7.5 7.5 0 0 1 .67-1.4l4.1-6.4a1.77 1.77 0 0 1 .37-.42c.07-.06.15-.1.24-.14a.7.7 0 0 1 .28-.06zm11.82 0v10.75h-2v-4.7h-5.05v4.7h-2V337.7h2v4.63h5.04v-4.63zm8.5 7.93a2.6 2.6 0 0 0 2.39-1.72 3.04 3.04 0 0 0-.53-3.03 2.54 2.54 0 0 0-1.87-.84zm-1.9-5.59a2.6 2.6 0 0 0-1.87.84 3.05 3.05 0 0 0-.71 1.95c0 .39.06.75.19 1.08a2.66 2.66 0 0 0 1.34 1.48c.31.15.66.23 1.05.24zm1.9-1.53c.66.02 1.28.14 1.83.37a4.3 4.3 0 0 1 2.4 2.3 4.08 4.08 0 0 1-.95 4.68c-.4.39-.89.7-1.45.93-.55.24-1.17.36-1.84.38v1.28h-1.9v-1.28a5.09 5.09 0 0 1-3.28-1.32 4.22 4.22 0 0 1-1.29-3.02 4.04 4.04 0 0 1 1.3-3c.4-.4.88-.7 1.44-.94a5.25 5.25 0 0 1 1.84-.38v-1.26h1.9zm16.84 4.57c0 .79-.13 1.51-.4 2.19a5.01 5.01 0 0 1-2.82 2.9 5.8 5.8 0 0 1-2.22.4c-.82 0-1.56-.14-2.22-.41a5.05 5.05 0 0 1-2.84-2.9c-.26-.67-.39-1.4-.39-2.18 0-.8.13-1.52.4-2.2a5.16 5.16 0 0 1 2.83-2.88 6.02 6.02 0 0 1 5.08.31 4.89 4.89 0 0 1 1.9 1.94 6.3 6.3 0 0 1 .68 2.82zm-2.05 0c0-.6-.08-1.12-.24-1.59a3.4 3.4 0 0 0-.67-1.2 2.9 2.9 0 0 0-1.07-.74 3.67 3.67 0 0 0-1.41-.26c-.53 0-1 .08-1.42.26-.42.17-.77.42-1.07.75-.3.32-.52.72-.68 1.19-.16.47-.24 1-.24 1.59 0 .59.08 1.12.24 1.58.16.47.39.87.68 1.2.3.32.65.57 1.07.74.42.17.9.26 1.42.26.52 0 1-.09 1.41-.26.42-.17.78-.42 1.07-.75.3-.32.52-.72.67-1.19.16-.46.24-1 .24-1.58zm7.67.03a3 3 0 0 0 .96-.14c.27-.1.5-.22.68-.4.18-.17.31-.37.4-.62a2.39 2.39 0 0 0 0-1.6 1.54 1.54 0 0 0-.4-.6c-.18-.16-.4-.28-.67-.37a3.2 3.2 0 0 0-.97-.13h-1.5v3.86zm0-5.4c.72 0 1.34.08 1.87.25.52.16.95.4 1.3.7.34.3.6.67.76 1.09.16.42.25.88.25 1.38 0 .52-.1 1-.26 1.43-.18.43-.44.8-.78 1.12-.35.31-.79.55-1.3.73-.53.17-1.14.26-1.84.26h-1.5v3.78h-2V337.7zm17.73 0v10.74h-1.76v-6.94c0-.28.01-.58.04-.9l-3.25 6.1a.75.75 0 0 1-.7.44h-.28a.75.75 0 0 1-.7-.44l-3.3-6.12a17.09 17.09 0 0 1 .06.92v6.94h-1.76V337.7h1.5l.24.01c.06 0 .12.02.17.04.05.02.1.05.14.1.04.04.09.1.12.17l3.22 5.97a6.45 6.45 0 0 1 .45 1.01 11.77 11.77 0 0 1 .45-1.02l3.17-5.96a.75.75 0 0 1 .13-.18l.14-.1a.63.63 0 0 1 .18-.03h.23zm8.42 6.68l-1.31-3.57a7.79 7.79 0 0 1-.41-1.27 13.52 13.52 0 0 1-.4 1.28l-1.3 3.56zm3.53 4.06h-1.55a.66.66 0 0 1-.42-.13.8.8 0 0 1-.25-.32l-.8-2.2h-4.45l-.8 2.2a.71.71 0 0 1-.23.31.65.65 0 0 1-.44.14h-1.55l4.22-10.75h2.05zm11.68-1.54v3.53c0 .17-.06.3-.17.41a.66.66 0 0 1-.46.16h-1.2v-2.56h-8.4V337.7H917v9.21h4.66v-9.2h2.01v9.2zm11.01-9.2v10.74h-2v-6.73a17.93 17.93 0 0 1 .1-1.68 7.22 7.22 0 0 1-.66 1.39l-4.1 6.4a1.78 1.78 0 0 1-.37.42c-.08.06-.16.1-.25.15a.7.7 0 0 1-.27.05h-1.5V337.7h2v6.74a18.36 18.36 0 0 1-.1 1.68 7.5 7.5 0 0 1 .67-1.4l4.1-6.4a1.77 1.77 0 0 1 .36-.42c.08-.06.16-.1.24-.14a.7.7 0 0 1 .28-.06zm13.01 5.37c0 .79-.13 1.51-.39 2.19a5.01 5.01 0 0 1-2.82 2.9 5.8 5.8 0 0 1-2.23.4c-.8 0-1.55-.14-2.22-.41a5.05 5.05 0 0 1-2.83-2.9c-.26-.67-.4-1.4-.4-2.18 0-.8.14-1.52.4-2.2a5.16 5.16 0 0 1 2.83-2.88 6.03 6.03 0 0 1 5.08.31 4.89 4.89 0 0 1 1.9 1.94 6.3 6.3 0 0 1 .68 2.82zm-2.04 0c0-.6-.08-1.12-.24-1.59a3.4 3.4 0 0 0-.67-1.2 2.9 2.9 0 0 0-1.07-.74 3.67 3.67 0 0 0-1.42-.26c-.52 0-1 .08-1.41.26-.42.17-.78.42-1.07.75-.3.32-.52.72-.68 1.19-.16.47-.24 1-.24 1.59 0 .59.08 1.12.24 1.58.16.47.38.87.68 1.2.3.32.65.57 1.07.74.42.17.89.26 1.41.26.53 0 1-.09 1.42-.26.42-.17.77-.42 1.07-.75.29-.32.51-.72.67-1.19.16-.46.24-1 .24-1.58zm13.23-5.38v10.75h-2v-4.7h-5.05v4.7h-2V337.7h2v4.63h5.05v-4.63zm11.82 0v10.75h-2v-4.7h-5.05v4.7h-2V337.7h2v4.63h5.05v-4.63zm6.51 9.2c.37 0 .68-.05.94-.13.25-.08.45-.2.6-.34.15-.14.26-.31.33-.5a2.14 2.14 0 0 0 0-1.29c-.07-.2-.18-.37-.33-.5a1.58 1.58 0 0 0-.6-.32 3.28 3.28 0 0 0-.93-.11H977v3.18zm.01-4.75c.7 0 1.3.07 1.8.23.5.15.9.36 1.21.63.32.26.55.57.7.93a3.47 3.47 0 0 1-.04 2.53c-.18.42-.44.77-.77 1.06-.34.3-.75.53-1.24.68-.49.16-1.04.24-1.67.24H975V337.7h2v4.45zm7.5 6.3h-2V337.7h2zm11.83-10.75v10.75h-2v-6.73a17.93 17.93 0 0 1 .1-1.68 7.22 7.22 0 0 1-.66 1.39l-4.1 6.4a1.8 1.8 0 0 1-.37.42c-.08.06-.16.1-.25.15a.7.7 0 0 1-.27.05h-1.5V337.7h2v6.74a18.36 18.36 0 0 1-.1 1.68 7.5 7.5 0 0 1 .67-1.4l4.1-6.4a1.77 1.77 0 0 1 .36-.42c.08-.06.16-.1.24-.14a.7.7 0 0 1 .28-.06zm-4.43-1.55c.18 0 .33-.02.46-.05.12-.04.22-.1.3-.19.07-.08.12-.2.15-.35.03-.15.05-.34.05-.56h1.08a.3.3 0 0 1 .29.16c.06.1.09.23.09.36a1.3 1.3 0 0 1-.66 1.15c-.22.13-.47.23-.77.3a4.54 4.54 0 0 1-2.75-.3 1.3 1.3 0 0 1-.66-1.15.7.7 0 0 1 .09-.36.3.3 0 0 1 .28-.16h1.09c0 .22.01.41.04.56.03.15.08.27.16.35.07.1.17.15.3.19.11.03.27.05.46.05zm25.83 12.3h-1.33c-.3 0-.54-.06-.75-.19-.2-.12-.37-.3-.49-.5l-2.2-3.44a1.25 1.25 0 0 0-.44-.46 1.3 1.3 0 0 0-.63-.14h-1.14v4.73h-1.88v-4.73h-1.13c-.25 0-.46.05-.62.14-.17.09-.32.24-.44.46l-2.2 3.44c-.13.2-.3.38-.5.5-.21.13-.46.2-.74.2h-1.34l2.8-4.57c.18-.3.37-.54.57-.72.21-.17.44-.3.7-.4-.21-.08-.4-.2-.55-.35-.16-.15-.31-.34-.45-.57l-2.78-4.15h1.59a1.1 1.1 0 0 1 .97.57l2.2 3.4c.13.22.28.36.44.43.16.07.34.1.54.1h.94v-4.5h1.88v4.5h.96c.2 0 .38-.03.53-.1.16-.07.3-.21.45-.43l2.19-3.4a1.13 1.13 0 0 1 .98-.57h1.57l-2.77 4.15c-.14.23-.29.42-.44.57a1.6 1.6 0 0 1-.57.35c.27.1.5.23.71.4.2.18.4.42.57.72zm10.11-10.75l-4.34 9.26a3.8 3.8 0 0 1-.49.8 2.07 2.07 0 0 1-1.2.74 3.7 3.7 0 0 1-1.52-.03c-.17-.07-.25-.16-.25-.29v-1.24h.58l.34-.03c.1-.02.22-.06.33-.12.12-.06.22-.15.33-.26.1-.1.2-.25.29-.43l.42-.86-4.3-7.54h1.86c.18 0 .32.04.42.13.1.08.19.19.26.32l2.09 3.94a9.62 9.62 0 0 1 .55 1.3c.13-.45.3-.88.5-1.3l1.81-3.94a1 1 0 0 1 .25-.3c.1-.1.25-.15.42-.15zm4.92 5.4a3 3 0 0 0 .96-.13c.27-.1.5-.22.68-.4.18-.17.32-.37.4-.62a2.4 2.4 0 0 0 0-1.6 1.54 1.54 0 0 0-.4-.6c-.17-.16-.4-.28-.67-.37a3.2 3.2 0 0 0-.97-.13h-1.5v3.86zm0-5.4c.72 0 1.34.09 1.87.26.52.16.96.4 1.3.7.34.3.6.67.76 1.09.16.42.25.88.25 1.38 0 .52-.09 1-.26 1.43-.18.43-.44.8-.78 1.12-.35.31-.78.55-1.3.73-.53.17-1.14.26-1.84.26h-1.5v3.78h-2V337.7zm15.14 0v10.75h-2.01v-4.7h-5.04v4.7h-2.01V337.7h2v4.63h5.05v-4.63zm8.41 6.7l-1.3-3.58a7.79 7.79 0 0 1-.41-1.27 13.5 13.5 0 0 1-.4 1.28l-1.3 3.56zm3.53 4.05h-1.54a.66.66 0 0 1-.43-.13.8.8 0 0 1-.24-.32l-.8-2.2h-4.45l-.8 2.2a.71.71 0 0 1-.24.31.65.65 0 0 1-.43.14h-1.55l4.22-10.75h2.04zm10.4 0h-2.02v-9.2h-2.93a46.87 46.87 0 0 1-.3 3.49c-.12.98-.27 1.82-.45 2.51a7.9 7.9 0 0 1-.6 1.69c-.22.43-.47.76-.74 1s-.55.4-.86.5a3.54 3.54 0 0 1-1.75.03c-.16-.07-.24-.16-.24-.29v-1.24h.57c.13 0 .26-.02.4-.05.12-.03.25-.1.38-.19.14-.1.26-.24.4-.42.12-.18.24-.43.35-.74.12-.3.23-.69.33-1.14.1-.45.2-1 .28-1.63a62.78 62.78 0 0 0 .35-5.07h6.83z"/></defs><g><g transform="translate(-831 -333)"><use fill="#727c83" xlink:href="#ah8qa"/></g></g></svg>