<svg xmlns="http://www.w3.org/2000/svg" xmlns:xlink="http://www.w3.org/1999/xlink" width="50" height="20" viewBox="0 0 50 20"><defs><path id="vuxga" d="M1389.35 3369.11c.22 0 .4.07.52.2.13.13.2.3.2.5v1.25h-9.35v-.7a1.26 1.26 0 0 1 .36-.87l4.3-4.3c.37-.37.69-.72.98-1.05.28-.33.52-.67.72-1a3.64 3.64 0 0 0 .62-2.1c0-.36-.05-.68-.16-.96a1.9 1.9 0 0 0-.46-.69c-.2-.18-.43-.32-.7-.41-.28-.1-.58-.14-.9-.14-.32 0-.6.05-.87.14a2.15 2.15 0 0 0-1.23.95c-.14.21-.24.45-.3.72-.1.26-.22.43-.37.52-.15.1-.37.11-.66.06l-1.08-.2c.1-.64.27-1.22.54-1.7a4.05 4.05 0 0 1 2.39-2 5.46 5.46 0 0 1 3.39.03c.51.18.96.44 1.33.78.37.33.67.74.88 1.22a4.32 4.32 0 0 1 .1 3.04c-.16.44-.36.85-.62 1.25s-.55.78-.9 1.16c-.34.37-.7.75-1.08 1.13l-3.34 3.42a7.53 7.53 0 0 1 1.63-.25zm12.29-4.96c0 1.2-.13 2.25-.39 3.14a6.52 6.52 0 0 1-1.07 2.2 4.3 4.3 0 0 1-1.6 1.29c-.62.28-1.28.42-1.99.42-.7 0-1.37-.14-1.99-.42a4.25 4.25 0 0 1-1.6-1.3 6.51 6.51 0 0 1-1.05-2.2c-.26-.88-.39-1.92-.39-3.13s.13-2.26.39-3.15c.25-.88.6-1.61 1.06-2.2a4.32 4.32 0 0 1 3.58-1.72 4.36 4.36 0 0 1 3.59 1.72c.46.59.81 1.32 1.07 2.2.26.9.39 1.94.39 3.15zm-2.13 0c0-1.03-.08-1.88-.25-2.56a5.2 5.2 0 0 0-.64-1.64 2.4 2.4 0 0 0-.93-.87 2.45 2.45 0 0 0-2.2 0c-.35.17-.66.46-.92.87-.27.41-.49.96-.65 1.64-.16.68-.24 1.53-.24 2.56 0 1.02.08 1.87.24 2.56.16.68.38 1.22.65 1.63.26.41.57.7.92.88a2.45 2.45 0 0 0 2.2 0c.35-.18.66-.47.93-.88.27-.4.48-.95.64-1.63.17-.69.25-1.54.25-2.56zm10.76 4.45c.29.37.6.63.94.78.35.15.73.23 1.14.23.8 0 1.44-.3 1.89-.88.45-.6.67-1.47.67-2.63 0-.6-.05-1.12-.15-1.54-.1-.43-.25-.78-.44-1.05a1.7 1.7 0 0 0-.7-.58 2.29 2.29 0 0 0-.93-.18c-.53 0-.98.11-1.36.34-.38.22-.74.55-1.06.97zm-.1-5.91c.4-.48.87-.87 1.39-1.16.52-.3 1.13-.44 1.82-.44a3.22 3.22 0 0 1 2.65 1.3c.32.41.57.94.74 1.56a7.92 7.92 0 0 1-.03 4.17c-.2.62-.47 1.16-.84 1.62a3.87 3.87 0 0 1-3.08 1.46c-.57 0-1.06-.1-1.46-.28-.4-.18-.77-.44-1.1-.76v4.15h-2.06v-13.04h1.25c.28 0 .46.13.54.4zm16.9 8.37h-1.98a.55.55 0 0 1-.38-.13 1.1 1.1 0 0 1-.23-.28l-2.25-3.61c-.06.21-.14.4-.23.56l-2.05 3.05c-.07.1-.15.2-.23.28a.47.47 0 0 1-.34.13h-1.85l3.4-5.05-3.26-4.74h1.98c.16 0 .27.02.35.07.07.05.14.12.2.22l2.21 3.45c.06-.21.15-.41.27-.6l1.87-2.81c.13-.22.3-.33.5-.33h1.88l-3.25 4.65z"/></defs><g><g transform="translate(-1379 -3356)"><use fill="#999" xlink:href="#vuxga"/></g></g></svg>