<svg xmlns="http://www.w3.org/2000/svg">
    <symbol id="back-arrow" viewBox="0 0 1056 384">
        <rect x="21" y="174" width="1035.34" height="33.08"/>
        <polygon points="203,14 28,188 206,371 191,384 7,195 0,188 7,181 189,0 "/>
    </symbol>
    <symbol id="further-arrow" viewBox="0 0 347 610">
        <polygon points="142,0 203,0 203,456 347,456 176,610 0,456 142,456 "/>
    </symbol>
    <symbol id="title" viewBox="0 0 27700 4094">
        <path d="M1603 1324c477,93 631,756 363,1144 -390,566 -1636,495 -1964,-71 -12,-20 -16,-41 -16,-62 0,-62 34,-108 103,-139 83,-27 144,12 195,77 345,445 1511,400 1510,-229 -1,-279 -235,-554 -520,-565 -103,0 -292,20 -373,-41 -36,-28 -54,-62 -54,-103 0,-41 18,-96 54,-123 81,-62 270,-41 373,-41 283,0 519,-114 520,-427 1,-551 -1191,-590 -1504,-138 -31,48 -77,72 -139,72 -20,0 -44,-6 -72,-16 -27,-14 -49,-32 -66,-54 -18,-22 -26,-47 -26,-74 0,-24 8,-50 26,-78 246,-318 595,-454 996,-454 1119,0 1475,966 594,1322z"/>
        <path d="M4523 2c521,0 995,237 1253,699 121,217 182,465 182,743l0 1008c0,938 -398,1642 -1414,1642 -271,0 -508,-52 -712,-153 -223,-111 -645,-482 -680,-766 -15,-117 190,-175 278,-62 235,358 494,691 1114,691 860,0 1106,-597 1106,-1352l0 -185c-188,380 -721,592 -1127,592 -277,0 -525,-62 -743,-183 -453,-253 -696,-719 -696,-1232 0,-829 622,-1442 1439,-1442zm1 2566c1509,0 1506,-2272 0,-2272 -220,0 -415,45 -587,142 -368,210 -545,591 -545,1006 0,665 480,1124 1132,1124z"/>
        <path d="M12232 1c271,0 516,63 735,190 431,248 705,714 705,1216 0,825 -614,1452 -1440,1452 -390,0 -913,-198 -1126,-544l0 1622c0,49 -14,87 -41,115 -28,27 -65,41 -113,41 -45,0 -82,-14 -111,-41 -29,-28 -44,-66 -44,-115l0 -2501c0,-825 634,-1435 1435,-1435zm0 2567c657,0 1131,-511 1131,-1161 0,-624 -518,-1112 -1131,-1112 -652,0 -1126,500 -1126,1162 0,652 474,1111 1126,1111z"/>
        <path d="M20273 1332c334,94 484,384 489,683 7,411 -278,844 -904,844l-1196 0c-45,0 -82,-18 -111,-47 -29,-30 -44,-67 -44,-112l0 -2547c4,-45 19,-82 46,-109 28,-28 59,-42 108,-42l1045 -2c895,0 969,1125 567,1332zm-220 -913c-91,-90 -207,-125 -347,-125l-890 0 0 978 890 0c141,0 256,-38 347,-125 179,-171 184,-545 0,-728zm-196 2148c702,0 812,-978 0,-978l-1041 0 0 978 1041 0z"/>
        <path d="M22818 1271c165,0 414,22 618,126 390,200 508,626 333,1019 -140,313 -622,443 -936,443l-1008 0c-70,0 -101,-63 -101,-162l2 -2546c3,-45 19,-81 46,-108 28,-28 64,-42 108,-42 48,0 86,14 113,42 28,27 41,65 41,113l1 1115 783 0zm-778 1296l795 1c494,0 724,-271 709,-527 -13,-233 -225,-452 -726,-452l-783 0 5 978z"/>
        <path d="M26283 1c793,0 1409,690 1431,1381 2,83 -76,207 -161,207l-2380 0c38,814 1075,1320 1800,708 38,-27 77,-41 119,-41 42,0 76,10 102,31 42,30 63,66 63,107 0,35 -17,67 -51,98 -726,594 -1714,449 -2184,-323 -539,-883 -2,-2168 1261,-2168zm0 295c-649,0 -1034,419 -1107,975l2210 0c-46,-500 -523,-975 -1103,-975z"/>
        <path d="M16103 1c835,0 1445,622 1445,1432 0,819 -627,1426 -1445,1426 -832,0 -1450,-615 -1450,-1426 0,-827 626,-1432 1450,-1432zm1 295c-658,0 -1140,481 -1140,1137 0,644 473,1135 1139,1135 1508,0 1506,-2272 1,-2272z"/>
        <path d="M8389 1c834,0 1445,622 1445,1432 0,515 -252,982 -710,1239 -220,125 -466,187 -735,187 -525,0 -998,-246 -1261,-701 -126,-218 -189,-460 -189,-725 0,-827 625,-1432 1450,-1432zm1 294c-659,0 -1140,482 -1140,1138 0,644 473,1135 1139,1135 669,0 1134,-490 1134,-1135 0,-645 -463,-1138 -1133,-1138z"/>
    </symbol>
    <symbol id="overhead" viewBox="0 0 240 18">
    	<path d="M7.56 3.7C7.46 3.7 7.37 3.72 7.28 3.76C7.19 3.8 7.11 3.84 7.04 3.9C6.96 3.96 6.9 4.02 6.83 4.1C6.77 4.17 6.72 4.25 6.67 4.32L2.57 10.73C2.46 10.91 2.34 11.11 2.23 11.35C2.11 11.59 2 11.85 1.9 12.12C1.95 11.81 1.98 11.52 1.99 11.24C2 10.96 2.01 10.69 2.01 10.44L2.01 3.7L0 3.7L0 14.45L1.5 14.45C1.6 14.45 1.69 14.43 1.78 14.4C1.87 14.36 1.95 14.31 2.02 14.25C2.1 14.2 2.17 14.13 2.23 14.06C2.29 13.98 2.34 13.91 2.39 13.83L6.5 7.43C6.6 7.25 6.72 7.04 6.83 6.81C6.95 6.57 7.06 6.31 7.16 6.04C7.11 6.35 7.08 6.64 7.07 6.92C7.06 7.2 7.05 7.46 7.05 7.72L7.05 14.45L9.06 14.45L9.06 3.7L7.56 3.7ZM18.87 3.7L18.87 8.33L13.83 8.33L13.83 3.7L11.82 3.7L11.82 14.45L13.83 14.45L13.83 9.75L18.87 9.75L18.87 14.45L20.88 14.45L20.88 3.7L18.87 3.7ZM29.37 6.04C29.75 6.05 30.1 6.13 30.42 6.28C30.74 6.43 31.01 6.63 31.24 6.88C31.47 7.14 31.64 7.43 31.77 7.76C31.89 8.1 31.96 8.46 31.96 8.83C31.96 9.22 31.89 9.58 31.77 9.91C31.64 10.25 31.47 10.54 31.24 10.79C31.01 11.04 30.74 11.24 30.42 11.39C30.1 11.54 29.75 11.62 29.37 11.63L29.37 6.04ZM27.48 11.63C27.09 11.62 26.74 11.54 26.43 11.39C26.11 11.24 25.84 11.04 25.61 10.79C25.38 10.54 25.21 10.25 25.09 9.91C24.96 9.58 24.9 9.22 24.9 8.83C24.9 8.46 24.96 8.1 25.09 7.76C25.21 7.43 25.38 7.14 25.61 6.88C25.84 6.63 26.11 6.43 26.43 6.28C26.74 6.13 27.09 6.05 27.48 6.04L27.48 11.63ZM29.37 3.25L27.48 3.25L27.48 4.51C26.81 4.53 26.2 4.66 25.64 4.89C25.08 5.12 24.6 5.44 24.19 5.82C23.79 6.21 23.47 6.67 23.24 7.18C23.01 7.7 22.9 8.25 22.9 8.83C22.9 9.42 23.01 9.98 23.24 10.49C23.47 11.01 23.79 11.46 24.19 11.85C24.6 12.24 25.08 12.55 25.64 12.79C26.2 13.03 26.81 13.15 27.48 13.17L27.48 14.45L29.37 14.45L29.37 13.17C30.04 13.15 30.66 13.03 31.21 12.79C31.77 12.56 32.26 12.25 32.66 11.86C33.06 11.47 33.38 11.01 33.61 10.49C33.84 9.98 33.95 9.42 33.95 8.83C33.95 8.25 33.84 7.7 33.61 7.18C33.38 6.67 33.06 6.21 32.66 5.82C32.26 5.43 31.77 5.12 31.21 4.88C30.66 4.65 30.04 4.53 29.37 4.51L29.37 3.25ZM46.04 7.58C45.92 7.1 45.76 6.66 45.53 6.25C45.31 5.85 45.04 5.48 44.72 5.15C44.4 4.82 44.04 4.54 43.64 4.31C43.24 4.08 42.8 3.9 42.32 3.77C41.83 3.65 41.32 3.58 40.78 3.58C39.96 3.58 39.22 3.72 38.56 4C37.89 4.27 37.31 4.65 36.84 5.14C36.36 5.64 35.99 6.22 35.72 6.89C35.46 7.56 35.33 8.29 35.33 9.08C35.33 9.87 35.46 10.59 35.72 11.27C35.99 11.94 36.36 12.52 36.84 13.01C37.31 13.5 37.89 13.88 38.56 14.16C39.22 14.43 39.96 14.57 40.78 14.57C41.59 14.57 42.34 14.43 43.01 14.16C43.67 13.88 44.25 13.5 44.72 13.01C45.2 12.52 45.57 11.94 45.83 11.27C46.09 10.59 46.22 9.87 46.22 9.08C46.22 8.55 46.16 8.05 46.04 7.58ZM43.93 10.66C43.78 11.13 43.55 11.53 43.26 11.85C42.97 12.18 42.61 12.43 42.19 12.6C41.77 12.77 41.3 12.86 40.78 12.86C40.25 12.86 39.78 12.77 39.36 12.6C38.94 12.43 38.59 12.18 38.29 11.85C38 11.53 37.77 11.13 37.61 10.66C37.45 10.2 37.37 9.67 37.37 9.08C37.37 8.49 37.45 7.96 37.61 7.49C37.77 7.02 38 6.62 38.29 6.3C38.59 5.97 38.94 5.72 39.36 5.55C39.78 5.37 40.25 5.29 40.78 5.29C41.3 5.29 41.77 5.37 42.19 5.55C42.61 5.72 42.97 5.97 43.26 6.3C43.55 6.62 43.78 7.02 43.93 7.49C44.09 7.96 44.17 8.49 44.17 9.08C44.17 9.67 44.09 10.2 43.93 10.66ZM50.35 9.11L50.35 5.25L51.84 5.25C52.21 5.25 52.53 5.29 52.81 5.38C53.08 5.47 53.3 5.59 53.48 5.75C53.66 5.92 53.79 6.12 53.88 6.35C53.97 6.58 54.02 6.84 54.02 7.13C54.02 7.43 53.97 7.71 53.88 7.95C53.79 8.2 53.66 8.4 53.48 8.58C53.3 8.75 53.07 8.88 52.8 8.97C52.53 9.06 52.21 9.11 51.84 9.11L50.35 9.11ZM48.35 3.7L48.35 14.45L50.35 14.45L50.35 10.67L51.84 10.67C52.54 10.67 53.15 10.58 53.67 10.41C54.19 10.23 54.63 9.99 54.98 9.68C55.32 9.37 55.58 8.99 55.76 8.56C55.93 8.13 56.02 7.65 56.02 7.13C56.02 6.63 55.93 6.17 55.77 5.75C55.6 5.33 55.35 4.96 55.01 4.66C54.66 4.36 54.23 4.12 53.71 3.96C53.18 3.79 52.56 3.7 51.84 3.7L48.35 3.7ZM68.06 3.7C67.97 3.7 67.89 3.71 67.83 3.71C67.77 3.71 67.71 3.73 67.65 3.75C67.6 3.77 67.55 3.8 67.51 3.84C67.47 3.89 67.42 3.95 67.38 4.02L64.21 9.98C64.13 10.14 64.05 10.3 63.97 10.47C63.9 10.64 63.83 10.82 63.76 11C63.69 10.82 63.62 10.65 63.55 10.48C63.47 10.31 63.4 10.15 63.31 9.99L60.1 4.02C60.06 3.95 60.01 3.89 59.97 3.84C59.93 3.8 59.88 3.77 59.83 3.75C59.78 3.73 59.72 3.71 59.66 3.71C59.59 3.71 59.52 3.7 59.43 3.7L57.92 3.7L57.92 14.45L59.68 14.45L59.68 7.51C59.68 7.37 59.67 7.23 59.66 7.07C59.65 6.91 59.64 6.75 59.63 6.59L62.91 12.71C63.06 13 63.3 13.15 63.62 13.15L63.9 13.15C64.22 13.15 64.45 13 64.6 12.71L67.85 6.61C67.82 6.93 67.81 7.23 67.81 7.51L67.81 14.45L69.57 14.45L69.57 3.7L68.06 3.7ZM74.57 10.39L75.87 6.83C75.93 6.67 76 6.48 76.07 6.26C76.14 6.04 76.21 5.8 76.27 5.55C76.34 5.8 76.41 6.03 76.48 6.25C76.55 6.47 76.61 6.66 76.68 6.82L77.99 10.39L74.57 10.39ZM77.3 3.7L75.25 3.7L71.03 14.45L72.58 14.45C72.76 14.45 72.9 14.4 73.02 14.31C73.13 14.22 73.21 14.11 73.25 14L74.05 11.81L78.5 11.81L79.3 14C79.36 14.13 79.44 14.24 79.55 14.32C79.66 14.41 79.8 14.45 79.97 14.45L81.52 14.45L77.3 3.7ZM91.66 12.91L91.66 3.7L89.65 3.7L89.65 12.91L84.99 12.91L84.99 3.7L82.98 3.7L82.98 14.45L91.37 14.45L91.37 17.01L92.57 17.01C92.76 17.01 92.91 16.96 93.03 16.85C93.14 16.75 93.2 16.61 93.2 16.44L93.2 12.91L91.66 12.91ZM102.71 3.7C102.61 3.7 102.52 3.72 102.43 3.76C102.35 3.8 102.27 3.84 102.19 3.9C102.12 3.96 102.05 4.02 101.99 4.1C101.93 4.17 101.87 4.25 101.83 4.32L97.73 10.73C97.61 10.91 97.5 11.11 97.38 11.35C97.27 11.59 97.16 11.85 97.06 12.12C97.1 11.81 97.13 11.52 97.14 11.24C97.16 10.96 97.16 10.69 97.16 10.44L97.16 3.7L95.16 3.7L95.16 14.45L96.66 14.45C96.75 14.45 96.84 14.43 96.93 14.4C97.02 14.36 97.1 14.31 97.18 14.25C97.25 14.2 97.32 14.13 97.38 14.06C97.44 13.98 97.5 13.91 97.54 13.83L101.65 7.43C101.76 7.25 101.87 7.04 101.99 6.81C102.11 6.57 102.21 6.31 102.31 6.04C102.27 6.35 102.24 6.64 102.23 6.92C102.21 7.2 102.21 7.46 102.21 7.72L102.21 14.45L104.21 14.45L104.21 3.7L102.71 3.7ZM117.05 7.58C116.93 7.1 116.76 6.66 116.54 6.25C116.32 5.85 116.05 5.48 115.73 5.15C115.41 4.82 115.05 4.54 114.65 4.31C114.24 4.08 113.8 3.9 113.32 3.77C112.84 3.65 112.33 3.58 111.78 3.58C110.97 3.58 110.23 3.72 109.56 4C108.89 4.27 108.32 4.65 107.84 5.14C107.37 5.64 107 6.22 106.73 6.89C106.47 7.56 106.34 8.29 106.34 9.08C106.34 9.87 106.47 10.59 106.73 11.27C107 11.94 107.37 12.52 107.84 13.01C108.32 13.5 108.89 13.88 109.56 14.16C110.23 14.43 110.97 14.57 111.78 14.57C112.6 14.57 113.35 14.43 114.01 14.16C114.68 13.88 115.25 13.5 115.73 13.01C116.21 12.52 116.57 11.94 116.83 11.27C117.09 10.59 117.22 9.87 117.22 9.08C117.22 8.55 117.17 8.05 117.05 7.58ZM114.94 10.66C114.78 11.13 114.56 11.53 114.27 11.85C113.97 12.18 113.62 12.43 113.2 12.6C112.78 12.77 112.31 12.86 111.78 12.86C111.26 12.86 110.79 12.77 110.37 12.6C109.95 12.43 109.59 12.18 109.3 11.85C109 11.53 108.78 11.13 108.62 10.66C108.46 10.2 108.38 9.67 108.38 9.08C108.38 8.49 108.46 7.96 108.62 7.49C108.78 7.02 109 6.62 109.3 6.3C109.59 5.97 109.95 5.72 110.37 5.55C110.79 5.37 111.26 5.29 111.78 5.29C112.31 5.29 112.78 5.37 113.2 5.55C113.62 5.72 113.97 5.97 114.27 6.3C114.56 6.62 114.78 7.02 114.94 7.49C115.1 7.96 115.18 8.49 115.18 9.08C115.18 9.67 115.1 10.2 114.94 10.66ZM126.41 3.7L126.41 8.33L121.36 8.33L121.36 3.7L119.36 3.7L119.36 14.45L121.36 14.45L121.36 9.75L126.41 9.75L126.41 14.45L128.41 14.45L128.41 3.7L126.41 3.7ZM138.23 3.7L138.23 8.33L133.18 8.33L133.18 3.7L131.18 3.7L131.18 14.45L133.18 14.45L133.18 9.75L138.23 9.75L138.23 14.45L140.23 14.45L140.23 3.7L138.23 3.7ZM145 12.89L145 9.71L146.75 9.71C147.12 9.71 147.43 9.75 147.68 9.82C147.93 9.89 148.13 10 148.28 10.14C148.43 10.27 148.54 10.44 148.61 10.64C148.67 10.84 148.7 11.06 148.7 11.3C148.7 11.52 148.67 11.73 148.61 11.92C148.54 12.12 148.43 12.29 148.28 12.43C148.13 12.57 147.93 12.69 147.68 12.77C147.43 12.85 147.11 12.89 146.74 12.89L145 12.89ZM145 8.15L145 3.7L143 3.7L143 14.45L146.74 14.45C147.37 14.45 147.92 14.37 148.41 14.21C148.9 14.06 149.31 13.83 149.65 13.53C149.98 13.24 150.24 12.89 150.42 12.47C150.59 12.06 150.68 11.6 150.68 11.1C150.68 10.69 150.61 10.3 150.46 9.94C150.31 9.58 150.08 9.27 149.76 9.01C149.45 8.74 149.04 8.53 148.54 8.38C148.05 8.22 147.45 8.15 146.75 8.15L145 8.15ZM154.25 3.7L152.25 3.7L152.25 14.45L154.25 14.45L154.25 3.7ZM164.58 3.7C164.48 3.7 164.39 3.72 164.3 3.76C164.22 3.8 164.14 3.84 164.06 3.9C163.99 3.96 163.92 4.02 163.86 4.1C163.8 4.17 163.74 4.25 163.7 4.32L159.6 10.73C159.48 10.91 159.37 11.11 159.25 11.35C159.13 11.59 159.03 11.85 158.93 12.12C158.97 11.81 159 11.52 159.01 11.24C159.03 10.96 159.03 10.69 159.03 10.44L159.03 3.7L157.03 3.7L157.03 14.45L158.53 14.45C158.62 14.45 158.71 14.43 158.8 14.4C158.89 14.36 158.97 14.31 159.05 14.25C159.12 14.2 159.19 14.13 159.25 14.06C159.31 13.98 159.37 13.91 159.41 13.83L163.52 7.43C163.63 7.25 163.74 7.04 163.86 6.81C163.97 6.57 164.08 6.31 164.18 6.04C164.14 6.35 164.11 6.64 164.1 6.92C164.08 7.2 164.08 7.46 164.08 7.72L164.08 14.45L166.08 14.45L166.08 3.7L164.58 3.7ZM161.18 2.1C161.06 2.06 160.96 2 160.89 1.91C160.82 1.83 160.76 1.71 160.73 1.56C160.7 1.41 160.69 1.22 160.69 1L159.6 1C159.48 1 159.38 1.05 159.32 1.16C159.26 1.27 159.23 1.39 159.23 1.52C159.23 1.77 159.28 1.99 159.4 2.19C159.51 2.38 159.67 2.54 159.89 2.67C160.1 2.8 160.35 2.9 160.65 2.96C160.95 3.03 161.28 3.06 161.65 3.06C162.01 3.06 162.35 3.03 162.64 2.96C162.94 2.9 163.2 2.8 163.41 2.67C163.62 2.54 163.78 2.38 163.9 2.19C164.01 1.99 164.07 1.77 164.07 1.52C164.07 1.39 164.04 1.27 163.98 1.16C163.91 1.05 163.82 1 163.69 1L162.61 1C162.61 1.22 162.59 1.41 162.56 1.56C162.53 1.71 162.48 1.83 162.41 1.91C162.33 2 162.23 2.06 162.11 2.1C161.98 2.13 161.83 2.15 161.65 2.15C161.46 2.15 161.3 2.13 161.18 2.1ZM184.68 9.89C184.51 9.59 184.32 9.35 184.11 9.17C183.91 9 183.67 8.86 183.4 8.77C183.62 8.69 183.81 8.57 183.97 8.42C184.12 8.27 184.27 8.08 184.41 7.85L187.18 3.7L185.61 3.7C185.4 3.7 185.21 3.75 185.04 3.85C184.87 3.95 184.73 4.09 184.63 4.27L182.44 7.67C182.3 7.89 182.15 8.03 181.99 8.1C181.84 8.17 181.66 8.21 181.46 8.21L180.5 8.21L180.5 3.7L178.62 3.7L178.62 8.21L177.68 8.21C177.48 8.21 177.3 8.17 177.14 8.1C176.98 8.03 176.83 7.89 176.7 7.67L174.5 4.27C174.4 4.09 174.26 3.95 174.09 3.85C173.92 3.75 173.73 3.7 173.53 3.7L171.95 3.7L174.72 7.85C174.86 8.08 175.01 8.27 175.17 8.42C175.32 8.57 175.51 8.69 175.73 8.77C175.46 8.86 175.23 9 175.02 9.17C174.82 9.35 174.63 9.59 174.46 9.89L171.65 14.45L172.99 14.45C173.27 14.45 173.52 14.39 173.73 14.26C173.94 14.14 174.1 13.97 174.23 13.76L176.43 10.32C176.55 10.1 176.7 9.95 176.87 9.86C177.03 9.77 177.24 9.72 177.49 9.72L178.62 9.72L178.62 14.45L180.5 14.45L180.5 9.72L181.64 9.72C181.89 9.72 182.1 9.77 182.27 9.86C182.43 9.95 182.58 10.1 182.71 10.32L184.91 13.76C185.03 13.97 185.2 14.14 185.4 14.26C185.61 14.39 185.86 14.45 186.15 14.45L187.48 14.45L184.68 9.89ZM195.94 3.7C195.77 3.7 195.63 3.75 195.52 3.84C195.41 3.94 195.33 4.04 195.28 4.15L193.45 8.09C193.25 8.51 193.09 8.94 192.96 9.39C192.89 9.17 192.81 8.95 192.72 8.74C192.62 8.52 192.52 8.31 192.41 8.09L190.32 4.15C190.25 4.02 190.16 3.91 190.06 3.83C189.96 3.74 189.82 3.7 189.64 3.7L187.77 3.7L192.08 11.24L191.66 12.1C191.57 12.28 191.47 12.42 191.37 12.53C191.26 12.64 191.16 12.73 191.04 12.79C190.93 12.85 190.82 12.89 190.71 12.91C190.59 12.93 190.48 12.94 190.37 12.94L189.79 12.94L189.79 14.18C189.79 14.31 189.87 14.4 190.04 14.47C190.2 14.53 190.46 14.56 190.82 14.56C191.08 14.56 191.33 14.54 191.56 14.49C191.79 14.45 192 14.36 192.2 14.24C192.4 14.12 192.59 13.96 192.76 13.75C192.94 13.54 193.1 13.28 193.25 12.96L197.59 3.7L195.94 3.7ZM201.02 9.11L201.02 5.25L202.51 5.25C202.88 5.25 203.21 5.29 203.48 5.38C203.75 5.47 203.98 5.59 204.15 5.75C204.33 5.92 204.47 6.12 204.55 6.35C204.64 6.58 204.69 6.84 204.69 7.13C204.69 7.43 204.64 7.71 204.55 7.95C204.47 8.2 204.33 8.4 204.15 8.58C203.97 8.75 203.74 8.88 203.47 8.97C203.2 9.06 202.88 9.11 202.51 9.11L201.02 9.11ZM199.02 3.7L199.02 14.45L201.02 14.45L201.02 10.67L202.51 10.67C203.21 10.67 203.82 10.58 204.34 10.41C204.87 10.23 205.3 9.99 205.65 9.68C205.99 9.37 206.25 8.99 206.43 8.56C206.6 8.13 206.69 7.65 206.69 7.13C206.69 6.63 206.6 6.17 206.44 5.75C206.27 5.33 206.02 4.96 205.68 4.66C205.34 4.36 204.9 4.12 204.38 3.96C203.85 3.79 203.23 3.7 202.51 3.7L199.02 3.7ZM215.64 3.7L215.64 8.33L210.6 8.33L210.6 3.7L208.59 3.7L208.59 14.45L210.6 14.45L210.6 9.75L215.64 9.75L215.64 14.45L217.65 14.45L217.65 3.7L215.64 3.7ZM222.65 10.39L223.95 6.83C224.01 6.67 224.08 6.48 224.15 6.26C224.22 6.04 224.28 5.8 224.35 5.55C224.42 5.8 224.49 6.03 224.56 6.25C224.63 6.47 224.69 6.66 224.76 6.82L226.06 10.39L222.65 10.39ZM225.37 3.7L223.33 3.7L219.11 14.45L220.66 14.45C220.84 14.45 220.98 14.4 221.09 14.31C221.21 14.22 221.28 14.11 221.32 14L222.13 11.81L226.58 11.81L227.38 14C227.43 14.13 227.52 14.24 227.62 14.32C227.73 14.41 227.87 14.45 228.05 14.45L229.59 14.45L225.37 3.7ZM239.99 3.7L233.16 3.7C233.13 4.78 233.08 5.73 233.02 6.57C232.96 7.4 232.89 8.14 232.81 8.77C232.73 9.41 232.63 9.95 232.53 10.4C232.43 10.85 232.32 11.23 232.21 11.54C232.09 11.85 231.97 12.1 231.84 12.28C231.71 12.46 231.59 12.6 231.45 12.7C231.32 12.8 231.19 12.86 231.06 12.89C230.93 12.92 230.8 12.94 230.67 12.94L230.1 12.94L230.1 14.18C230.1 14.31 230.18 14.4 230.34 14.47C230.51 14.53 230.77 14.56 231.12 14.56C231.46 14.56 231.78 14.52 232.09 14.43C232.4 14.35 232.68 14.18 232.95 13.94C233.22 13.7 233.47 13.37 233.69 12.94C233.92 12.5 234.12 11.94 234.29 11.25C234.47 10.56 234.62 9.72 234.75 8.74C234.87 7.76 234.97 6.59 235.04 5.24L237.97 5.24L237.97 14.45L239.99 14.45L239.99 3.7Z" />
    </symbol>
    <symbol id="subtitle" viewBox="0 0 355 22">
    	<path d="M1.73 16.64L1.73 9.44L5.98 9.44C6.69 9.44 7.32 9.52 7.88 9.68C8.44 9.84 8.91 10.07 9.29 10.38C9.67 10.68 9.97 11.04 10.17 11.48C10.37 11.91 10.47 12.39 10.47 12.93C10.47 14.11 10.09 15.02 9.33 15.67C8.57 16.32 7.45 16.64 5.97 16.64L1.73 16.64ZM5.36 1.51C6.87 1.51 7.98 1.81 8.7 2.4C9.42 2.99 9.78 3.87 9.78 5.02C9.78 5.46 9.7 5.89 9.53 6.31C9.36 6.73 9.1 7.1 8.75 7.43C8.39 7.76 7.94 8.03 7.39 8.23C6.83 8.43 6.16 8.53 5.38 8.53L1.73 8.53L1.73 1.51L5.36 1.51ZM0.5 0.53L0.5 17.63L5.98 17.63C6.88 17.63 7.69 17.53 8.39 17.31C9.1 17.1 9.7 16.79 10.19 16.39C10.67 15.98 11.04 15.49 11.3 14.91C11.55 14.33 11.68 13.68 11.68 12.96C11.68 11.82 11.32 10.9 10.61 10.21C9.9 9.51 8.88 9.06 7.55 8.87C8.1 8.73 8.58 8.54 9.01 8.27C9.44 8.01 9.79 7.7 10.09 7.35C10.38 6.99 10.6 6.61 10.75 6.19C10.91 5.77 10.99 5.34 10.99 4.88C10.99 4.2 10.88 3.59 10.65 3.05C10.43 2.51 10.09 2.05 9.63 1.68C9.16 1.3 8.58 1.02 7.87 0.82C7.16 0.63 6.32 0.53 5.36 0.53L0.5 0.53ZM24.36 6.81C23.91 6.38 23.39 6.04 22.79 5.79C22.19 5.54 21.51 5.42 20.74 5.42C19.88 5.42 19.11 5.57 18.45 5.87C17.78 6.17 17.22 6.6 16.76 7.14C16.3 7.69 15.95 8.34 15.71 9.1C15.47 9.86 15.35 10.7 15.35 11.61C15.35 12.59 15.47 13.46 15.72 14.22C15.98 14.99 16.33 15.64 16.78 16.16C17.23 16.69 17.76 17.09 18.39 17.37C19.01 17.65 19.71 17.79 20.46 17.79C20.91 17.79 21.34 17.75 21.75 17.66C22.16 17.58 22.54 17.46 22.89 17.31C23.24 17.15 23.55 16.97 23.83 16.76C24.11 16.55 24.34 16.33 24.52 16.09L24.23 15.7C24.16 15.62 24.08 15.58 23.99 15.58C23.89 15.58 23.77 15.65 23.63 15.78C23.48 15.92 23.29 16.07 23.04 16.23C22.79 16.39 22.47 16.54 22.08 16.68C21.69 16.81 21.21 16.88 20.64 16.88C20.02 16.88 19.45 16.77 18.94 16.53C18.43 16.3 18 15.96 17.64 15.51C17.28 15.06 17.01 14.51 16.81 13.86C16.62 13.21 16.52 12.46 16.52 11.61C16.52 10.8 16.61 10.07 16.8 9.42C16.99 8.76 17.26 8.21 17.63 7.75C18 7.29 18.44 6.94 18.97 6.69C19.5 6.44 20.11 6.32 20.8 6.32C21.29 6.32 21.71 6.38 22.06 6.49C22.4 6.59 22.69 6.71 22.92 6.84C23.15 6.97 23.34 7.09 23.47 7.2C23.61 7.31 23.72 7.36 23.8 7.36C23.86 7.36 23.91 7.35 23.94 7.32C23.98 7.29 24.02 7.26 24.06 7.22L24.36 6.81ZM28.77 10.41C28.84 9.78 28.98 9.21 29.2 8.7C29.41 8.19 29.7 7.76 30.05 7.4C30.4 7.03 30.82 6.76 31.31 6.56C31.8 6.37 32.35 6.27 32.96 6.27C33.5 6.27 34 6.37 34.45 6.56C34.9 6.75 35.29 7.02 35.61 7.37C35.94 7.73 36.19 8.16 36.37 8.67C36.55 9.18 36.64 9.76 36.64 10.41L28.77 10.41ZM37.36 11.14C37.47 11.14 37.55 11.11 37.6 11.05C37.64 10.98 37.67 10.86 37.67 10.68C37.67 9.84 37.55 9.09 37.3 8.44C37.06 7.78 36.73 7.23 36.3 6.79C35.88 6.34 35.38 6 34.81 5.77C34.24 5.53 33.62 5.42 32.95 5.42C32.1 5.42 31.35 5.56 30.68 5.86C30.02 6.16 29.46 6.57 29 7.1C28.54 7.63 28.19 8.26 27.95 8.99C27.7 9.72 27.58 10.51 27.58 11.37C27.58 12.4 27.71 13.3 27.97 14.1C28.23 14.89 28.6 15.56 29.08 16.11C29.55 16.66 30.13 17.07 30.8 17.36C31.47 17.65 32.21 17.79 33.02 17.79C33.47 17.79 33.91 17.74 34.35 17.66C34.79 17.57 35.21 17.45 35.59 17.3C35.98 17.15 36.33 16.97 36.65 16.76C36.96 16.55 37.21 16.33 37.4 16.09L37.09 15.7C37.04 15.62 36.96 15.58 36.85 15.58C36.77 15.58 36.65 15.64 36.47 15.78C36.3 15.91 36.06 16.06 35.76 16.22C35.46 16.39 35.09 16.54 34.66 16.67C34.22 16.8 33.7 16.87 33.1 16.87C32.43 16.87 31.83 16.75 31.29 16.52C30.75 16.29 30.28 15.94 29.9 15.48C29.52 15.01 29.22 14.44 29.02 13.75C28.81 13.07 28.71 12.28 28.71 11.37L28.71 11.14L37.36 11.14ZM52.06 5.86C51.39 6.15 50.82 6.57 50.35 7.11C49.88 7.65 49.53 8.3 49.29 9.06C49.04 9.82 48.92 10.67 48.92 11.61C48.92 12.56 49.04 13.41 49.29 14.16C49.53 14.92 49.88 15.57 50.35 16.11C50.82 16.65 51.39 17.06 52.06 17.35C52.73 17.64 53.49 17.79 54.35 17.79C55.2 17.79 55.96 17.64 56.63 17.35C57.31 17.06 57.87 16.65 58.34 16.11C58.8 15.57 59.15 14.92 59.39 14.16C59.64 13.41 59.76 12.56 59.76 11.61C59.76 10.67 59.64 9.82 59.39 9.06C59.15 8.3 58.8 7.65 58.34 7.11C57.87 6.57 57.31 6.15 56.63 5.86C55.96 5.56 55.2 5.42 54.35 5.42C53.49 5.42 52.73 5.56 52.06 5.86ZM52.49 16.51C51.96 16.27 51.52 15.92 51.16 15.46C50.81 15 50.54 14.44 50.36 13.8C50.18 13.15 50.09 12.42 50.09 11.61C50.09 10.82 50.18 10.09 50.36 9.44C50.54 8.79 50.81 8.23 51.16 7.77C51.52 7.3 51.96 6.95 52.49 6.7C53.02 6.45 53.64 6.32 54.35 6.32C55.06 6.32 55.67 6.45 56.2 6.7C56.73 6.95 57.18 7.3 57.53 7.77C57.88 8.23 58.15 8.79 58.32 9.44C58.5 10.09 58.59 10.82 58.59 11.61C58.59 12.42 58.5 13.15 58.32 13.8C58.15 14.44 57.88 15 57.53 15.46C57.18 15.92 56.73 16.27 56.2 16.51C55.67 16.76 55.06 16.88 54.35 16.88C53.64 16.88 53.02 16.76 52.49 16.51ZM71.29 7.17C71.33 7.23 71.37 7.28 71.41 7.3C71.45 7.32 71.5 7.34 71.56 7.34C71.63 7.34 71.74 7.28 71.89 7.18C72.04 7.08 72.24 6.96 72.48 6.83C72.73 6.7 73.04 6.58 73.42 6.48C73.79 6.37 74.24 6.32 74.77 6.32C75.31 6.32 75.79 6.38 76.19 6.51C76.6 6.63 76.93 6.8 77.19 7.01C77.45 7.22 77.65 7.46 77.78 7.73C77.9 8 77.97 8.28 77.97 8.57C77.97 8.9 77.89 9.2 77.73 9.48C77.57 9.76 77.34 10 77.05 10.21C76.76 10.41 76.41 10.57 75.99 10.69C75.57 10.81 75.11 10.87 74.6 10.87L73.26 10.87L73.26 11.66L74.6 11.66C75.19 11.66 75.71 11.73 76.16 11.85C76.62 11.98 77 12.15 77.3 12.37C77.61 12.59 77.84 12.86 78 13.17C78.15 13.48 78.23 13.82 78.23 14.19C78.23 14.58 78.15 14.95 77.99 15.28C77.82 15.61 77.59 15.89 77.29 16.13C76.98 16.37 76.62 16.55 76.2 16.68C75.78 16.82 75.3 16.88 74.78 16.88C74.21 16.88 73.73 16.81 73.34 16.68C72.94 16.54 72.61 16.39 72.35 16.23C72.08 16.07 71.87 15.92 71.71 15.78C71.56 15.65 71.43 15.58 71.34 15.58C71.24 15.58 71.16 15.62 71.1 15.7L70.8 16.09C70.98 16.33 71.21 16.55 71.5 16.76C71.78 16.97 72.1 17.15 72.45 17.31C72.8 17.46 73.18 17.58 73.58 17.66C73.99 17.75 74.41 17.79 74.85 17.79C75.47 17.79 76.05 17.7 76.59 17.54C77.13 17.37 77.61 17.13 78.02 16.82C78.42 16.51 78.74 16.14 78.97 15.7C79.2 15.27 79.32 14.8 79.32 14.27C79.32 13.52 79.07 12.87 78.58 12.32C78.08 11.78 77.36 11.41 76.4 11.2C76.88 11.09 77.28 10.93 77.61 10.73C77.95 10.52 78.21 10.29 78.42 10.04C78.62 9.79 78.77 9.53 78.86 9.25C78.95 8.97 78.99 8.71 78.99 8.45C78.99 8.08 78.91 7.71 78.74 7.35C78.57 6.99 78.31 6.66 77.96 6.38C77.6 6.09 77.17 5.86 76.64 5.68C76.12 5.5 75.5 5.42 74.8 5.42C73.96 5.42 73.22 5.54 72.6 5.78C71.97 6.03 71.45 6.35 71.03 6.74L71.29 7.17ZM84.59 16.77C84.87 16.51 85.16 16.13 85.44 15.63C85.72 15.13 85.99 14.47 86.23 13.66C86.47 12.84 86.68 11.85 86.86 10.68C87.04 9.52 87.17 8.13 87.26 6.53L92.07 6.53L92.07 16.77L84.59 16.77ZM93.18 16.75L93.18 5.61L86.31 5.61C86.24 7.16 86.13 8.52 85.98 9.67C85.84 10.82 85.67 11.81 85.48 12.64C85.29 13.46 85.08 14.14 84.84 14.68C84.6 15.21 84.35 15.64 84.08 15.95C83.81 16.26 83.54 16.47 83.25 16.59C82.97 16.71 82.69 16.77 82.4 16.77L81.93 16.77L81.93 21.92L82.64 21.92C82.74 21.92 82.82 21.89 82.87 21.82C82.92 21.75 82.95 21.67 82.95 21.58L82.95 17.63L94.34 17.63L94.34 21.92L94.99 21.92C95.23 21.92 95.35 21.79 95.35 21.53L95.35 16.75L93.18 16.75ZM101.28 5.86C100.61 6.15 100.04 6.57 99.57 7.11C99.11 7.65 98.75 8.3 98.51 9.06C98.27 9.82 98.15 10.67 98.15 11.61C98.15 12.56 98.27 13.41 98.51 14.16C98.75 14.92 99.11 15.57 99.57 16.11C100.04 16.65 100.61 17.06 101.28 17.35C101.96 17.64 102.72 17.79 103.57 17.79C104.42 17.79 105.19 17.64 105.86 17.35C106.53 17.06 107.1 16.65 107.56 16.11C108.02 15.57 108.38 14.92 108.62 14.16C108.86 13.41 108.98 12.56 108.98 11.61C108.98 10.67 108.86 9.82 108.62 9.06C108.38 8.3 108.02 7.65 107.56 7.11C107.1 6.57 106.53 6.15 105.86 5.86C105.19 5.56 104.42 5.42 103.57 5.42C102.72 5.42 101.96 5.56 101.28 5.86ZM101.71 16.51C101.18 16.27 100.74 15.92 100.39 15.46C100.03 15 99.77 14.44 99.59 13.8C99.41 13.15 99.32 12.42 99.32 11.61C99.32 10.82 99.41 10.09 99.59 9.44C99.77 8.79 100.03 8.23 100.39 7.77C100.74 7.3 101.18 6.95 101.71 6.7C102.24 6.45 102.86 6.32 103.57 6.32C104.28 6.32 104.9 6.45 105.43 6.7C105.96 6.95 106.4 7.3 106.76 7.77C107.11 8.23 107.38 8.79 107.55 9.44C107.73 10.09 107.81 10.82 107.81 11.61C107.81 12.42 107.73 13.15 107.55 13.8C107.38 14.44 107.11 15 106.76 15.46C106.4 15.92 105.96 16.27 105.43 16.51C104.9 16.76 104.28 16.88 103.57 16.88C102.86 16.88 102.24 16.76 101.71 16.51ZM114.54 8.67C115.04 7.93 115.61 7.36 116.25 6.95C116.89 6.54 117.6 6.33 118.39 6.33C119.61 6.33 120.54 6.76 121.19 7.6C121.85 8.44 122.17 9.75 122.17 11.54C122.17 12.33 122.08 13.05 121.91 13.71C121.73 14.37 121.46 14.93 121.11 15.4C120.75 15.87 120.31 16.24 119.78 16.5C119.26 16.75 118.65 16.88 117.94 16.88C117.59 16.88 117.26 16.85 116.95 16.79C116.63 16.72 116.34 16.62 116.06 16.47C115.78 16.32 115.51 16.12 115.26 15.89C115.01 15.65 114.77 15.36 114.54 15.01L114.54 8.67ZM114.37 5.91C114.34 5.71 114.22 5.61 114.03 5.61L113.39 5.61L113.39 21.89L114.54 21.89L114.54 16.02C114.97 16.6 115.48 17.04 116.07 17.34C116.66 17.64 117.36 17.79 118.16 17.79C119 17.79 119.73 17.63 120.38 17.31C121.02 16.98 121.56 16.54 122 15.98C122.44 15.42 122.78 14.76 123 14C123.23 13.24 123.35 12.42 123.35 11.54C123.35 9.5 122.94 7.96 122.12 6.94C121.3 5.92 120.17 5.4 118.71 5.4C117.83 5.4 117.04 5.62 116.34 6.04C115.63 6.47 115.02 7.05 114.49 7.77L114.37 5.91ZM130.17 5.86C129.5 6.15 128.93 6.57 128.46 7.11C128 7.65 127.64 8.3 127.4 9.06C127.16 9.82 127.04 10.67 127.04 11.61C127.04 12.56 127.16 13.41 127.4 14.16C127.64 14.92 128 15.57 128.46 16.11C128.93 16.65 129.5 17.06 130.17 17.35C130.85 17.64 131.61 17.79 132.46 17.79C133.31 17.79 134.08 17.64 134.75 17.35C135.42 17.06 135.99 16.65 136.45 16.11C136.91 15.57 137.27 14.92 137.51 14.16C137.75 13.41 137.87 12.56 137.87 11.61C137.87 10.67 137.75 9.82 137.51 9.06C137.27 8.3 136.91 7.65 136.45 7.11C135.99 6.57 135.42 6.15 134.75 5.86C134.08 5.56 133.31 5.42 132.46 5.42C131.61 5.42 130.85 5.56 130.17 5.86ZM130.6 16.51C130.07 16.27 129.63 15.92 129.28 15.46C128.92 15 128.66 14.44 128.48 13.8C128.3 13.15 128.21 12.42 128.21 11.61C128.21 10.82 128.3 10.09 128.48 9.44C128.66 8.79 128.92 8.23 129.28 7.77C129.63 7.3 130.07 6.95 130.6 6.7C131.13 6.45 131.75 6.32 132.46 6.32C133.17 6.32 133.79 6.45 134.32 6.7C134.85 6.95 135.29 7.3 135.65 7.77C136 8.23 136.26 8.79 136.44 9.44C136.62 10.09 136.7 10.82 136.7 11.61C136.7 12.42 136.62 13.15 136.44 13.8C136.26 14.44 136 15 135.65 15.46C135.29 15.92 134.85 16.27 134.32 16.51C133.79 16.76 133.17 16.88 132.46 16.88C131.75 16.88 131.13 16.76 130.6 16.51ZM143.38 16.81L143.38 11.78L146.52 11.78C147.1 11.78 147.59 11.84 148 11.96C148.41 12.08 148.74 12.24 149 12.45C149.26 12.67 149.45 12.92 149.57 13.22C149.69 13.52 149.75 13.85 149.75 14.21C149.75 14.61 149.67 14.97 149.52 15.29C149.37 15.61 149.16 15.88 148.88 16.11C148.6 16.34 148.26 16.51 147.85 16.63C147.44 16.75 146.99 16.81 146.49 16.81L143.38 16.81ZM146.2 6.41C146.76 6.41 147.23 6.47 147.61 6.59C147.98 6.71 148.29 6.87 148.53 7.07C148.76 7.27 148.93 7.5 149.03 7.75C149.13 8.01 149.18 8.27 149.18 8.55C149.18 8.92 149.1 9.25 148.96 9.55C148.81 9.86 148.6 10.12 148.34 10.33C148.08 10.55 147.76 10.72 147.4 10.83C147.03 10.95 146.63 11.01 146.2 11.01L143.38 11.01L143.38 6.41L146.2 6.41ZM142.28 5.61L142.28 17.63L146.5 17.63C147.14 17.63 147.72 17.56 148.25 17.4C148.78 17.25 149.23 17.03 149.61 16.74C149.99 16.45 150.29 16.09 150.5 15.67C150.71 15.25 150.81 14.76 150.81 14.22C150.81 13.44 150.56 12.79 150.05 12.27C149.54 11.75 148.75 11.43 147.67 11.3C148.16 11.2 148.56 11.03 148.88 10.82C149.21 10.6 149.46 10.35 149.65 10.08C149.85 9.81 149.98 9.52 150.06 9.23C150.14 8.93 150.18 8.65 150.18 8.39C150.18 8.02 150.11 7.66 149.97 7.32C149.82 6.99 149.59 6.69 149.28 6.44C148.97 6.18 148.57 5.98 148.07 5.83C147.56 5.68 146.95 5.61 146.24 5.61L142.28 5.61ZM157.58 5.86C156.91 6.15 156.34 6.57 155.87 7.11C155.41 7.65 155.05 8.3 154.81 9.06C154.57 9.82 154.45 10.67 154.45 11.61C154.45 12.56 154.57 13.41 154.81 14.16C155.05 14.92 155.41 15.57 155.87 16.11C156.34 16.65 156.91 17.06 157.58 17.35C158.25 17.64 159.02 17.79 159.87 17.79C160.72 17.79 161.48 17.64 162.16 17.35C162.83 17.06 163.4 16.65 163.86 16.11C164.32 15.57 164.67 14.92 164.92 14.16C165.16 13.41 165.28 12.56 165.28 11.61C165.28 10.67 165.16 9.82 164.92 9.06C164.67 8.3 164.32 7.65 163.86 7.11C163.4 6.57 162.83 6.15 162.16 5.86C161.48 5.56 160.72 5.42 159.87 5.42C159.02 5.42 158.25 5.56 157.58 5.86ZM158.01 16.51C157.48 16.27 157.04 15.92 156.69 15.46C156.33 15 156.06 14.44 155.89 13.8C155.71 13.15 155.62 12.42 155.62 11.61C155.62 10.82 155.71 10.09 155.89 9.44C156.06 8.79 156.33 8.23 156.69 7.77C157.04 7.3 157.48 6.95 158.01 6.7C158.54 6.45 159.16 6.32 159.87 6.32C160.58 6.32 161.2 6.45 161.73 6.7C162.26 6.95 162.7 7.3 163.05 7.77C163.41 8.23 163.67 8.79 163.85 9.44C164.02 10.09 164.11 10.82 164.11 11.61C164.11 12.42 164.02 13.15 163.85 13.8C163.67 14.44 163.41 15 163.05 15.46C162.7 15.92 162.26 16.27 161.73 16.51C161.2 16.76 160.58 16.88 159.87 16.88C159.16 16.88 158.54 16.76 158.01 16.51ZM181.5 5.55C181.41 5.55 181.33 5.56 181.25 5.6C181.17 5.63 181.11 5.7 181.05 5.81L176.35 13.66C176.23 13.87 176.14 14.09 176.07 14.3C175.98 14.06 175.89 13.85 175.78 13.66L170.96 5.81C170.9 5.71 170.84 5.64 170.76 5.6C170.68 5.57 170.61 5.55 170.53 5.55L169.69 5.55L169.69 17.63L170.71 17.63L170.71 7.94C170.71 7.8 170.7 7.65 170.69 7.49C170.68 7.32 170.65 7.17 170.62 7.03L175.65 15.36C175.69 15.42 175.74 15.48 175.8 15.53C175.85 15.58 175.92 15.6 176 15.6L176.13 15.6C176.21 15.6 176.28 15.58 176.33 15.53C176.39 15.48 176.44 15.42 176.48 15.36L181.38 7.06C181.35 7.2 181.33 7.34 181.32 7.5C181.3 7.66 181.29 7.8 181.29 7.94L181.29 17.63L182.31 17.63L182.31 5.55L181.5 5.55ZM197.54 5.86C196.86 6.15 196.29 6.57 195.83 7.11C195.36 7.65 195.01 8.3 194.76 9.06C194.52 9.82 194.4 10.67 194.4 11.61C194.4 12.56 194.52 13.41 194.76 14.16C195.01 14.92 195.36 15.57 195.83 16.11C196.29 16.65 196.86 17.06 197.54 17.35C198.21 17.64 198.97 17.79 199.82 17.79C200.68 17.79 201.44 17.64 202.11 17.35C202.78 17.06 203.35 16.65 203.81 16.11C204.28 15.57 204.63 14.92 204.87 14.16C205.11 13.41 205.24 12.56 205.24 11.61C205.24 10.67 205.11 9.82 204.87 9.06C204.63 8.3 204.28 7.65 203.81 7.11C203.35 6.57 202.78 6.15 202.11 5.86C201.44 5.56 200.68 5.42 199.82 5.42C198.97 5.42 198.21 5.56 197.54 5.86ZM197.97 16.51C197.44 16.27 196.99 15.92 196.64 15.46C196.28 15 196.02 14.44 195.84 13.8C195.66 13.15 195.57 12.42 195.57 11.61C195.57 10.82 195.66 10.09 195.84 9.44C196.02 8.79 196.28 8.23 196.64 7.77C196.99 7.3 197.44 6.95 197.97 6.7C198.5 6.45 199.11 6.32 199.82 6.32C200.53 6.32 201.15 6.45 201.68 6.7C202.21 6.95 202.65 7.3 203.01 7.77C203.36 8.23 203.63 8.79 203.8 9.44C203.98 10.09 204.06 10.82 204.06 11.61C204.06 12.42 203.98 13.15 203.8 13.8C203.63 14.44 203.36 15 203.01 15.46C202.65 15.92 202.21 16.27 201.68 16.51C201.15 16.76 200.53 16.88 199.82 16.88C199.11 16.88 198.5 16.76 197.97 16.51ZM212.94 16.54C212.41 16.28 211.98 15.91 211.62 15.43C211.27 14.95 211 14.37 210.82 13.69C210.63 13.02 210.54 12.26 210.54 11.42C210.54 10.71 210.65 10.08 210.86 9.52C211.08 8.96 211.38 8.48 211.77 8.09C212.15 7.7 212.61 7.4 213.15 7.2C213.68 6.99 214.27 6.89 214.91 6.89C215.6 6.89 216.2 7.01 216.72 7.25C217.24 7.48 217.67 7.82 218.02 8.26C218.37 8.7 218.63 9.23 218.81 9.85C218.98 10.47 219.07 11.16 219.07 11.92C219.07 12.68 218.98 13.37 218.79 13.99C218.6 14.61 218.33 15.13 217.97 15.57C217.6 16 217.15 16.34 216.61 16.57C216.07 16.81 215.44 16.93 214.73 16.93C214.06 16.93 213.46 16.8 212.94 16.54ZM219.42 1.51C219.56 1.5 219.66 1.44 219.72 1.36C219.77 1.27 219.79 1.15 219.78 1.01L219.72 0.43L215.44 0.87C214.36 0.99 213.44 1.27 212.67 1.74C211.89 2.2 211.26 2.82 210.76 3.6C210.26 4.37 209.9 5.3 209.66 6.36C209.43 7.43 209.31 8.63 209.31 9.95C209.31 11.45 209.46 12.7 209.75 13.7C210.04 14.71 210.43 15.52 210.92 16.12C211.42 16.73 211.99 17.15 212.65 17.41C213.31 17.66 214 17.79 214.73 17.79C215.58 17.79 216.34 17.65 217.02 17.37C217.7 17.09 218.28 16.7 218.76 16.18C219.24 15.67 219.6 15.05 219.86 14.33C220.11 13.61 220.24 12.8 220.24 11.92C220.24 11.03 220.13 10.22 219.9 9.5C219.66 8.78 219.33 8.15 218.9 7.64C218.46 7.12 217.93 6.72 217.3 6.44C216.66 6.16 215.95 6.02 215.15 6.02C214.59 6.02 214.06 6.09 213.56 6.24C213.05 6.38 212.59 6.59 212.16 6.86C211.73 7.13 211.36 7.46 211.05 7.86C210.73 8.25 210.49 8.7 210.31 9.2C210.34 8.09 210.46 7.1 210.67 6.24C210.89 5.38 211.21 4.64 211.63 4.03C212.06 3.42 212.59 2.94 213.23 2.59C213.88 2.23 214.64 2.01 215.52 1.92L219.42 1.51ZM225.81 8.67C226.31 7.93 226.88 7.36 227.52 6.95C228.16 6.54 228.87 6.33 229.66 6.33C230.88 6.33 231.81 6.76 232.46 7.6C233.12 8.44 233.44 9.75 233.44 11.54C233.44 12.33 233.35 13.05 233.18 13.71C233 14.37 232.73 14.93 232.38 15.4C232.02 15.87 231.58 16.24 231.05 16.5C230.53 16.75 229.92 16.88 229.22 16.88C228.86 16.88 228.53 16.85 228.22 16.79C227.9 16.72 227.61 16.62 227.33 16.47C227.05 16.32 226.78 16.12 226.53 15.89C226.28 15.65 226.04 15.36 225.81 15.01L225.81 8.67ZM225.64 5.91C225.61 5.71 225.5 5.61 225.3 5.61L224.66 5.61L224.66 21.89L225.81 21.89L225.81 16.02C226.24 16.6 226.75 17.04 227.34 17.34C227.93 17.64 228.63 17.79 229.43 17.79C230.27 17.79 231.01 17.63 231.65 17.31C232.29 16.98 232.83 16.54 233.27 15.98C233.71 15.42 234.05 14.76 234.27 14C234.5 13.24 234.62 12.42 234.62 11.54C234.62 9.5 234.21 7.96 233.39 6.94C232.57 5.92 231.44 5.4 229.98 5.4C229.1 5.4 228.31 5.62 227.61 6.04C226.9 6.47 226.29 7.05 225.76 7.77L225.64 5.91ZM245.68 14.96C245.4 15.25 245.12 15.52 244.83 15.77C244.54 16.02 244.24 16.24 243.9 16.42C243.57 16.6 243.22 16.74 242.83 16.84C242.44 16.94 242.02 16.99 241.56 16.99C241.25 16.99 240.95 16.95 240.66 16.86C240.37 16.77 240.12 16.63 239.9 16.44C239.68 16.25 239.51 16.01 239.38 15.72C239.25 15.42 239.18 15.07 239.18 14.67C239.18 14.24 239.31 13.86 239.56 13.53C239.82 13.2 240.21 12.91 240.74 12.67C241.27 12.42 241.94 12.23 242.76 12.09C243.57 11.95 244.55 11.86 245.68 11.82L245.68 14.96ZM238.89 7.66C238.93 7.73 238.98 7.78 239.04 7.82C239.09 7.86 239.16 7.88 239.25 7.88C239.37 7.88 239.52 7.8 239.69 7.64C239.87 7.48 240.1 7.3 240.37 7.11C240.65 6.91 240.99 6.74 241.4 6.58C241.8 6.41 242.29 6.33 242.86 6.33C243.79 6.33 244.49 6.63 244.97 7.23C245.44 7.83 245.68 8.69 245.68 9.8L245.68 11.06C244.33 11.09 243.18 11.2 242.22 11.4C241.26 11.59 240.47 11.85 239.86 12.17C239.25 12.49 238.8 12.87 238.51 13.31C238.22 13.74 238.08 14.21 238.08 14.72C238.08 15.27 238.17 15.74 238.35 16.13C238.53 16.52 238.77 16.84 239.07 17.09C239.36 17.34 239.71 17.52 240.09 17.64C240.47 17.76 240.86 17.83 241.27 17.83C241.76 17.83 242.2 17.78 242.61 17.68C243.01 17.58 243.39 17.45 243.74 17.27C244.09 17.09 244.43 16.87 244.75 16.62C245.08 16.36 245.4 16.07 245.73 15.75L245.89 17.29C245.95 17.52 246.1 17.63 246.34 17.63L246.79 17.63L246.79 9.8C246.79 9.13 246.71 8.53 246.55 7.98C246.39 7.44 246.15 6.98 245.84 6.59C245.53 6.21 245.13 5.92 244.65 5.71C244.17 5.51 243.62 5.4 242.98 5.4C242.11 5.4 241.33 5.56 240.65 5.89C239.96 6.21 239.31 6.68 238.69 7.31L238.89 7.66ZM251.22 7.17C251.26 7.23 251.3 7.28 251.34 7.3C251.38 7.32 251.43 7.34 251.5 7.34C251.57 7.34 251.68 7.28 251.83 7.18C251.97 7.08 252.17 6.96 252.42 6.83C252.66 6.7 252.97 6.58 253.35 6.48C253.72 6.37 254.17 6.32 254.7 6.32C255.25 6.32 255.73 6.38 256.13 6.51C256.53 6.63 256.86 6.8 257.12 7.01C257.39 7.22 257.58 7.46 257.71 7.73C257.84 8 257.9 8.28 257.9 8.57C257.9 8.9 257.82 9.2 257.66 9.48C257.5 9.76 257.28 10 256.99 10.21C256.7 10.41 256.34 10.57 255.92 10.69C255.51 10.81 255.04 10.87 254.53 10.87L253.19 10.87L253.19 11.66L254.53 11.66C255.12 11.66 255.64 11.73 256.1 11.85C256.55 11.98 256.93 12.15 257.24 12.37C257.54 12.59 257.78 12.86 257.93 13.17C258.09 13.48 258.16 13.82 258.16 14.19C258.16 14.58 258.08 14.95 257.92 15.28C257.76 15.61 257.52 15.89 257.22 16.13C256.92 16.37 256.56 16.55 256.13 16.68C255.71 16.82 255.24 16.88 254.71 16.88C254.15 16.88 253.67 16.81 253.27 16.68C252.88 16.54 252.55 16.39 252.28 16.23C252.01 16.07 251.8 15.92 251.65 15.78C251.49 15.65 251.37 15.58 251.27 15.58C251.17 15.58 251.1 15.62 251.03 15.7L250.73 16.09C250.92 16.33 251.15 16.55 251.43 16.76C251.71 16.97 252.03 17.15 252.38 17.31C252.73 17.46 253.11 17.58 253.52 17.66C253.92 17.75 254.35 17.79 254.78 17.79C255.4 17.79 255.99 17.7 256.53 17.54C257.07 17.37 257.54 17.13 257.95 16.82C258.36 16.51 258.67 16.14 258.91 15.7C259.14 15.27 259.25 14.8 259.25 14.27C259.25 13.52 259 12.87 258.51 12.32C258.02 11.78 257.29 11.41 256.34 11.2C256.81 11.09 257.22 10.93 257.55 10.73C257.88 10.52 258.15 10.29 258.35 10.04C258.55 9.79 258.7 9.53 258.79 9.25C258.88 8.97 258.93 8.71 258.93 8.45C258.93 8.08 258.84 7.71 258.67 7.35C258.5 6.99 258.24 6.66 257.89 6.38C257.54 6.09 257.1 5.86 256.58 5.68C256.05 5.5 255.44 5.42 254.74 5.42C253.89 5.42 253.16 5.54 252.53 5.78C251.91 6.03 251.38 6.35 250.96 6.74L251.22 7.17ZM264.11 10.41C264.19 9.78 264.33 9.21 264.54 8.7C264.76 8.19 265.04 7.76 265.4 7.4C265.75 7.03 266.17 6.76 266.66 6.56C267.14 6.37 267.69 6.27 268.31 6.27C268.85 6.27 269.35 6.37 269.8 6.56C270.25 6.75 270.63 7.02 270.96 7.37C271.29 7.73 271.54 8.16 271.72 8.67C271.9 9.18 271.99 9.76 271.99 10.41L264.11 10.41ZM272.7 11.14C272.82 11.14 272.9 11.11 272.94 11.05C272.99 10.98 273.02 10.86 273.02 10.68C273.02 9.84 272.89 9.09 272.65 8.44C272.41 7.78 272.08 7.23 271.65 6.79C271.23 6.34 270.73 6 270.16 5.77C269.59 5.53 268.97 5.42 268.3 5.42C267.45 5.42 266.7 5.56 266.03 5.86C265.37 6.16 264.81 6.57 264.35 7.1C263.89 7.63 263.54 8.26 263.3 8.99C263.05 9.72 262.93 10.51 262.93 11.37C262.93 12.4 263.06 13.3 263.32 14.1C263.58 14.89 263.95 15.56 264.42 16.11C264.9 16.66 265.48 17.07 266.15 17.36C266.81 17.65 267.56 17.79 268.37 17.79C268.81 17.79 269.26 17.74 269.7 17.66C270.14 17.57 270.56 17.45 270.94 17.3C271.33 17.15 271.68 16.97 271.99 16.76C272.31 16.55 272.56 16.33 272.75 16.09L272.44 15.7C272.39 15.62 272.31 15.58 272.2 15.58C272.12 15.58 272 15.64 271.82 15.78C271.65 15.91 271.41 16.06 271.11 16.22C270.81 16.39 270.44 16.54 270 16.67C269.57 16.8 269.05 16.87 268.45 16.87C267.78 16.87 267.18 16.75 266.64 16.52C266.09 16.29 265.63 15.94 265.25 15.48C264.87 15.01 264.57 14.44 264.37 13.75C264.16 13.07 264.05 12.28 264.05 11.37L264.05 11.14L272.7 11.14ZM297.03 12.63C296.81 12.3 296.56 12.04 296.3 11.84C296.03 11.64 295.71 11.5 295.33 11.41C295.64 11.32 295.9 11.19 296.12 11C296.34 10.82 296.54 10.6 296.72 10.35L300.21 5.61L299.34 5.61C299.08 5.61 298.89 5.72 298.76 5.95L295.61 10.22C295.41 10.51 295.16 10.73 294.86 10.89C294.55 11.05 294.23 11.13 293.9 11.13L292.57 11.13L292.57 5.6L291.46 5.6L291.46 11.13L290.12 11.13C289.79 11.13 289.47 11.05 289.17 10.89C288.88 10.73 288.63 10.51 288.43 10.22L285.27 5.95C285.15 5.72 284.96 5.61 284.7 5.61L283.82 5.61L287.32 10.35C287.5 10.6 287.7 10.82 287.92 11C288.14 11.19 288.4 11.32 288.7 11.41C288.33 11.5 288.01 11.64 287.74 11.84C287.47 12.04 287.23 12.3 287.01 12.63L283.46 17.63L284.25 17.63C284.45 17.63 284.62 17.6 284.74 17.54C284.87 17.47 284.96 17.37 285.02 17.22L288.03 12.96C288.26 12.62 288.54 12.36 288.87 12.19C289.2 12.02 289.56 11.93 289.97 11.93L291.46 11.93L291.46 17.64L292.57 17.64L292.57 11.93L294.07 11.93C294.47 11.93 294.84 12.02 295.17 12.19C295.49 12.36 295.77 12.62 296 12.96L299 17.22C299.07 17.37 299.17 17.47 299.29 17.54C299.41 17.6 299.57 17.63 299.78 17.63L300.58 17.63L297.03 12.63ZM313.12 5.61C313.04 5.61 312.95 5.64 312.88 5.7C312.8 5.76 312.74 5.83 312.69 5.91C311.38 7.68 310.2 9.25 309.17 10.65C308.72 11.24 308.29 11.83 307.87 12.4C307.44 12.97 307.06 13.49 306.73 13.94C306.39 14.4 306.11 14.76 305.9 15.05C305.69 15.33 305.58 15.48 305.57 15.49C305.53 15.57 305.47 15.65 305.42 15.74C305.36 15.83 305.31 15.94 305.26 16.05C305.28 15.92 305.29 15.79 305.3 15.66C305.31 15.53 305.31 15.41 305.31 15.3L305.31 5.61L304.16 5.61L304.16 17.63L304.82 17.63C304.91 17.63 304.99 17.6 305.07 17.54C305.14 17.48 305.2 17.41 305.25 17.34C306.56 15.57 307.74 13.99 308.78 12.59C309.21 12 309.65 11.41 310.07 10.84C310.5 10.27 310.88 9.76 311.22 9.31C311.56 8.86 311.83 8.49 312.04 8.2C312.24 7.92 312.36 7.76 312.37 7.75C312.43 7.68 312.48 7.59 312.53 7.5C312.58 7.41 312.64 7.3 312.69 7.19C312.68 7.32 312.67 7.45 312.66 7.58C312.65 7.71 312.65 7.83 312.65 7.94L312.65 17.63L313.78 17.63L313.78 5.61L313.12 5.61ZM318.33 7.17C318.37 7.23 318.41 7.28 318.45 7.3C318.49 7.32 318.54 7.34 318.61 7.34C318.68 7.34 318.79 7.28 318.94 7.18C319.08 7.08 319.28 6.96 319.53 6.83C319.78 6.7 320.09 6.58 320.46 6.48C320.83 6.37 321.28 6.32 321.81 6.32C322.36 6.32 322.84 6.38 323.24 6.51C323.64 6.63 323.97 6.8 324.24 7.01C324.5 7.22 324.69 7.46 324.82 7.73C324.95 8 325.01 8.28 325.01 8.57C325.01 8.9 324.93 9.2 324.77 9.48C324.61 9.76 324.39 10 324.1 10.21C323.81 10.41 323.45 10.57 323.03 10.69C322.62 10.81 322.15 10.87 321.64 10.87L320.3 10.87L320.3 11.66L321.64 11.66C322.23 11.66 322.75 11.73 323.21 11.85C323.66 11.98 324.04 12.15 324.35 12.37C324.66 12.59 324.89 12.86 325.04 13.17C325.2 13.48 325.28 13.82 325.28 14.19C325.28 14.58 325.19 14.95 325.03 15.28C324.87 15.61 324.63 15.89 324.33 16.13C324.03 16.37 323.67 16.55 323.24 16.68C322.82 16.82 322.35 16.88 321.82 16.88C321.26 16.88 320.78 16.81 320.38 16.68C319.99 16.54 319.66 16.39 319.39 16.23C319.12 16.07 318.91 15.92 318.76 15.78C318.6 15.65 318.48 15.58 318.38 15.58C318.29 15.58 318.21 15.62 318.14 15.7L317.84 16.09C318.03 16.33 318.26 16.55 318.54 16.76C318.83 16.97 319.14 17.15 319.49 17.31C319.84 17.46 320.22 17.58 320.63 17.66C321.03 17.75 321.46 17.79 321.89 17.79C322.52 17.79 323.1 17.7 323.64 17.54C324.18 17.37 324.65 17.13 325.06 16.82C325.47 16.51 325.78 16.14 326.02 15.7C326.25 15.27 326.36 14.8 326.36 14.27C326.36 13.52 326.12 12.87 325.62 12.32C325.13 11.78 324.4 11.41 323.45 11.2C323.92 11.09 324.33 10.93 324.66 10.73C324.99 10.52 325.26 10.29 325.46 10.04C325.66 9.79 325.81 9.53 325.9 9.25C325.99 8.97 326.04 8.71 326.04 8.45C326.04 8.08 325.95 7.71 325.78 7.35C325.61 6.99 325.35 6.66 325 6.38C324.65 6.09 324.21 5.86 323.69 5.68C323.16 5.5 322.55 5.42 321.85 5.42C321 5.42 320.27 5.54 319.64 5.78C319.02 6.03 318.49 6.35 318.07 6.74L318.33 7.17ZM338.97 5.61L338.97 10.72L331.91 10.72L331.91 5.61L330.76 5.61L330.76 17.63L331.91 17.63L331.91 11.6L338.97 11.6L338.97 17.63L340.11 17.63L340.11 5.61L338.97 5.61ZM354.19 5.61C354.1 5.61 354.02 5.64 353.94 5.7C353.87 5.76 353.81 5.83 353.76 5.91C352.44 7.68 351.27 9.25 350.23 10.65C349.79 11.24 349.35 11.83 348.93 12.4C348.51 12.97 348.13 13.49 347.79 13.94C347.45 14.4 347.18 14.76 346.97 15.05C346.76 15.33 346.65 15.48 346.64 15.49C346.59 15.57 346.54 15.65 346.48 15.74C346.43 15.83 346.37 15.94 346.33 16.05C346.34 15.92 346.35 15.79 346.36 15.66C346.37 15.53 346.37 15.41 346.37 15.3L346.37 5.61L345.23 5.61L345.23 17.63L345.88 17.63C345.97 17.63 346.05 17.6 346.13 17.54C346.21 17.48 346.27 17.41 346.31 17.34C347.63 15.57 348.8 13.99 349.84 12.59C350.28 12 350.71 11.41 351.14 10.84C351.56 10.27 351.94 9.76 352.28 9.31C352.62 8.86 352.89 8.49 353.1 8.2C353.31 7.92 353.42 7.76 353.44 7.75C353.49 7.68 353.55 7.59 353.6 7.5C353.65 7.41 353.7 7.3 353.76 7.19C353.74 7.32 353.73 7.45 353.72 7.58C353.71 7.71 353.71 7.83 353.71 7.94L353.71 17.63L354.85 17.63L354.85 5.61L354.19 5.61Z" />
    </symbol>
    <symbol id="about-title" viewBox="0 0 783 62">
    	<path d="M20.45 27.77C22.32 29.69 23.26 31.95 23.26 34.57C23.26 37.21 22.32 39.47 20.45 41.37C18.54 43.24 16.29 44.18 13.68 44.18C11.05 44.18 8.79 43.24 6.9 41.37C5.03 39.47 4.09 37.21 4.09 34.57C4.09 34.06 3.92 33.63 3.57 33.28C3.21 32.93 2.79 32.75 2.28 32.75C1.77 32.75 1.35 32.93 1.01 33.28C0.67 33.63 0.5 34.06 0.5 34.57C0.5 38.22 1.77 41.35 4.33 43.94C6.92 46.5 10.03 47.78 13.68 47.78C17.34 47.78 20.44 46.5 23 43.94C25.57 41.37 26.85 38.24 26.85 34.57C26.85 30.92 25.58 27.79 23.03 25.19C22.21 24.37 21.28 23.65 20.25 23.03C20.97 22.5 21.6 21.97 22.15 21.44C24.49 19.1 25.66 16.26 25.66 12.92C25.66 9.6 24.49 6.77 22.15 4.42C19.81 2.08 16.99 0.91 13.68 0.91C10.36 0.91 7.54 2.08 5.2 4.42C2.86 6.77 1.7 9.6 1.7 12.92C1.7 13.43 1.87 13.86 2.21 14.21C2.55 14.56 2.97 14.73 3.48 14.73C3.98 14.73 4.41 14.56 4.76 14.21C5.11 13.86 5.29 13.43 5.29 12.92C5.29 10.59 6.11 8.61 7.74 6.97C9.38 5.33 11.36 4.51 13.68 4.51C15.99 4.51 17.97 5.33 19.61 6.97C21.24 8.65 22.06 10.63 22.06 12.92C22.06 15.24 21.24 17.22 19.61 18.87C17.99 20.51 16.01 21.33 13.68 21.33C13.17 21.33 12.74 21.5 12.39 21.85C12.04 22.21 11.86 22.64 11.86 23.14C11.86 23.65 12.04 24.08 12.39 24.43C12.74 24.78 13.17 24.96 13.68 24.96C16.32 24.96 18.58 25.9 20.45 27.77L20.45 27.77ZM57.9 22.32C60.37 24.8 61.61 27.81 61.61 31.35C61.61 34.86 60.37 37.86 57.9 40.34C55.4 42.84 52.4 44.09 48.9 44.09C45.39 44.09 42.39 42.84 39.9 40.34C37.41 37.84 36.16 34.84 36.16 31.35C36.16 27.83 37.41 24.82 39.9 22.32C42.39 19.84 45.39 18.6 48.9 18.6C52.4 18.6 55.4 19.84 57.9 22.32L57.9 22.32ZM61.61 47.93C61.61 49.98 60.75 52.04 59.04 54.11C56.31 56.84 53.02 58.21 49.16 58.21C47.25 58.21 45.47 57.87 43.83 57.2C42.18 56.53 40.68 55.51 39.31 54.14C38.36 53.18 37.55 52.12 36.89 50.95C36.77 50.71 36.64 50.53 36.48 50.39C36.11 50.02 35.67 49.83 35.17 49.83C34.66 49.83 34.23 50.01 33.88 50.36C33.53 50.71 33.35 51.14 33.35 51.65C33.35 52 33.46 52.36 33.68 52.73C34.45 54.16 35.48 55.48 36.74 56.69C40.15 60.13 44.29 61.84 49.16 61.84C54.03 61.84 58.18 60.13 61.61 56.69C64.04 54.21 65.26 51.29 65.26 47.93L65.26 31.35C65.26 26.82 63.66 22.96 60.47 19.77C57.27 16.57 53.42 14.97 48.9 14.97C44.38 14.97 40.52 16.57 37.33 19.77C34.13 22.96 32.54 26.82 32.54 31.35C32.54 35.86 34.13 39.72 37.33 42.92C40.52 46.1 44.38 47.69 48.9 47.69C53.81 47.69 58.04 45.72 61.61 41.78L61.61 47.93ZM98.47 19.77C95.27 16.57 91.42 14.97 86.9 14.97C82.38 14.97 78.52 16.57 75.33 19.77C72.13 22.98 70.53 26.84 70.53 31.38C70.53 35.91 72.13 39.77 75.33 42.98C78.52 46.18 82.38 47.78 86.9 47.78C91.42 47.78 95.27 46.18 98.47 42.98C101.66 39.77 103.26 35.91 103.26 31.38C103.26 26.84 101.66 22.98 98.47 19.77L98.47 19.77ZM95.9 22.35C98.37 24.83 99.61 27.84 99.61 31.38C99.61 34.91 98.37 37.92 95.9 40.4C93.4 42.9 90.4 44.15 86.9 44.15C83.39 44.15 80.39 42.9 77.9 40.4C75.4 37.9 74.16 34.89 74.16 31.38C74.16 27.86 75.4 24.85 77.9 22.35C80.39 19.85 83.39 18.6 86.9 18.6C90.4 18.6 93.4 19.85 95.9 22.35L95.9 22.35ZM115.9 22.35C118.39 19.85 121.39 18.6 124.9 18.6C128.4 18.6 131.4 19.85 133.9 22.35C136.37 24.83 137.61 27.84 137.61 31.38C137.61 34.91 136.37 37.92 133.9 40.4C131.4 42.9 128.4 44.15 124.9 44.15C121.39 44.15 118.39 42.9 115.9 40.4C113.4 37.9 112.16 34.89 112.16 31.38C112.16 27.86 113.4 24.85 115.9 22.35L115.9 22.35ZM112.16 41.83L113.33 42.98C116.52 46.18 120.38 47.78 124.9 47.78C129.41 47.78 133.27 46.18 136.47 42.98C139.66 39.77 141.26 35.91 141.26 31.38C141.26 26.84 139.66 22.98 136.47 19.77C133.27 16.57 129.41 14.97 124.9 14.97C120.38 14.97 116.52 16.57 113.33 19.77C110.13 22.98 108.53 26.84 108.53 31.38L108.53 60.03C108.53 60.54 108.71 60.97 109.06 61.32C109.41 61.67 109.84 61.84 110.34 61.84C110.85 61.84 111.28 61.67 111.63 61.32C111.98 60.97 112.16 60.54 112.16 60.03L112.16 41.83ZM174.47 19.77C171.27 16.57 167.41 14.97 162.89 14.97C158.38 14.97 154.52 16.57 151.32 19.77C148.13 22.98 146.53 26.84 146.53 31.38C146.53 35.91 148.13 39.77 151.32 42.98C154.52 46.18 158.38 47.78 162.89 47.78C167.41 47.78 171.27 46.18 174.47 42.98C177.66 39.77 179.26 35.91 179.26 31.38C179.26 26.84 177.66 22.98 174.47 19.77L174.47 19.77ZM171.89 22.35C174.37 24.83 175.6 27.84 175.6 31.38C175.6 34.91 174.37 37.92 171.89 40.4C169.4 42.9 166.4 44.15 162.89 44.15C159.39 44.15 156.39 42.9 153.9 40.4C151.4 37.9 150.16 34.89 150.16 31.38C150.16 27.86 151.4 24.85 153.9 22.35C156.39 19.85 159.39 18.6 162.89 18.6C166.4 18.6 169.4 19.85 171.89 22.35L171.89 22.35ZM188.24 29.56L188.24 18.6L198.53 18.6C200.03 18.6 201.31 19.14 202.38 20.21C203.45 21.33 203.99 22.62 203.99 24.08C203.99 25.58 203.45 26.87 202.38 27.95C201.31 29.02 200.03 29.56 198.53 29.56L188.24 29.56ZM188.24 44.15L188.24 33.19L200.95 33.19C202.41 33.19 203.7 33.73 204.81 34.8C205.88 35.88 206.42 37.17 206.42 38.67C206.42 40.14 205.88 41.42 204.81 42.54C203.7 43.61 202.41 44.15 200.95 44.15L188.24 44.15ZM186.4 14.97C185.89 14.97 185.47 15.15 185.12 15.5C184.76 15.85 184.59 16.28 184.59 16.79L184.59 45.97C184.59 46.47 184.76 46.9 185.12 47.25C185.47 47.61 185.89 47.78 186.4 47.78L200.95 47.78C203.48 47.78 205.63 46.9 207.38 45.14C209.15 43.37 210.04 41.21 210.04 38.67C210.04 36.15 209.16 33.99 207.41 32.2C206.82 31.57 206.05 30.99 205.07 30.47C205.91 29.47 206.54 28.45 206.97 27.39C207.4 26.34 207.61 25.23 207.61 24.08C207.61 21.54 206.73 19.39 204.95 17.64C203.2 15.86 201.06 14.97 198.53 14.97L186.4 14.97ZM219.23 44.15L219.23 33.19L230.74 33.19C232.2 33.19 233.49 33.73 234.6 34.8C235.67 35.88 236.2 37.17 236.2 38.67C236.2 40.14 235.67 41.42 234.6 42.54C233.49 43.61 232.2 44.15 230.74 44.15L219.23 44.15ZM219.23 16.79C219.23 16.28 219.05 15.85 218.7 15.5C218.35 15.15 217.92 14.97 217.42 14.97C216.91 14.97 216.48 15.15 216.13 15.5C215.8 15.83 215.61 16.24 215.58 16.73L215.58 45.97C215.58 46.47 215.76 46.9 216.12 47.25C216.48 47.61 216.91 47.78 217.42 47.78L230.74 47.78C233.27 47.78 235.42 46.9 237.17 45.14C238.94 43.37 239.83 41.21 239.83 38.67C239.83 36.13 238.94 33.98 237.17 32.23C235.42 30.45 233.27 29.56 230.74 29.56L219.23 29.56L219.23 16.79ZM249.02 29.56C249.6 26.63 250.83 24.23 252.7 22.35C255.19 19.85 258.19 18.6 261.7 18.6C265.2 18.6 268.2 19.85 270.7 22.35C272.59 24.25 273.8 26.65 274.35 29.56L249.02 29.56ZM269.88 41.13C268.75 42.11 267.5 42.86 266.14 43.37C264.77 43.89 263.29 44.15 261.7 44.15C258.19 44.15 255.19 42.9 252.7 40.4C250.83 38.52 249.6 36.12 249.02 33.19L276.25 33.19C276.75 33.19 277.18 33.02 277.53 32.66C277.88 32.31 278.06 31.88 278.06 31.38C278.06 26.84 276.46 22.98 273.27 19.77C270.07 16.57 266.22 14.97 261.7 14.97C257.18 14.97 253.32 16.57 250.13 19.77C246.93 22.98 245.33 26.84 245.33 31.38C245.33 35.91 246.93 39.77 250.13 42.98C253.32 46.18 257.18 47.78 261.7 47.78C265.77 47.78 269.32 46.46 272.36 43.83C272.67 43.49 272.83 43.07 272.83 42.57C272.83 42.06 272.65 41.62 272.3 41.26C271.95 40.9 271.52 40.72 271.02 40.72C270.59 40.72 270.21 40.86 269.88 41.13L269.88 41.13ZM317.8 33.19C318.3 33.19 318.74 33.02 319.1 32.66C319.46 32.31 319.64 31.88 319.64 31.38C319.64 30.87 319.46 30.44 319.1 30.09C318.74 29.73 318.3 29.56 317.8 29.56L303.27 29.56C302.77 29.56 302.33 29.73 301.97 30.09C301.61 30.44 301.43 30.87 301.43 31.38C301.43 31.88 301.61 32.31 301.97 32.66C302.33 33.02 302.77 33.19 303.27 33.19L317.8 33.19ZM347.28 29.56L347.28 18.6L357.56 18.6C359.06 18.6 360.35 19.14 361.42 20.21C362.49 21.33 363.03 22.62 363.03 24.08C363.03 25.58 362.49 26.87 361.42 27.95C360.35 29.02 359.06 29.56 357.56 29.56L347.28 29.56ZM347.28 44.15L347.28 33.19L359.99 33.19C361.45 33.19 362.73 33.73 363.84 34.8C364.92 35.88 365.45 37.17 365.45 38.67C365.45 40.14 364.92 41.42 363.84 42.54C362.73 43.61 361.45 44.15 359.99 44.15L347.28 44.15ZM345.44 14.97C344.93 14.97 344.5 15.15 344.15 15.5C343.8 15.85 343.63 16.28 343.63 16.79L343.63 45.97C343.63 46.47 343.8 46.9 344.15 47.25C344.5 47.61 344.93 47.78 345.44 47.78L359.99 47.78C362.52 47.78 364.66 46.9 366.42 45.14C368.19 43.37 369.07 41.21 369.07 38.67C369.07 36.15 368.2 33.99 366.45 32.2C365.86 31.57 365.08 30.99 364.11 30.47C364.95 29.47 365.58 28.45 366.01 27.39C366.44 26.34 366.65 25.23 366.65 24.08C366.65 21.54 365.76 19.39 363.99 17.64C362.24 15.86 360.09 14.97 357.56 14.97L345.44 14.97ZM415.77 33.19L415.77 45.97C415.77 46.47 415.94 46.9 416.29 47.25C416.64 47.61 417.07 47.78 417.58 47.78C418.08 47.78 418.51 47.61 418.86 47.25C419.21 46.9 419.39 46.47 419.39 45.97L419.39 16.79C419.39 16.28 419.21 15.85 418.86 15.5C418.51 15.15 418.08 14.97 417.58 14.97C417.07 14.97 416.64 15.15 416.29 15.5C415.94 15.85 415.77 16.28 415.77 16.79L415.77 29.56L396.36 29.56L396.36 16.79C396.36 16.28 396.19 15.85 395.84 15.5C395.49 15.15 395.06 14.97 394.55 14.97C394.05 14.97 393.62 15.15 393.27 15.5C392.92 15.85 392.74 16.28 392.74 16.79L392.74 45.97C392.74 46.47 392.92 46.9 393.27 47.25C393.62 47.61 394.05 47.78 394.55 47.78C395.06 47.78 395.49 47.61 395.84 47.25C396.19 46.9 396.36 46.47 396.36 45.97L396.36 33.19L415.77 33.19ZM450.55 22.35C453.02 24.83 454.26 27.84 454.26 31.38C454.26 34.91 453.02 37.92 450.55 40.4C448.06 42.9 445.06 44.15 441.55 44.15C438.04 44.15 435.04 42.9 432.55 40.4C430.06 37.9 428.81 34.89 428.81 31.38C428.81 27.86 430.06 24.85 432.55 22.35C435.04 19.85 438.04 18.6 441.55 18.6C445.06 18.6 448.06 19.85 450.55 22.35L450.55 22.35ZM454.26 45.97C454.26 46.47 454.44 46.9 454.8 47.25C455.16 47.61 455.6 47.78 456.1 47.78C456.61 47.78 457.04 47.61 457.39 47.25C457.74 46.9 457.91 46.47 457.91 45.97L457.91 31.38C457.91 26.84 456.32 22.98 453.12 19.77C449.93 16.57 446.07 14.97 441.55 14.97C437.03 14.97 433.17 16.57 429.98 19.77C426.79 22.98 425.19 26.84 425.19 31.38C425.19 35.91 426.79 39.77 429.98 42.98C433.17 46.18 437.03 47.78 441.55 47.78C446.09 47.78 450.33 45.8 454.26 41.83L454.26 45.97ZM506.08 35.01C506.08 37.53 505.19 39.68 503.42 41.45C501.63 43.25 499.49 44.15 496.99 44.15C494.5 44.15 492.36 43.25 490.57 41.45C488.79 39.68 487.91 37.53 487.91 35.01L487.91 16.79C487.91 16.28 487.73 15.85 487.38 15.5C487.03 15.15 486.6 14.97 486.1 14.97C485.59 14.97 485.15 15.15 484.79 15.5C484.43 15.85 484.25 16.28 484.25 16.79L484.25 35.01C484.25 37.53 483.37 39.68 481.6 41.45C479.81 43.25 477.67 44.15 475.18 44.15C472.71 44.15 470.58 43.25 468.79 41.45C467 39.68 466.11 37.53 466.11 35.01L466.11 16.79C466.11 16.28 465.93 15.85 465.58 15.5C465.23 15.15 464.8 14.97 464.3 14.97C463.79 14.97 463.36 15.15 463.01 15.5C462.66 15.85 462.49 16.28 462.49 16.79L462.49 35.01C462.49 38.54 463.72 41.55 466.19 44.03C468.68 46.53 471.68 47.78 475.18 47.78C478.68 47.78 481.68 46.53 484.17 44.03C484.79 43.41 485.43 42.65 486.1 41.75C486.76 42.65 487.39 43.41 487.99 44.03C490.49 46.53 493.49 47.78 497 47.78C500.09 47.78 503.12 46.52 506.08 44L506.08 45.97C506.08 46.47 506.26 46.9 506.61 47.25C506.96 47.61 507.39 47.78 507.89 47.78C508.4 47.78 508.83 47.61 509.19 47.25C509.55 46.9 509.73 46.47 509.73 45.97L509.73 16.79C509.73 16.28 509.55 15.85 509.19 15.5C508.83 15.15 508.4 14.97 507.89 14.97C507.39 14.97 506.96 15.15 506.61 15.5C506.26 15.85 506.08 16.28 506.08 16.79L506.08 35.01ZM545.19 16.79C545.19 16.28 545.01 15.85 544.65 15.5C544.29 15.15 543.86 14.97 543.35 14.97C542.84 14.97 542.41 15.15 542.06 15.5C541.71 15.85 541.54 16.28 541.54 16.79L541.54 32.58C541.54 35.78 540.41 38.5 538.15 40.75C535.89 43.02 533.18 44.15 530.03 44.15C526.91 44.15 524.19 43.02 521.87 40.75C519.63 38.5 518.51 35.78 518.51 32.58L518.51 16.79C518.51 16.28 518.34 15.85 517.99 15.5C517.64 15.15 517.21 14.97 516.7 14.97C516.19 14.97 515.77 15.15 515.42 15.5C515.07 15.85 514.89 16.28 514.89 16.79L514.89 32.58C514.89 36.8 516.36 40.39 519.3 43.36C522.3 46.31 525.88 47.78 530.03 47.78C534.12 47.78 537.95 46.04 541.54 42.57L541.54 45.97C541.54 46.47 541.71 46.9 542.06 47.25C542.41 47.61 542.84 47.78 543.35 47.78C543.86 47.78 544.29 47.61 544.65 47.25C545.01 46.9 545.19 46.47 545.19 45.97L545.19 16.79ZM550.9 44.85C550.67 45.18 550.55 45.55 550.55 45.97C550.55 46.47 550.73 46.9 551.09 47.25C551.45 47.61 551.89 47.78 552.39 47.78C552.9 47.78 553.31 47.6 553.62 47.23L564.49 34.19L575.39 47.23C575.7 47.6 576.11 47.78 576.61 47.78C577.12 47.78 577.55 47.61 577.9 47.25C578.25 46.9 578.43 46.47 578.43 45.97C578.43 45.55 578.32 45.18 578.1 44.85L566.86 31.35L578.02 17.99C578.29 17.65 578.43 17.25 578.43 16.79C578.43 16.28 578.25 15.85 577.9 15.5C577.55 15.15 577.12 14.97 576.61 14.97C576.11 14.97 575.67 15.16 575.3 15.53L564.49 28.48L553.71 15.53C553.34 15.16 552.9 14.97 552.39 14.97C551.89 14.97 551.45 15.15 551.09 15.5C550.73 15.85 550.55 16.28 550.55 16.79C550.55 17.27 550.7 17.67 550.99 17.99L562.12 31.35L550.9 44.85ZM609.34 22.35C611.83 19.85 614.83 18.6 618.34 18.6C621.84 18.6 624.84 19.85 627.34 22.35C629.81 24.83 631.05 27.84 631.05 31.38C631.05 34.91 629.81 37.92 627.34 40.4C624.84 42.9 621.84 44.15 618.34 44.15C614.83 44.15 611.83 42.9 609.34 40.4C606.84 37.9 605.6 34.89 605.6 31.38C605.6 27.86 606.84 24.85 609.34 22.35L609.34 22.35ZM605.6 41.83L606.77 42.98C609.96 46.18 613.82 47.78 618.34 47.78C622.86 47.78 626.71 46.18 629.91 42.98C633.1 39.77 634.7 35.91 634.7 31.38C634.7 26.84 633.1 22.98 629.91 19.77C626.71 16.57 622.86 14.97 618.34 14.97C613.82 14.97 609.96 16.57 606.77 19.77C603.57 22.98 601.98 26.84 601.98 31.38L601.98 60.03C601.98 60.54 602.15 60.97 602.5 61.32C602.85 61.67 603.28 61.84 603.79 61.84C604.29 61.84 604.72 61.67 605.07 61.32C605.42 60.97 605.6 60.54 605.6 60.03L605.6 41.83ZM646.37 59.38C646.3 59.56 646.26 59.77 646.26 60.03C646.26 60.54 646.43 60.97 646.78 61.32C647.13 61.67 647.56 61.84 648.07 61.84C648.57 61.84 649.01 61.66 649.38 61.29C649.56 61.11 649.69 60.89 649.79 60.61L667.79 17.43C667.87 17.2 667.91 16.98 667.91 16.79C667.89 16.28 667.7 15.85 667.35 15.5C667 15.15 666.57 14.97 666.07 14.97C665.54 14.97 665.12 15.13 664.81 15.44C664.6 15.65 664.43 15.92 664.31 16.23L653.94 41.13L643.57 16.23C643.45 15.92 643.31 15.67 643.13 15.5C642.78 15.15 642.35 14.97 641.84 14.97C641.34 14.97 640.9 15.15 640.54 15.5C640.18 15.85 640 16.28 640 16.79C640 17.02 640.04 17.26 640.12 17.52L651.95 45.94L646.37 59.38ZM673.36 45.97C673.36 46.47 673.53 46.9 673.88 47.25C674.23 47.61 674.66 47.78 675.17 47.78C675.67 47.78 676.11 47.61 676.47 47.25C676.83 46.9 677.01 46.47 677.01 45.97L677.01 36.18L679.9 33.69L695.83 47.34C696.16 47.64 696.55 47.78 696.99 47.78C697.5 47.78 697.93 47.61 698.28 47.25C698.63 46.9 698.81 46.47 698.81 45.97C698.81 45.42 698.63 44.98 698.28 44.65L682.74 31.29L698.34 18.05C698.65 17.69 698.81 17.27 698.81 16.79C698.81 16.28 698.63 15.85 698.28 15.5C697.93 15.15 697.5 14.97 696.99 14.97C696.51 14.97 696.1 15.13 695.77 15.44L677.01 31.38L677.01 16.79C677.01 16.28 676.83 15.85 676.47 15.5C676.11 15.15 675.67 14.97 675.17 14.97C674.66 14.97 674.23 15.15 673.88 15.5C673.53 15.85 673.36 16.28 673.36 16.79L673.36 45.97ZM730 22.35C732.47 24.83 733.71 27.84 733.71 31.38C733.71 34.91 732.47 37.92 730 40.4C727.5 42.9 724.5 44.15 721 44.15C717.49 44.15 714.49 42.9 712 40.4C709.5 37.9 708.26 34.89 708.26 31.38C708.26 27.86 709.5 24.85 712 22.35C714.49 19.85 717.49 18.6 721 18.6C724.5 18.6 727.5 19.85 730 22.35L730 22.35ZM733.71 45.97C733.71 46.47 733.89 46.9 734.25 47.25C734.61 47.61 735.04 47.78 735.55 47.78C736.05 47.78 736.48 47.61 736.83 47.25C737.18 46.9 737.36 46.47 737.36 45.97L737.36 31.38C737.36 26.84 735.76 22.98 732.57 19.77C729.37 16.57 725.52 14.97 721 14.97C716.48 14.97 712.62 16.57 709.43 19.77C706.23 22.98 704.63 26.84 704.63 31.38C704.63 35.91 706.23 39.77 709.43 42.98C712.62 46.18 716.48 47.78 721 47.78C725.54 47.78 729.77 45.8 733.71 41.83L733.71 45.97ZM742.66 44.85C742.43 45.18 742.31 45.55 742.31 45.97C742.31 46.47 742.49 46.9 742.85 47.25C743.21 47.61 743.65 47.78 744.15 47.78C744.66 47.78 745.07 47.6 745.38 47.23L756.25 34.19L767.15 47.23C767.46 47.6 767.87 47.78 768.38 47.78C768.88 47.78 769.31 47.61 769.66 47.25C770.01 46.9 770.19 46.47 770.19 45.97C770.19 45.55 770.08 45.18 769.87 44.85L758.62 31.35L769.78 17.99C770.05 17.65 770.19 17.25 770.19 16.79C770.19 16.28 770.01 15.85 769.66 15.5C769.31 15.15 768.88 14.97 768.38 14.97C767.87 14.97 767.43 15.16 767.06 15.53L756.25 28.48L745.47 15.53C745.1 15.16 744.66 14.97 744.15 14.97C743.65 14.97 743.21 15.15 742.85 15.5C742.49 15.85 742.31 16.28 742.31 16.79C742.31 17.27 742.46 17.67 742.75 17.99L753.88 31.35L742.66 44.85ZM781.36 42.6C780.8 42.01 780.09 41.72 779.23 41.72C778.37 41.72 777.65 42.01 777.07 42.6C776.48 43.16 776.19 43.88 776.19 44.73C776.19 45.59 776.48 46.32 777.07 46.9C777.65 47.49 778.37 47.78 779.23 47.78C780.09 47.78 780.8 47.49 781.36 46.9C781.95 46.32 782.24 45.59 782.24 44.73C782.24 43.88 781.95 43.16 781.36 42.6L781.36 42.6ZM777.39 36.27C777.39 36.76 777.57 37.17 777.94 37.5C778.3 37.87 778.72 38.06 779.23 38.06C779.74 38.06 780.17 37.87 780.52 37.5C780.87 37.19 781.04 36.78 781.04 36.27L781.04 2.69C781.04 2.19 780.87 1.76 780.52 1.4C780.17 1.05 779.74 0.88 779.23 0.88C778.72 0.88 778.29 1.05 777.93 1.4C777.57 1.76 777.39 2.19 777.39 2.69L777.39 36.27Z" />
    </symbol>
</svg>
