<svg xmlns="http://www.w3.org/2000/svg" xmlns:xlink="http://www.w3.org/1999/xlink" width="270" height="23" viewBox="0 0 270 23"><defs><path id="c94xa" d="M548.49 3360.63c.21 0 .4.08.55.23.15.16.23.34.23.55v14.07c0 .21-.08.4-.23.55a.75.75 0 0 1-.55.23.75.75 0 0 1-.55-.23.75.75 0 0 1-.23-.55v-13.28h-7.82v13.28c0 .21-.07.4-.22.55a.75.75 0 0 1-.56.23.75.75 0 0 1-.55-.23.75.75 0 0 1-.23-.55v-14.07c0-.21.08-.4.23-.55a.75.75 0 0 1 .55-.23zm13.78 10.16c0 1.5-.53 2.8-1.6 3.87a5.27 5.27 0 0 1-3.87 1.6c-1.5 0-2.8-.54-3.86-1.6a5.27 5.27 0 0 1-1.6-3.87c0-1.51.53-2.8 1.6-3.87a5.27 5.27 0 0 1 3.86-1.6c1.51 0 2.8.53 3.87 1.6a5.27 5.27 0 0 1 1.6 3.87zm-5.47-3.9c-1.08 0-2 .37-2.76 1.14a3.77 3.77 0 0 0-1.14 2.76c0 1.08.38 2 1.14 2.76a3.76 3.76 0 0 0 2.76 1.15c1.08 0 2-.39 2.77-1.15a3.76 3.76 0 0 0 1.14-2.76c0-1.08-.38-2-1.14-2.76a3.77 3.77 0 0 0-2.77-1.15zm7.54-.79c0-.21.07-.4.23-.55a.75.75 0 0 1 .55-.23c.21 0 .4.08.55.23.15.15.23.34.23.55v2.35c0 .75.27 1.4.8 1.93s1.18.8 1.93.8c.76 0 1.4-.27 1.94-.8.53-.53.8-1.18.8-1.92v-2.36c0-.21.07-.4.23-.55a.75.75 0 0 1 .55-.23c.21 0 .4.08.55.23.15.15.23.34.23.55v9.38c0 .21-.08.4-.23.55a.75.75 0 0 1-.55.23.75.75 0 0 1-.55-.23.75.75 0 0 1-.23-.55v-3.72a4.1 4.1 0 0 1-2.74.98c-1.18 0-2.2-.42-3.03-1.26a4.14 4.14 0 0 1-1.26-3.03zm19.96 3.9c-.14-.74-.5-1.4-1.07-1.97a3.77 3.77 0 0 0-2.77-1.15c-1.08 0-2 .38-2.76 1.15a3.76 3.76 0 0 0-1.08 1.98zm-1.32 3.77c.15-.11.3-.17.5-.17s.39.08.54.23c.16.15.23.34.23.55 0 .22-.07.4-.22.56-1.01.88-2.2 1.32-3.57 1.32-1.5 0-2.8-.54-3.86-1.6a5.27 5.27 0 0 1-1.6-3.87c0-1.51.53-2.8 1.6-3.87a5.27 5.27 0 0 1 3.86-1.6c1.51 0 2.8.53 3.87 1.6a5.27 5.27 0 0 1 1.6 3.87c0 .21-.07.4-.23.55a.75.75 0 0 1-.55.23h-8.53c.15.75.5 1.41 1.08 1.98a3.76 3.76 0 0 0 2.76 1.15c.98 0 1.82-.31 2.52-.93zm8.92-5.19l-2.41 7.24a1 1 0 0 1-.16.22.78.78 0 0 1-.55.23.75.75 0 0 1-.55-.23.75.75 0 0 1-.23-.55c0-.1.02-.2.05-.3l3.12-9.36a.76.76 0 0 1 .73-.5c.22 0 .4.07.56.21.08.1.14.2.17.29l2.4 7.19 2.4-7.2c.03-.09.1-.18.18-.28a.76.76 0 0 1 .54-.21c.22 0 .4.07.56.21.08.1.14.2.18.29l3.11 9.35c.04.1.06.2.06.3 0 .22-.08.4-.23.56a.75.75 0 0 1-.55.23.75.75 0 0 1-.55-.23.87.87 0 0 1-.16-.22l-2.42-7.24-2.36 7.1a.87.87 0 0 1-.2.36.78.78 0 0 1-.56.23.75.75 0 0 1-.55-.23.97.97 0 0 1-.21-.36zm14.64 6.89l-3.76-9a.76.76 0 0 1-.08-.37c0-.21.07-.4.23-.55a.75.75 0 0 1 .55-.23.78.78 0 0 1 .74.52l3.17 7.59 3.16-7.6c.04-.1.1-.2.2-.29a.75.75 0 0 1 .54-.22c.22 0 .4.08.55.23.16.15.23.34.23.55 0 .13-.03.25-.08.36l-5.83 13.97a.8.8 0 0 1-.18.28.76.76 0 0 1-.56.24.75.75 0 0 1-.55-.23.75.75 0 0 1-.23-.56c0-.13.03-.25.09-.36zm24.9-4.68c0 1.5-.54 2.8-1.6 3.87a5.27 5.27 0 0 1-3.87 1.6c-1.51 0-2.8-.54-3.87-1.6a5.27 5.27 0 0 1-1.6-3.87c0-1.51.53-2.8 1.6-3.87a5.27 5.27 0 0 1 3.87-1.6c1.5 0 2.8.53 3.86 1.6a5.27 5.27 0 0 1 1.6 3.87zm-5.47-3.9c-1.08 0-2 .37-2.77 1.14a3.76 3.76 0 0 0-1.14 2.76c0 1.08.38 2 1.14 2.76a3.76 3.76 0 0 0 2.77 1.15c1.08 0 2-.39 2.76-1.15a3.76 3.76 0 0 0 1.14-2.76c0-1.08-.38-2-1.14-2.76a3.77 3.77 0 0 0-2.76-1.15zm9.1 4.68v3.9c0 .22-.09.4-.24.56a.75.75 0 0 1-.55.23.75.75 0 0 1-.55-.23.75.75 0 0 1-.23-.55v-9.38c0-.21.07-.4.23-.55a.75.75 0 0 1 .55-.23c.21 0 .4.08.55.23.15.15.23.34.23.55v3.9h5.86v-3.9c0-.21.08-.4.23-.55a.75.75 0 0 1 .55-.23c.22 0 .4.08.55.23.16.15.23.34.23.55v9.38c0 .21-.07.4-.23.55a.75.75 0 0 1-.55.23.75.75 0 0 1-.55-.23.75.75 0 0 1-.23-.55v-3.91zm26 3.9c0 .22-.08.4-.23.56a.75.75 0 0 1-.56.23.75.75 0 0 1-.55-.23.75.75 0 0 1-.23-.55v-.64a4.88 4.88 0 0 1-3.51 1.42c-1.4 0-2.6-.5-3.6-1.5a4.9 4.9 0 0 1-1.48-3.58v-5.08c0-.21.07-.4.23-.55a.75.75 0 0 1 .55-.23c.21 0 .4.08.55.23.15.15.23.34.23.55v5.08c0 .97.34 1.8 1.03 2.49a3.39 3.39 0 0 0 2.49 1.03c.97 0 1.8-.35 2.48-1.03a3.39 3.39 0 0 0 1.03-2.49v-5.08c0-.21.08-.4.23-.55a.75.75 0 0 1 .55-.23c.22 0 .4.08.56.23.15.15.22.34.22.55zm10.08-1.73c.13-.1.3-.16.48-.16.21 0 .4.08.55.23.15.15.23.34.23.55 0 .22-.09.41-.25.58-1 .88-2.2 1.32-3.56 1.32-1.51 0-2.8-.54-3.87-1.6a5.27 5.27 0 0 1-1.6-3.87c0-1.51.53-2.8 1.6-3.87a5.27 5.27 0 0 1 3.87-1.6c1.36 0 2.55.44 3.56 1.32.18.16.28.36.28.6 0 .22-.08.4-.23.56a.75.75 0 0 1-.56.23.76.76 0 0 1-.5-.18 3.74 3.74 0 0 0-2.55-.97c-1.08 0-2 .38-2.77 1.15a3.76 3.76 0 0 0-1.14 2.76c0 1.08.38 2 1.14 2.76a3.76 3.76 0 0 0 2.77 1.15c.97 0 1.82-.32 2.55-.96zm3.42-7.64c0-.21.07-.4.23-.55a.75.75 0 0 1 .55-.23c.21 0 .4.08.55.23.15.15.23.34.23.55v.64a4.88 4.88 0 0 1 3.52-1.42c1.4 0 2.6.5 3.59 1.49.99 1 1.48 2.19 1.48 3.59v5.08c0 .21-.07.4-.22.55a.75.75 0 0 1-.56.23.75.75 0 0 1-.55-.23.75.75 0 0 1-.23-.55v-5.08c0-.97-.34-1.8-1.03-2.49a3.39 3.39 0 0 0-2.48-1.03c-.97 0-1.8.35-2.49 1.03a3.39 3.39 0 0 0-1.03 2.49v5.08c0 .21-.08.4-.23.55a.75.75 0 0 1-.55.23.75.75 0 0 1-.55-.23.75.75 0 0 1-.23-.55zm23.16 4.69c0 1.5-.54 2.8-1.6 3.87a5.27 5.27 0 0 1-3.87 1.6c-1.51 0-2.8-.54-3.87-1.6a5.27 5.27 0 0 1-1.6-3.87c0-1.51.53-2.8 1.6-3.87a5.27 5.27 0 0 1 3.87-1.6c1.5 0 2.8.53 3.86 1.6a5.27 5.27 0 0 1 1.6 3.87zm-5.47-3.9c-1.08 0-2 .37-2.77 1.14a3.76 3.76 0 0 0-1.14 2.76c0 1.08.38 2 1.14 2.76a3.76 3.76 0 0 0 2.77 1.15c1.08 0 2-.39 2.76-1.15a3.76 3.76 0 0 0 1.14-2.76c0-1.08-.38-2-1.14-2.76a3.77 3.77 0 0 0-2.76-1.15zm17.63 8.3c.04.1.06.2.06.3 0 .22-.08.4-.23.56a.75.75 0 0 1-.55.23.75.75 0 0 1-.55-.23.74.74 0 0 1-.16-.2l-3.6-7.85-3.59 7.85a.78.78 0 0 1-.7.43.75.75 0 0 1-.55-.23.75.75 0 0 1-.23-.55c0-.11.02-.22.06-.3l4.33-9.45a.74.74 0 0 1 .68-.41c.24 0 .42.07.56.21.05.05.1.12.13.2zm7.2-.5c.43 0 .8-.15 1.1-.45.3-.31.46-.68.46-1.1 0-.44-.15-.8-.46-1.11a1.5 1.5 0 0 0-1.1-.46h-3.52v3.13zm-3.52-8.59v3.9h3.52c.86 0 1.6.31 2.21.92.61.61.91 1.35.91 2.21 0 .87-.3 1.6-.9 2.21-.62.61-1.36.92-2.22.92h-4.3a.75.75 0 0 1-.55-.23.75.75 0 0 1-.23-.55v-9.4c0-.2.08-.39.23-.54a.75.75 0 0 1 .55-.22c.22 0 .4.08.55.23.16.15.23.34.23.55zm9.8 7.28c.26 0 .47.1.63.32.21.27.39.45.53.54.46.3 1 .46 1.65.46.65 0 1.2-.17 1.66-.51.46-.34.69-.72.69-1.15 0-.5-.23-.93-.7-1.3a2.55 2.55 0 0 0-1.65-.56.75.75 0 0 1-.55-.23.75.75 0 0 1-.23-.55c0-.22.08-.4.23-.55a.75.75 0 0 1 .55-.23c.65 0 1.2-.12 1.66-.36.46-.25.69-.55.69-.91 0-.43-.23-.78-.7-1.06a3.18 3.18 0 0 0-1.65-.4c-.64 0-1.2.15-1.65.45-.21.16-.38.33-.51.52a.83.83 0 0 1-.12.15.76.76 0 0 1-.56.23.75.75 0 0 1-.55-.23.75.75 0 0 1-.23-.55c0-.16.04-.3.12-.42.18-.29.43-.56.74-.81a4.3 4.3 0 0 1 2.76-.91c1.08 0 2 .29 2.77.86.76.58 1.14 1.3 1.14 2.17 0 .86-.44 1.55-1.32 2.05a3.41 3.41 0 0 1 1.32 2.64c0 .86-.38 1.61-1.14 2.26-.76.64-1.69.96-2.77.96s-2-.3-2.76-.92c-.28-.22-.5-.46-.68-.71a.75.75 0 0 1-.16-.47c0-.22.08-.4.23-.55a.75.75 0 0 1 .55-.23zm12.62 2.09l-3.75-9a.76.76 0 0 1-.09-.37c0-.21.08-.4.23-.55a.75.75 0 0 1 .55-.23.78.78 0 0 1 .75.52l3.16 7.59 3.17-7.6c.04-.1.1-.2.2-.29a.75.75 0 0 1 .54-.22c.21 0 .4.08.55.23.15.15.23.34.23.55 0 .13-.03.25-.09.36l-5.82 13.97a.8.8 0 0 1-.18.28.76.76 0 0 1-.56.24.75.75 0 0 1-.55-.23.75.75 0 0 1-.23-.56c0-.13.03-.25.09-.36zm16.91-5.46c-.14-.75-.5-1.41-1.07-1.98a3.77 3.77 0 0 0-2.77-1.15c-1.08 0-2 .38-2.76 1.15a3.76 3.76 0 0 0-1.08 1.98zm-1.32 3.76c.15-.11.3-.17.5-.17s.39.08.54.23c.16.15.23.34.23.55 0 .22-.07.4-.22.56-1.01.88-2.2 1.32-3.57 1.32-1.5 0-2.8-.54-3.87-1.6a5.27 5.27 0 0 1-1.6-3.87c0-1.51.54-2.8 1.6-3.87a5.27 5.27 0 0 1 3.87-1.6c1.51 0 2.8.53 3.87 1.6a5.27 5.27 0 0 1 1.6 3.87c0 .21-.07.4-.23.55a.75.75 0 0 1-.55.23h-8.53c.15.75.5 1.41 1.08 1.98a3.76 3.76 0 0 0 2.76 1.15c.98 0 1.82-.31 2.52-.93zm6.58 1.7c0 .22-.08.4-.23.56a.75.75 0 0 1-.55.23.75.75 0 0 1-.56-.23.75.75 0 0 1-.23-.55v-9.38c0-.21.08-.4.23-.55a.75.75 0 0 1 .56-.23c.21 0 .4.08.55.23.15.15.23.34.23.55v.2a4.1 4.1 0 0 1 2.73-.98c1.19 0 2.2.42 3.04 1.26.18.18.34.36.48.56.14-.2.3-.38.48-.56a4.14 4.14 0 0 1 3.03-1.26c1.19 0 2.2.42 3.04 1.26a4.14 4.14 0 0 1 1.26 3.04v5.86c0 .21-.07.4-.23.55a.75.75 0 0 1-.55.23.75.75 0 0 1-.55-.23.75.75 0 0 1-.23-.55v-5.86c0-.76-.27-1.4-.8-1.94a2.64 2.64 0 0 0-1.94-.8c-.75 0-1.4.27-1.93.8-.53.54-.8 1.18-.8 1.94v5.86c0 .21-.08.4-.23.55a.75.75 0 0 1-.55.23.75.75 0 0 1-.55-.23.75.75 0 0 1-.23-.55v-5.86c0-.76-.27-1.4-.8-1.94a2.64 2.64 0 0 0-1.94-.8c-.75 0-1.4.27-1.93.8-.54.54-.8 1.18-.8 1.94zm24.14-1.73c.14-.1.3-.16.48-.16.22 0 .4.08.55.23.16.15.23.34.23.55 0 .22-.08.41-.24.58-1.01.88-2.2 1.32-3.57 1.32-1.5 0-2.8-.54-3.86-1.6a5.27 5.27 0 0 1-1.6-3.87c0-1.51.53-2.8 1.6-3.87a5.27 5.27 0 0 1 3.86-1.6c1.37 0 2.56.44 3.57 1.32.18.16.27.36.27.6 0 .22-.07.4-.23.56a.75.75 0 0 1-.55.23.76.76 0 0 1-.5-.18 3.74 3.74 0 0 0-2.56-.97c-1.08 0-2 .38-2.76 1.15a3.76 3.76 0 0 0-1.14 2.76c0 1.08.38 2 1.14 2.76a3.76 3.76 0 0 0 2.76 1.15c.98 0 1.83-.32 2.55-.96zm10.07-3.73v-3.13h-3.13c-.43 0-.8.16-1.1.46-.31.3-.46.68-.46 1.1 0 .43.15.8.46 1.1.3.31.67.47 1.1.47zm.78-4.69c.21 0 .4.08.55.23.15.15.23.34.23.55v9.38c0 .21-.08.4-.23.55a.75.75 0 0 1-.55.23.75.75 0 0 1-.55-.23.75.75 0 0 1-.23-.55v-3.91h-2.35c-.43 0-.8.15-1.1.46-.13.12-.22.26-.3.4l-1.78 3.34c-.04.1-.1.18-.17.25a.76.76 0 0 1-.56.24.75.75 0 0 1-.55-.23.75.75 0 0 1-.23-.55c0-.17.05-.3.13-.43l1.78-3.36c.1-.2.23-.38.38-.56-.21-.13-.4-.29-.59-.48a2.99 2.99 0 0 1-.92-2.2c0-.87.3-1.6.92-2.22.6-.6 1.34-.91 2.21-.91zm4.4 0c0 .22-.07.4-.23.55a.75.75 0 0 1-.55.23.75.75 0 0 1-.55-.23.75.75 0 0 1-.23-.55c0-1.3.46-2.4 1.37-3.31a4.52 4.52 0 0 1 3.32-1.38c1.3 0 2.4.46 3.32 1.38a4.52 4.52 0 0 1 1.37 3.31c0 1.3-.46 2.4-1.38 3.32l-1.61 1.5a3.02 3.02 0 0 0-.92 2.21c0 .22-.08.4-.23.55a.75.75 0 0 1-.55.23.75.75 0 0 1-.55-.23.75.75 0 0 1-.23-.55c0-1.3.46-2.4 1.38-3.32l1.6-1.5c.62-.6.92-1.34.92-2.21 0-.87-.3-1.6-.9-2.21-.62-.61-1.35-.91-2.22-.91-.87 0-1.6.3-2.21.9-.61.62-.92 1.35-.92 2.22zm4.3 9.77c0 .32-.11.6-.34.83-.23.22-.5.34-.83.34-.33 0-.6-.12-.83-.34-.23-.23-.34-.5-.34-.83 0-.33.11-.6.34-.83.23-.23.5-.35.83-.35.32 0 .6.12.83.35.23.22.34.5.34.83z"/></defs><g><g transform="translate(-537 -3359)"><use fill="#666" xlink:href="#c94xa"/></g></g></svg>